<svg width="53" height="53" viewBox="0 0 53 53" fill="none" xmlns="http://www.w3.org/2000/svg">
<rect width="53" height="53" rx="19" fill="#1A8981"/>
<path d="M27.4469 26.1875H15.625V32.6875C15.6269 33.3334 15.8844 33.9522 16.3411 34.4089C16.7978 34.8656 17.4166 35.1231 18.0625 35.125H32.9475L27.4469 26.1875ZM29.3644 26.1875L34.8569 35.125H35.9375C36.5834 35.1231 37.2022 34.8656 37.6589 34.4089C38.1156 33.9522 38.3731 33.3334 38.375 32.6875V26.1875H29.3644ZM22.9538 18.875H18.0625C17.4166 18.8769 16.7978 19.1344 16.3411 19.5911C15.8844 20.0478 15.6269 20.6666 15.625 21.3125V24.5625H26.4475L22.9538 18.875ZM35.9375 18.875H24.8631L28.365 24.5625H38.375V21.3125C38.3731 20.6666 38.1156 20.0478 37.6589 19.5911C37.2022 19.1344 36.5834 18.8769 35.9375 18.875Z" fill="white"/>
<path d="M33.9231 38.2529C33.7965 38.3324 33.6501 38.3746 33.5006 38.3748C33.3617 38.3742 33.2253 38.3381 33.1044 38.2698C32.9835 38.2015 32.8821 38.1034 32.8099 37.9848L31.0468 35.1248L25.5462 26.1873L24.5468 24.5623L21.0531 18.8748L19.8099 16.8598C19.7434 16.7692 19.6964 16.6657 19.6719 16.5559C19.6474 16.4461 19.6459 16.3325 19.6676 16.2221C19.6893 16.1118 19.7337 16.0071 19.7979 15.9148C19.8622 15.8225 19.9449 15.7445 20.0408 15.6858C20.1368 15.6271 20.2439 15.589 20.3553 15.5738C20.4667 15.5587 20.5801 15.5668 20.6883 15.5977C20.7964 15.6287 20.8969 15.6817 20.9835 15.7535C21.0701 15.8253 21.1408 15.9143 21.1912 16.0148L22.9543 18.8748L26.4481 24.5623L27.4474 26.1873L32.9481 35.1248L34.1912 37.1398C34.2469 37.2304 34.2842 37.3312 34.3009 37.4362C34.3176 37.5413 34.3134 37.6487 34.2885 37.7521C34.2636 37.8555 34.2185 37.953 34.1557 38.039C34.093 38.1249 34.014 38.1976 33.9231 38.2529Z" fill="white"/>
</svg>
