<svg width="53" height="53" viewBox="0 0 53 53" fill="none" xmlns="http://www.w3.org/2000/svg">
<rect width="53" height="53" rx="19" fill="#1A8981"/>
<path d="M19.6346 23.2087H16.168V34.5837C16.168 36.3786 17.623 37.8337 19.418 37.8337H27.4264C25.2242 36.5067 23.7513 34.0922 23.7513 31.3337C23.7513 27.1455 27.1465 23.7503 31.3346 23.7503C32.0876 23.7503 32.8148 23.86 33.5013 24.0644V19.417C33.5013 17.6221 32.0463 16.167 30.2513 16.167H23.2096V19.6337C23.2096 21.6081 21.6091 23.2087 19.6346 23.2087Z" fill="white"/>
<path d="M21.9013 16.4842C21.9689 16.4167 22.0444 16.359 22.1257 16.312V19.6335C22.1257 21.0096 21.0101 22.1252 19.634 22.1252H16.3125C16.3594 22.0439 16.4171 21.9684 16.4847 21.9008L21.9013 16.4842Z" fill="white"/>
<path fill-rule="evenodd" clip-rule="evenodd" d="M24.834 31.3335C24.834 27.7437 27.7441 24.8335 31.334 24.8335C34.9238 24.8335 37.834 27.7437 37.834 31.3335C37.834 34.9233 34.9238 37.8335 31.334 37.8335C27.7441 37.8335 24.834 34.9233 24.834 31.3335ZM31.334 31.3335C31.9323 31.3335 32.4173 31.8185 32.4173 32.4168V33.5002C32.4173 34.0985 31.9323 34.5835 31.334 34.5835C30.7357 34.5835 30.2507 34.0985 30.2507 33.5002V32.4168C30.2507 31.8185 30.7357 31.3335 31.334 31.3335ZM31.334 30.2502C31.9323 30.2502 32.4173 29.7652 32.4173 29.1668C32.4173 28.5685 31.9323 28.0835 31.334 28.0835C30.7357 28.0835 30.2507 28.5685 30.2507 29.1668C30.2507 29.7652 30.7357 30.2502 31.334 30.2502Z" fill="white"/>
</svg>
