<svg width="53" height="53" viewBox="0 0 53 53" fill="none" xmlns="http://www.w3.org/2000/svg">
<rect width="53" height="53" rx="19" fill="#1A8981"/>
<path d="M12.7606 33.8555H32.6677C32.8463 33.8555 33.0188 33.7931 33.1557 33.6792C33.3469 33.5191 37.7086 29.7669 37.9745 21.6675H16.5946C16.3297 29.0196 12.3128 32.4753 12.2711 32.5098C12.0264 32.7166 11.9363 33.0544 12.0464 33.3549C12.1558 33.6547 12.4407 33.8555 12.7606 33.8555Z" fill="white"/>
<path d="M37.2373 17.0972H33.4285V16.3355C33.4285 15.9089 33.0933 15.5737 32.6667 15.5737C32.2402 15.5737 31.905 15.9089 31.905 16.3355V17.0972H28.0454V16.3355C28.0454 15.9089 27.7103 15.5737 27.2837 15.5737C26.8571 15.5737 26.5219 15.9089 26.5219 16.3355V17.0972H22.7132V16.3355C22.7132 15.9089 22.378 15.5737 21.9514 15.5737C21.5248 15.5737 21.1897 15.9089 21.1897 16.3355V17.0972H17.3809C16.9543 17.0972 16.6191 17.4324 16.6191 17.859V20.1442H37.999V17.859C37.999 17.4324 37.6638 17.0972 37.2373 17.0972Z" fill="white"/>
<path d="M34.133 34.8474C33.7193 35.1918 33.2001 35.3793 32.6667 35.3793H16.6191V37.6645C16.6191 38.0856 16.9598 38.4263 17.3809 38.4263H37.2373C37.6583 38.4263 37.999 38.0856 37.999 37.6645V29.1255C36.5303 32.7286 34.4809 34.5561 34.133 34.8474Z" fill="white"/>
</svg>
