<svg width="53" height="53" viewBox="0 0 53 53" fill="none" xmlns="http://www.w3.org/2000/svg">
<rect width="53" height="53" rx="19" fill="#1A8981"/>
<path d="M26 14.832C19.552 14.832 14.248 20.136 14.248 26.584C14.248 33.136 19.552 38.336 26 38.336C28.08 38.336 30.056 37.816 31.72 36.88L36.192 39.064C36.504 39.272 37.024 39.168 37.336 38.856C37.648 38.544 37.752 38.128 37.544 37.712L35.568 33.24C36.92 31.264 37.648 28.976 37.648 26.584C37.752 20.136 32.448 14.832 26 14.832ZM30.472 27.624L26.936 31.264C26.728 31.472 26.416 31.68 26 31.68C25.688 31.68 25.376 31.576 25.064 31.264L21.528 27.624C20.176 26.272 20.176 24.192 21.528 22.84C22.152 22.32 22.984 21.904 23.816 21.904C24.648 21.904 25.376 22.216 25.896 22.632C27.04 21.696 28.704 21.592 29.848 22.424C30.68 23.048 31.2 23.88 31.304 24.92C31.512 25.96 31.2 26.896 30.472 27.624Z" fill="white"/>
</svg>
