<svg width="1269" height="753" viewBox="0 0 1269 753" fill="none" xmlns="http://www.w3.org/2000/svg">
<mask id="mask0_6009_4009" style="mask-type:alpha" maskUnits="userSpaceOnUse" x="4" y="0" width="1261" height="745">
<rect x="4" width="1261" height="745" rx="28" fill="#F7F7F7"/>
</mask>
<g mask="url(#mask0_6009_4009)">
<g opacity="0.8">
<path opacity="0.0344828" d="M-340.739 -72.3386C-311.66 -43.912 -236.311 14.4584 -167.549 20.5265C-81.5963 28.1116 22.8069 -63.0047 154.028 -44.804C285.249 -26.6033 323.998 135.035 592.683 146.693C861.368 158.35 938.92 -101.503 1282.96 -60.4467" stroke="#DBDBDB" stroke-width="0.590552"/>
<path opacity="0.0689655" d="M-341.234 -83.012C-313.968 -53.3785 -242.369 8.15828 -174.096 17.2375C-88.7543 28.5864 21.1408 -57.7 151.017 -33.7703C280.894 -9.84051 309.536 153.088 577.06 176.542C844.583 199.996 938.156 -55.7749 1279.09 0.319069" stroke="#DBDBDB" stroke-width="0.628652"/>
<path opacity="0.103448" d="M-341.64 -94.038C-316.259 -63.279 -248.598 1.2549 -181 13.3188C-96.5031 28.3987 18.5679 -52.8253 146.746 -23.2347C274.923 6.35591 293.405 170.129 559.033 205.31C824.661 240.491 933.958 -10.5036 1270.85 60.4677" stroke="#DBDBDB" stroke-width="0.666752"/>
<path opacity="0.137931" d="M-341.938 -105.41C-318.507 -73.6102 -254.961 -6.25636 -188.224 8.75782C-104.803 27.5255 15.1145 -48.4181 141.244 -13.2503C267.373 21.9176 275.666 186.09 538.67 232.895C801.674 279.7 926.357 34.1625 1258.28 119.81" stroke="#DBDBDB" stroke-width="0.704853"/>
<path opacity="0.172414" d="M-342.109 -117.123C-320.688 -84.369 -261.423 -14.3799 -195.729 3.54197C-113.612 25.9443 10.809 -44.5159 134.546 -3.86975C258.283 36.7764 256.388 200.902 516.048 259.197C775.707 317.492 915.394 78.0748 1241.45 178.156" stroke="#DBDBDB" stroke-width="0.742953"/>
<path opacity="0.206897" d="M-342.127 -129.172C-322.771 -95.5529 -267.941 -23.1199 -203.47 -2.34082C-122.882 23.633 5.6881 -41.1564 126.695 4.85418C247.703 50.8648 235.649 214.499 491.253 284.119C746.856 353.738 901.127 121.085 1220.43 235.32" stroke="#DBDBDB" stroke-width="0.781053"/>
<path opacity="0.241379" d="M-341.976 -141.547C-324.734 -107.155 -274.482 -32.4755 -211.409 -8.89758C-132.569 20.5748 -0.216219 -38.3727 117.732 12.874C235.68 64.1207 213.523 226.821 464.371 307.568C715.218 388.315 883.614 163.052 1195.29 291.121" stroke="#DBDBDB" stroke-width="0.819153"/>
<path opacity="0.275862" d="M-341.633 -154.241C-326.549 -119.17 -281.004 -42.448 -219.503 -16.1372C-142.626 16.7513 -6.86583 -36.1996 107.702 20.1404C222.27 76.4804 190.094 237.808 435.499 329.456C680.904 421.103 862.925 203.833 1166.12 345.378" stroke="#DBDBDB" stroke-width="0.857253"/>
<path opacity="0.310345" d="M-341.08 -167.245C-328.191 -131.589 -287.471 -53.0337 -227.708 -24.0635C-153.005 12.1494 -14.2217 -34.6673 96.6547 26.6096C207.531 87.8865 165.444 247.407 404.736 349.698C644.027 451.99 839.141 243.291 1133.03 397.919" stroke="#DBDBDB" stroke-width="0.895353"/>
<path opacity="0.344828" d="M-340.298 -180.548C-329.635 -144.404 -293.843 -64.2292 -235.982 -32.6801C-163.656 6.75624 -22.242 -33.806 84.6413 32.2378C191.525 98.2815 139.665 255.567 372.189 368.216C604.712 480.865 812.348 281.291 1096.14 448.573" stroke="#DBDBDB" stroke-width="0.933454"/>
<path opacity="0.37931" d="M-339.269 -194.14C-330.858 -157.606 -300.085 -76.0289 -244.283 -41.9886C-174.531 0.561636 -30.8859 -33.6435 71.7141 36.9842C174.314 107.612 112.844 262.241 337.965 384.933C563.086 507.625 782.643 317.706 1055.56 497.177" stroke="#DBDBDB" stroke-width="0.971554"/>
<path opacity="0.413793" d="M-337.976 -208.009C-331.836 -171.184 -306.159 -88.4256 -252.568 -51.9887C-185.58 -6.44264 -40.108 -34.206 57.9301 40.8103C155.968 115.827 85.077 267.386 302.181 399.78C519.284 532.173 750.127 352.407 1011.43 543.571" stroke="#DBDBDB" stroke-width="1.00965"/>
<path opacity="0.448276" d="M-336.401 -222.143C-332.546 -185.127 -312.027 -101.411 -260.793 -62.6785C-196.751 -14.2629 -49.8617 -35.5179 43.3489 43.6797C136.559 122.877 56.4605 270.963 264.954 412.69C473.448 554.417 714.915 385.276 963.889 587.603" stroke="#DBDBDB" stroke-width="1.04775"/>
<path opacity="0.482759" d="M-334.53 -236.529C-332.967 -199.42 -317.655 -114.973 -268.918 -74.0524C-207.996 -22.9013 -60.1014 -37.5998 28.029 45.5606C116.159 128.721 27.0912 272.94 226.407 423.606C425.723 574.273 677.122 416.196 913.095 629.128" stroke="#DBDBDB" stroke-width="1.08585"/>
<path opacity="0.517241" d="M-332.348 -251.152C-333.077 -214.052 -323.008 -129.102 -276.899 -86.106C-219.264 -32.361 -70.7777 -40.4729 12.034 46.4208C94.8456 133.315 -2.9297 273.285 186.666 432.473C376.261 591.66 636.875 445.057 859.207 668.006" stroke="#DBDBDB" stroke-width="1.12395"/>
<path opacity="0.551724" d="M-329.839 -265.999C-332.855 -229.007 -328.05 -143.783 -284.695 -98.8309C-230.501 -42.6404 -81.8397 -44.1544 -4.57053 46.2333C72.6987 136.621 -33.4988 271.973 145.86 439.241C325.218 606.509 594.307 471.755 802.398 704.105" stroke="#DBDBDB" stroke-width="1.16205"/>
<path opacity="0.586207" d="M-326.992 -281.055C-332.285 -244.27 -332.749 -159.002 -292.265 -112.218C-241.661 -53.7369 -93.2388 -48.6598 -21.7206 44.973C49.7975 138.606 -64.5147 268.984 104.12 443.869C272.754 618.753 549.556 496.191 742.842 737.303" stroke="#DBDBDB" stroke-width="1.20015"/>
<path opacity="0.62069" d="M-323.793 -296.305C-331.345 -259.825 -337.071 -174.743 -299.568 -126.255C-252.69 -65.6451 -104.921 -54.0025 -39.347 42.6179C26.2274 139.238 -95.8711 264.3 61.5815 446.318C219.034 628.336 502.767 518.273 680.727 767.482" stroke="#DBDBDB" stroke-width="1.23825"/>
<path opacity="0.655172" d="M-320.234 -311.732C-330.021 -275.655 -340.988 -190.987 -306.568 -140.929C-263.541 -78.3579 -116.838 -60.1933 -57.3837 39.149C2.07056 138.491 -127.465 257.91 18.3785 446.558C164.222 635.205 454.088 537.915 616.241 794.535" stroke="#DBDBDB" stroke-width="1.27635"/>
<path opacity="0.689655" d="M-316.301 -327.32C-328.293 -291.742 -344.465 -207.715 -313.219 -156.227C-274.162 -91.8658 -128.931 -67.241 -75.7562 34.5501C-22.5817 136.341 -159.187 249.807 -25.3465 444.563C108.494 639.319 403.679 555.038 549.59 818.364" stroke="#DBDBDB" stroke-width="1.31445"/>
<path opacity="0.724138" d="M-311.988 -343.053C-326.151 -308.07 -347.479 -224.909 -319.492 -172.131C-284.508 -106.158 -141.152 -75.1524 -94.3997 28.8081C-47.6473 132.769 -190.935 239.987 -69.4597 440.314C52.0152 640.641 351.693 569.57 480.971 838.877" stroke="#DBDBDB" stroke-width="1.35256"/>
<path opacity="0.758621" d="M-307.285 -358.912C-323.577 -324.617 -349.996 -242.545 -325.343 -188.623C-294.527 -121.219 -153.444 -83.9307 -113.238 21.9139C-73.0325 127.758 -222.598 228.454 -113.816 433.799C-5.03426 639.143 298.3 581.446 410.598 855.995" stroke="#DBDBDB" stroke-width="1.39066"/>
<path opacity="0.793103" d="M-302.186 -374.881C-320.559 -341.365 -351.994 -260.602 -330.741 -205.683C-304.175 -137.034 -165.754 -93.5778 -132.202 13.8605C-98.6494 121.299 -254.074 215.213 -158.277 425.01C-62.4806 634.806 243.664 590.609 338.684 869.645" stroke="#DBDBDB" stroke-width="1.42876"/>
<path opacity="0.827586" d="M-296.685 -390.943C-317.089 -358.294 -353.447 -279.056 -335.651 -223.291C-313.406 -153.586 -178.029 -104.093 -151.219 4.64433C-124.409 113.382 -285.257 200.277 -202.703 413.947C-120.148 627.617 187.958 597.007 265.448 879.765" stroke="#DBDBDB" stroke-width="1.46686"/>
<path opacity="0.862069" d="M-290.779 -407.078C-313.155 -375.384 -354.334 -297.881 -340.042 -241.425C-322.176 -170.855 -190.216 -115.474 -170.218 -5.73494C-150.22 104.004 -316.044 183.66 -246.951 400.615C-177.859 617.57 131.354 600.6 191.11 886.304" stroke="#DBDBDB" stroke-width="1.50496"/>
<path opacity="0.896552" d="M-284.46 -423.27C-308.745 -392.613 -354.628 -317.052 -343.877 -260.059C-330.438 -188.818 -202.258 -127.713 -189.123 -17.2741C-175.987 93.1652 -346.326 165.384 -290.879 385.026C-235.432 604.668 74.0327 601.351 115.9 889.218" stroke="#DBDBDB" stroke-width="1.54306"/>
<path opacity="0.931035" d="M-277.731 -439.5C-303.858 -409.962 -354.315 -336.544 -347.133 -279.171C-338.156 -207.454 -214.106 -140.806 -207.867 -29.9687C-201.628 80.869 -376.009 145.472 -334.353 367.197C-292.696 588.922 16.1667 599.233 40.0399 888.475" stroke="#DBDBDB" stroke-width="1.58116"/>
</g>
<g opacity="0.8">
<g opacity="0.6" filter="url(#filter0_f_6009_4009)">
<ellipse cx="818.988" cy="318.102" rx="541.81" ry="168.617" transform="rotate(15 818.988 318.102)" fill="#F7F7F7"/>
</g>
<path opacity="0.0344828" d="M2239.74 672.35C2210.66 643.923 2135.32 585.553 2066.55 579.485C1980.6 571.9 1876.2 663.016 1744.98 644.815C1613.76 626.615 1575.01 464.976 1306.32 453.319C1037.64 441.661 960.084 701.514 616.041 660.458" stroke="#DBDBDB" stroke-width="0.590552"/>
<path opacity="0.0689655" d="M2240.24 683.023C2212.97 653.39 2141.37 591.853 2073.1 582.774C1987.76 571.425 1877.86 657.711 1747.99 633.782C1618.11 609.852 1589.47 446.924 1321.94 423.469C1054.42 400.015 960.847 655.786 619.915 599.692" stroke="#DBDBDB" stroke-width="0.628652"/>
<path opacity="0.103448" d="M2240.64 694.049C2215.26 663.29 2147.6 598.756 2080 586.692C1995.51 571.612 1880.44 652.837 1752.26 623.246C1624.08 593.655 1605.6 429.882 1339.97 394.701C1074.34 359.52 965.046 610.515 628.157 539.544" stroke="#DBDBDB" stroke-width="0.666752"/>
<path opacity="0.137931" d="M2240.94 705.422C2217.51 673.621 2153.96 606.268 2087.23 591.253C2003.81 572.486 1883.89 648.429 1757.76 613.261C1631.63 578.094 1623.34 413.921 1360.33 367.116C1097.33 320.311 972.646 565.849 640.719 480.202" stroke="#DBDBDB" stroke-width="0.704853"/>
<path opacity="0.172414" d="M2241.11 717.135C2219.69 684.38 2160.43 614.391 2094.73 596.469C2012.62 574.067 1888.19 644.527 1764.46 603.881C1640.72 563.235 1642.62 399.109 1382.96 340.814C1123.3 282.519 983.609 521.936 657.55 421.855" stroke="#DBDBDB" stroke-width="0.742953"/>
<path opacity="0.206897" d="M2241.13 729.183C2221.77 695.564 2166.94 623.131 2102.47 602.352C2021.88 576.378 1893.31 641.168 1772.31 595.157C1651.3 549.146 1663.35 385.512 1407.75 315.892C1152.15 246.273 997.876 478.926 678.574 364.691" stroke="#DBDBDB" stroke-width="0.781053"/>
<path opacity="0.241379" d="M2240.98 741.558C2223.74 707.166 2173.48 632.487 2110.41 608.909C2031.57 579.436 1899.22 638.384 1781.27 587.137C1663.32 535.891 1685.48 373.19 1434.63 292.443C1183.78 211.696 1015.39 436.959 703.715 308.89" stroke="#DBDBDB" stroke-width="0.819153"/>
<path opacity="0.275862" d="M2240.64 754.253C2225.55 719.181 2180.01 642.459 2118.51 616.148C2041.63 583.26 1905.87 636.211 1791.3 579.871C1676.73 523.531 1708.91 362.203 1463.5 270.555C1218.1 178.908 1036.08 396.179 732.881 254.633" stroke="#DBDBDB" stroke-width="0.857253"/>
<path opacity="0.310345" d="M2240.08 767.256C2227.19 731.6 2186.47 653.045 2126.71 624.075C2052.01 587.862 1913.22 634.679 1802.35 573.402C1691.47 512.125 1733.56 352.604 1494.27 250.313C1254.98 148.021 1059.86 356.721 765.969 202.092" stroke="#DBDBDB" stroke-width="0.895353"/>
<path opacity="0.344828" d="M2239.3 780.56C2228.64 744.416 2192.85 664.24 2134.99 632.691C2062.66 593.255 1921.25 633.817 1814.36 567.773C1707.48 501.73 1759.34 344.444 1526.82 231.796C1294.29 119.147 1086.66 318.72 802.865 151.438" stroke="#DBDBDB" stroke-width="0.933454"/>
<path opacity="0.37931" d="M2238.27 794.151C2229.86 757.618 2199.09 676.04 2143.29 642C2073.53 599.45 1929.89 633.655 1827.29 563.027C1724.69 492.399 1786.16 337.77 1561.04 215.078C1335.92 92.3862 1116.36 282.306 843.445 102.834" stroke="#DBDBDB" stroke-width="0.971554"/>
<path opacity="0.413793" d="M2236.98 808.02C2230.84 771.196 2205.16 688.437 2151.57 652C2084.58 606.454 1939.11 634.217 1841.07 559.201C1743.03 484.185 1813.92 332.625 1596.82 200.232C1379.72 67.8381 1148.87 247.604 887.575 56.4399" stroke="#DBDBDB" stroke-width="1.00965"/>
<path opacity="0.448276" d="M2235.4 822.155C2231.55 785.138 2211.03 701.422 2159.8 662.69C2095.75 614.274 1948.86 635.529 1855.65 556.332C1762.44 477.134 1842.54 329.048 1634.05 187.321C1425.55 45.5943 1184.09 214.736 935.114 12.4081" stroke="#DBDBDB" stroke-width="1.04775"/>
<path opacity="0.482759" d="M2233.53 836.54C2231.97 799.431 2216.66 714.985 2167.92 674.064C2107 622.913 1959.1 637.611 1870.97 554.451C1782.84 471.29 1871.91 327.071 1672.6 176.405C1473.28 25.7385 1221.88 183.815 985.908 -29.1169" stroke="#DBDBDB" stroke-width="1.08585"/>
<path opacity="0.517241" d="M2231.35 851.164C2232.08 814.063 2222.01 729.114 2175.9 686.118C2118.27 632.373 1969.78 640.485 1886.97 553.591C1804.16 466.697 1901.93 326.727 1712.34 167.539C1522.74 8.35142 1262.13 154.955 1039.8 -67.9938" stroke="#DBDBDB" stroke-width="1.12395"/>
<path opacity="0.551724" d="M2228.84 866.011C2231.86 829.018 2227.05 743.795 2183.7 698.842C2129.51 642.652 1980.84 644.166 1903.57 553.778C1826.31 463.39 1932.5 328.038 1753.14 160.77C1573.79 -6.4978 1304.7 128.256 1096.61 -104.094" stroke="#DBDBDB" stroke-width="1.16205"/>
<path opacity="0.586207" d="M2226 881.067C2231.29 844.281 2231.75 759.013 2191.27 712.229C2140.66 653.748 1992.24 648.671 1920.72 555.038C1849.21 461.405 1963.52 331.027 1794.88 156.143C1626.25 -18.7421 1349.45 103.82 1156.16 -137.291" stroke="#DBDBDB" stroke-width="1.20015"/>
<path opacity="0.62069" d="M2222.8 896.316C2230.35 859.836 2236.07 774.754 2198.57 726.266C2151.69 665.656 2003.92 654.014 1938.35 557.393C1872.78 460.773 1994.87 335.711 1837.42 153.693C1679.97 -28.3243 1396.24 81.7381 1218.28 -167.471" stroke="#DBDBDB" stroke-width="1.23825"/>
</g>
</g>
<defs>
<filter id="filter0_f_6009_4009" x="42.6304" y="-147.988" width="1552.71" height="932.179" filterUnits="userSpaceOnUse" color-interpolation-filters="sRGB">
<feFlood flood-opacity="0" result="BackgroundImageFix"/>
<feBlend mode="normal" in="SourceGraphic" in2="BackgroundImageFix" result="shape"/>
<feGaussianBlur stdDeviation="125.582" result="effect1_foregroundBlur_6009_4009"/>
</filter>
</defs>
</svg>
