<svg width="534" height="13" viewBox="0 0 534 13" fill="none" xmlns="http://www.w3.org/2000/svg">
<path d="M47 4H0V5H47V4Z" fill="#222222"/>
<path d="M75.1909 0.0615234V3.96013C75.1909 5.73133 74.8732 7.34852 74.2379 8.81162C73.6219 10.2941 72.794 11.5455 71.7544 12.5658L70.3105 11.4107C70.888 10.6406 71.3693 9.88013 71.7544 9.12933C72.1587 8.37853 72.4571 7.58912 72.6496 6.76132C72.8421 5.93342 72.9384 5.02862 72.9384 4.04672V0.0615234H75.1909ZM83.4386 0.0615234V3.96013C83.4386 5.73133 83.1209 7.34852 82.4856 8.81162C81.8695 10.2941 81.0417 11.5455 80.002 12.5658L78.5581 11.4107C79.1357 10.6406 79.617 9.88013 80.002 9.12933C80.4063 8.37853 80.7047 7.58912 80.8973 6.76132C81.0898 5.93342 81.1861 5.02862 81.1861 4.04672V0.0615234H83.4386Z" fill="#222222"/>
<path d="M534 4H107V5H534V4Z" fill="#222222"/>
</svg>
