<svg width="179" height="96" viewBox="0 0 179 96" fill="none" xmlns="http://www.w3.org/2000/svg">
<path d="M72.1187 89.6734V91.5454H63.832V89.948L67.7507 85.7464C68.1445 85.3082 68.4552 84.9227 68.6826 84.5899C68.91 84.2515 69.0736 83.9492 69.1735 83.683C69.2788 83.4112 69.3315 83.1533 69.3315 82.9092C69.3315 82.5431 69.2705 82.2298 69.1485 81.9691C69.0265 81.7028 68.8462 81.4976 68.6077 81.3534C68.3747 81.2092 68.0863 81.1371 67.7424 81.1371C67.3763 81.1371 67.0602 81.2258 66.7939 81.4033C66.5332 81.5808 66.3336 81.8276 66.1949 82.1438C66.0618 82.4599 65.9952 82.8177 65.9952 83.2171H63.5907C63.5907 82.496 63.7627 81.8359 64.1066 81.2369C64.4505 80.6323 64.9358 80.1525 65.5626 79.7975C66.1893 79.437 66.9326 79.2567 67.7923 79.2567C68.641 79.2567 69.3565 79.3954 69.9389 79.6727C70.5268 79.9445 70.9706 80.3383 71.2701 80.8542C71.5752 81.3645 71.7277 81.9746 71.7277 82.6846C71.7277 83.0839 71.6639 83.475 71.5363 83.8577C71.4088 84.2349 71.2257 84.6121 70.9872 84.9892C70.7543 85.3609 70.4714 85.738 70.1386 86.1208C69.8058 86.5035 69.4369 86.9001 69.032 87.3105L66.9271 89.6734H72.1187ZM85.8594 84.4235V86.5201C85.8594 87.4298 85.7624 88.2146 85.5682 88.8747C85.3741 89.5292 85.094 90.0672 84.7279 90.4888C84.3674 90.9048 83.9375 91.2126 83.4383 91.4123C82.9391 91.612 82.3844 91.7118 81.7743 91.7118C81.2862 91.7118 80.8314 91.6508 80.4098 91.5288C79.9883 91.4012 79.6083 91.2043 79.27 90.938C78.9372 90.6718 78.6487 90.3362 78.4047 89.9313C78.1662 89.5209 77.9831 89.0328 77.8556 88.467C77.728 87.9012 77.6642 87.2523 77.6642 86.5201V84.4235C77.6642 83.5138 77.7613 82.7345 77.9554 82.0855C78.1551 81.431 78.4352 80.8958 78.7957 80.4798C79.1618 80.0638 79.5944 79.7587 80.0937 79.5646C80.5929 79.3649 81.1475 79.2651 81.7577 79.2651C82.2458 79.2651 82.6978 79.3288 83.1138 79.4564C83.5354 79.5784 83.9153 79.7698 84.2537 80.0305C84.592 80.2912 84.8804 80.6268 85.1189 81.0372C85.3575 81.4421 85.5405 81.9275 85.6681 82.4932C85.7956 83.0534 85.8594 83.6969 85.8594 84.4235ZM83.4549 86.8363V84.099C83.4549 83.6608 83.43 83.2781 83.3801 82.9508C83.3357 82.6236 83.2664 82.3462 83.1721 82.1188C83.0778 81.8859 82.9613 81.6973 82.8226 81.5531C82.684 81.4089 82.5259 81.3035 82.3484 81.2369C82.1709 81.1703 81.974 81.1371 81.7577 81.1371C81.4859 81.1371 81.2446 81.1898 81.0338 81.2951C80.8286 81.4005 80.6539 81.5697 80.5097 81.8027C80.3654 82.0301 80.2545 82.3351 80.1769 82.7179C80.1047 83.095 80.0687 83.5554 80.0687 84.099V86.8363C80.0687 87.2745 80.0909 87.66 80.1353 87.9928C80.1852 88.3256 80.2573 88.6112 80.3516 88.8497C80.4514 89.0827 80.5679 89.274 80.701 89.4238C80.8397 89.568 80.9978 89.6734 81.1753 89.74C81.3583 89.8065 81.558 89.8398 81.7743 89.8398C82.0405 89.8398 82.2763 89.7871 82.4815 89.6817C82.6923 89.5708 82.8698 89.3988 83.014 89.1659C83.1637 88.9274 83.2747 88.6168 83.3468 88.234C83.4189 87.8513 83.4549 87.3854 83.4549 86.8363ZM99.8663 89.6734V91.5454H91.5796V89.948L95.4983 85.7464C95.8922 85.3082 96.2028 84.9227 96.4302 84.5899C96.6576 84.2515 96.8212 83.9492 96.9211 83.683C97.0264 83.4112 97.0791 83.1533 97.0791 82.9092C97.0791 82.5431 97.0181 82.2298 96.8961 81.9691C96.7741 81.7028 96.5938 81.4976 96.3553 81.3534C96.1223 81.2092 95.8339 81.1371 95.49 81.1371C95.1239 81.1371 94.8078 81.2258 94.5415 81.4033C94.2808 81.5808 94.0812 81.8276 93.9425 82.1438C93.8094 82.4599 93.7428 82.8177 93.7428 83.2171H91.3383C91.3383 82.496 91.5103 81.8359 91.8542 81.2369C92.1981 80.6323 92.6834 80.1525 93.3102 79.7975C93.9369 79.437 94.6802 79.2567 95.5399 79.2567C96.3886 79.2567 97.1041 79.3954 97.6865 79.6727C98.2745 79.9445 98.7182 80.3383 99.0177 80.8542C99.3228 81.3645 99.4753 81.9746 99.4753 82.6846C99.4753 83.0839 99.4115 83.475 99.2839 83.8577C99.1564 84.2349 98.9733 84.6121 98.7348 84.9892C98.5019 85.3609 98.219 85.738 97.8862 86.1208C97.5534 86.5035 97.1845 86.9001 96.7796 87.3105L94.6747 89.6734H99.8663ZM107.908 84.4484H109.189C109.6 84.4484 109.938 84.3791 110.204 84.2404C110.47 84.0962 110.667 83.8965 110.795 83.6414C110.928 83.3807 110.995 83.0784 110.995 82.7345C110.995 82.4239 110.934 82.1493 110.812 81.9108C110.695 81.6668 110.515 81.4782 110.271 81.3451C110.027 81.2064 109.719 81.1371 109.347 81.1371C109.053 81.1371 108.781 81.1953 108.532 81.3118C108.282 81.4283 108.083 81.5919 107.933 81.8027C107.783 82.0134 107.708 82.2686 107.708 82.5681H105.304C105.304 81.9025 105.481 81.3229 105.836 80.8292C106.197 80.3356 106.679 79.9501 107.284 79.6727C107.888 79.3954 108.554 79.2567 109.281 79.2567C110.102 79.2567 110.82 79.3899 111.436 79.6561C112.051 79.9168 112.531 80.3023 112.875 80.8126C113.219 81.3229 113.391 81.9552 113.391 82.7095C113.391 83.0923 113.302 83.4639 113.124 83.8244C112.947 84.1794 112.692 84.5011 112.359 84.7896C112.032 85.0724 111.632 85.2998 111.161 85.4718C110.689 85.6382 110.16 85.7214 109.572 85.7214H107.908V84.4484ZM107.908 86.2705V85.0308H109.572C110.232 85.0308 110.812 85.1057 111.311 85.2555C111.81 85.4052 112.229 85.6216 112.567 85.9044C112.905 86.1818 113.161 86.5118 113.332 86.8945C113.504 87.2717 113.59 87.6905 113.59 88.1508C113.59 88.7166 113.482 89.2214 113.266 89.6651C113.05 90.1033 112.745 90.4749 112.351 90.78C111.962 91.085 111.508 91.318 110.986 91.4788C110.465 91.6342 109.896 91.7118 109.281 91.7118C108.77 91.7118 108.268 91.6425 107.775 91.5038C107.287 91.3596 106.843 91.146 106.443 90.8632C106.05 90.5747 105.734 90.2142 105.495 89.7816C105.262 89.3434 105.146 88.8248 105.146 88.2257H107.55C107.55 88.5363 107.628 88.8137 107.783 89.0577C107.938 89.3018 108.152 89.4931 108.424 89.6318C108.701 89.7705 109.009 89.8398 109.347 89.8398C109.73 89.8398 110.057 89.7705 110.329 89.6318C110.606 89.4876 110.817 89.2879 110.961 89.0328C111.111 88.7721 111.186 88.4698 111.186 88.1259C111.186 87.6821 111.105 87.3272 110.945 87.0609C110.784 86.7891 110.554 86.5895 110.254 86.4619C109.955 86.3343 109.6 86.2705 109.189 86.2705H107.908Z" fill="#FF2A6D"/>
<path d="M145.472 19.5741C145.082 19.6478 144.681 19.6541 144.285 19.5906C143.578 19.4773 142.924 19.1471 142.414 18.6457L142.41 18.6418L142.41 18.6418L141.862 18.1118L145.472 19.5741ZM145.472 19.5741L139.735 11.8888L139.286 11.288L139.887 10.8393L142.292 9.04265L142.893 8.59365L143.342 9.19489L148.332 15.88C148.318 15.6608 148.283 15.4423 148.226 15.2275C147.566 12.7436 146.093 10.5523 144.042 9.00297C142.115 7.54686 139.781 6.73653 137.374 6.68023C137.264 8.77493 137.599 10.8697 138.358 12.8262C139.132 14.8197 140.327 16.6226 141.862 18.1113L145.472 19.5741ZM156.979 16.8232L156.979 16.8243C157.995 18.1815 158.741 19.7211 159.177 21.3595L156.979 16.8232ZM156.979 16.8232L155.657 15.0504L154.036 17.0087C154.036 17.009 154.036 17.0093 154.035 17.0097C152.791 18.5243 151.924 20.3135 151.508 22.2294C151.091 24.1457 151.137 26.1336 151.641 28.0286C151.769 28.5093 151.992 28.9594 152.297 29.3527C152.327 29.391 152.357 29.4287 152.388 29.4658M156.979 16.8232L152.388 29.4658M152.388 29.4658L152.922 20.7405L152.968 19.9925L153.716 20.0378L156.714 20.2191L157.463 20.2644L157.418 21.0134L156.841 30.463C157.171 30.3097 157.479 30.109 157.753 29.8662C158.189 29.4807 158.53 28.9997 158.749 28.4607C159.65 26.2012 159.8 23.7114 159.177 21.3599L152.388 29.4658ZM158.377 41.1332C158.212 40.8487 158.085 40.5425 157.999 40.2219L157.999 40.2209C157.834 39.6124 157.792 38.9772 157.875 38.3524C157.958 37.7275 158.164 37.1252 158.481 36.5805L158.482 36.5796C160.143 33.7172 162.445 31.2786 165.207 29.455L158.377 41.1332ZM158.377 41.1332L161.281 33.4177L161.545 32.7154L162.247 32.9802L165.049 34.0368L165.75 34.3011L165.486 35.0024L162.488 42.979C162.556 42.9657 162.624 42.9504 162.691 42.9333C163.244 42.7866 163.758 42.5168 164.192 42.144C164.628 41.7705 164.973 41.3033 165.202 40.7773L165.203 40.7761C166.734 37.2818 167.034 33.3715 166.055 29.6844L165.876 29.0139M158.377 41.1332L165.876 29.0139M165.876 29.0139L165.207 29.4547L165.876 29.0139ZM168.33 46.988L168.336 46.9341L168.335 46.9341L168.323 46.9343L168.311 46.9341C166.823 46.9105 165.345 47.0406 163.899 47.3177L164.202 47.8106L165.775 50.3655L166.168 51.004L165.53 51.3972L155.885 57.3395C156.219 57.5588 156.585 57.7278 156.972 57.8394C157.665 58.0389 158.398 58.0475 159.095 57.8645C161.554 57.1997 163.753 55.8042 165.402 53.8626C167.052 51.9206 168.073 49.5237 168.33 46.9888C168.33 46.9885 168.33 46.9883 168.33 46.988ZM163.171 47.5651L163.411 47.417C160.643 48.0138 158.003 49.1519 155.65 50.7832C155.094 51.1979 154.655 51.7507 154.378 52.3869C154.275 52.6253 154.195 52.8723 154.14 53.1242L163.171 47.5651ZM149.018 64.3742C148.769 64.6745 148.57 65.01 148.426 65.3678L157.104 63.0529L157.828 62.8596L158.022 63.5842L158.795 66.4828L158.988 67.2074L158.263 67.4007L149.586 69.7157C149.889 69.9542 150.229 70.1459 150.594 70.2822C151.318 70.5519 152.107 70.5918 152.854 70.3963C156.817 69.335 160.33 67.0339 162.884 63.8389C159.078 62.341 154.886 62.0957 150.921 63.1498C150.176 63.3523 149.511 63.7799 149.018 64.3742ZM138.54 78.5123C142.458 80.7239 146.963 81.6692 151.437 81.2216C149.572 77.0629 146.449 73.5905 142.503 71.2979L142.496 71.294C141.859 70.9151 141.128 70.7219 140.387 70.7361C140.056 70.7425 139.728 70.7903 139.411 70.8772L146.78 75.9342L147.399 76.3588L146.974 76.9773L145.277 79.4482L144.852 80.0662L144.234 79.6419L136.386 74.2553C136.284 74.9037 136.34 75.5718 136.555 76.2018C136.875 77.1371 137.524 77.9244 138.381 78.4167L138.535 78.5056L138.54 78.5123Z" fill="#FF6998" stroke="#FF2A6D" stroke-width="1.49997"/>
<circle cx="3.13867" cy="3.13867" r="2.09245" transform="matrix(-0.96621 0.257755 0.257755 0.96621 138.02 44.0779)" fill="#FF6998" stroke="#FF2A6D" stroke-width="2.09245"/>
<path d="M33.3604 19.5722C33.75 19.6456 34.1516 19.6517 34.5475 19.5879C35.254 19.474 35.9075 19.1434 36.4177 18.6416L36.4216 18.6378L36.4216 18.6378L36.969 18.1073L33.3604 19.5722ZM33.3604 19.5722L39.0921 11.8828L39.5402 11.2817L38.9392 10.8334L36.5328 9.0385L35.9314 8.58992L35.4831 9.19148L30.4979 15.8801C30.5118 15.6609 30.5467 15.4424 30.6028 15.2275C31.2615 12.7432 32.733 10.5509 34.7827 9.00006C36.709 7.54259 39.0417 6.73062 41.4487 6.67262C41.5604 8.76724 41.2268 10.8622 40.4692 12.8192C39.6973 14.8133 38.5035 16.617 36.9695 18.1068L33.3604 19.5722ZM21.8515 16.8294L21.8507 16.8305C20.8358 18.1884 20.091 19.7285 19.6567 21.3673L21.8515 16.8294ZM21.8515 16.8294L23.1723 15.0557L24.7942 17.0128C24.7944 17.0131 24.7947 17.0135 24.795 17.0138C26.0409 18.5276 26.9086 20.3162 27.3263 22.2318C27.7441 24.1477 27.6997 26.1356 27.1968 28.0311C27.069 28.5118 26.8464 28.9621 26.542 29.3556C26.5123 29.3939 26.4819 29.4317 26.4508 29.4688M21.8515 16.8294L26.4508 29.4688M26.4508 29.4688L25.9105 20.7439L25.8642 19.9959L25.1161 20.0417L22.1183 20.2251L21.3693 20.271L21.4155 21.0199L21.9986 30.4691C21.6683 30.316 21.3609 30.1155 21.0864 29.873C20.6503 29.4877 20.3093 29.007 20.0898 28.4681C19.1866 26.2092 19.0347 23.7196 19.6566 21.3676L26.4508 29.4688ZM20.4708 41.1404C20.6348 40.8557 20.7619 40.5495 20.8478 40.2288L20.848 40.2279C21.0119 39.6192 21.0534 38.984 20.9701 38.3592C20.8867 37.7344 20.6803 37.1323 20.3626 36.5878L20.3621 36.5868C18.6987 33.7257 16.3951 31.2887 13.6321 29.467L20.4708 41.1404ZM20.4708 41.1404L17.5611 33.427L17.2963 32.7248L16.5943 32.9901L13.7936 34.0486L13.0928 34.3135L13.3569 35.0146L16.3605 42.9891C16.2926 42.9758 16.225 42.9606 16.1578 42.9435C15.6042 42.7972 15.0908 42.5278 14.6558 42.1553C14.2201 41.7821 13.8744 41.3151 13.6448 40.7893L13.6442 40.7881C12.1107 37.2949 11.8076 33.3848 12.7845 29.697L12.9629 29.0264M20.4708 41.1404L12.9629 29.0264M12.9629 29.0264L13.6317 29.4667L12.9629 29.0264ZM10.5211 47.0022L10.5157 46.9483L10.5162 46.9483L10.5281 46.9485L10.5399 46.9483C12.0281 46.9236 13.5064 47.0527 14.9527 47.3288L14.6496 47.8219L13.0788 50.3779L12.6862 51.0166L13.3248 51.4094L22.9742 57.345C22.6404 57.5645 22.2741 57.7337 21.8869 57.8456C21.1947 58.0455 20.4614 58.0547 19.7645 57.8722C17.305 57.2091 15.1046 55.8152 13.4542 53.8747C11.8034 51.9339 10.7806 49.5377 10.5211 47.003C10.5211 47.0027 10.5211 47.0025 10.5211 47.0022ZM15.6813 47.5757L15.4406 47.4277C18.209 48.0225 20.8496 49.1588 23.2041 50.7884C23.7606 51.2027 24.1994 51.7552 24.4768 52.3913C24.5808 52.6296 24.6607 52.8765 24.7161 53.1284L15.6813 47.5757ZM29.8453 64.3747C30.0947 64.6749 30.2942 65.0103 30.4385 65.368L21.7592 63.0592L21.0344 62.8664L20.8416 63.5911L20.0704 66.4903L19.8776 67.215L20.6024 67.4078L29.2817 69.7167C28.9787 69.9554 28.639 70.1473 28.2734 70.2839C27.5501 70.5541 26.761 70.5945 26.014 70.3995C22.05 69.3411 18.5356 67.0424 15.9792 63.8492C19.7843 62.3487 23.9762 62.1005 27.942 63.1517C28.6872 63.3537 29.3519 63.7808 29.8453 64.3747ZM40.3338 78.5055C36.4171 80.7198 31.9128 81.6684 27.4386 81.2238C29.3003 77.0639 32.4215 73.5893 36.366 71.2939L36.3725 71.29C37.0095 70.9107 37.7397 70.7169 38.4809 70.7306C38.8124 70.7368 39.1402 70.7843 39.4569 70.871L32.0916 75.9332L31.4733 76.3582L31.8985 76.9764L33.5977 79.4462L34.0226 80.0638L34.6404 79.6391L42.4848 74.247C42.5868 74.8953 42.5313 75.5635 42.3166 76.1936C41.9978 77.1291 41.3496 77.9168 40.493 78.4098L40.3383 78.4988L40.3338 78.5055Z" fill="#FF6998" stroke="#FF2A6D" stroke-width="1.49997"/>
<circle cx="43.0544" cy="47.9062" r="2.09245" transform="rotate(14.8965 43.0544 47.9062)" fill="#FF6998" stroke="#FF2A6D" stroke-width="2.09245"/>
<g clip-path="url(#clip0_4114_7532)">
<path d="M73.4628 30.776C73.1914 30.7382 72.9076 30.7542 72.6262 30.8296L68.5502 31.9218C67.4245 32.2235 66.7567 33.3802 67.0582 34.5059L67.3302 35.5239C67.4796 36.086 67.146 36.663 66.5843 36.8139L65.5663 37.09C64.4407 37.3917 63.7728 38.5484 64.0743 39.6741L67.3508 51.9022C67.6526 53.0278 68.8093 53.6957 69.9349 53.3942L70.9529 53.1221C71.5164 52.9701 72.0962 53.3043 72.247 53.8681L72.519 54.8861C72.8208 56.0117 73.9775 56.6795 75.1031 56.378L79.1792 55.2859C80.3048 54.9841 80.9726 53.8274 80.6711 52.7018L78.6322 45.0948C78.4813 44.532 78.7985 43.902 79.3484 43.7094C82.0283 42.7713 85.3574 42.0398 89.3219 42.0398C93.2865 42.0398 96.6156 42.7713 99.2956 43.7095C99.8454 43.902 100.162 44.532 100.012 45.0948L97.9727 52.7018C97.6712 53.8274 98.339 54.9841 99.4646 55.2859L103.541 56.378C104.666 56.6795 105.823 56.0117 106.125 54.8861L106.397 53.8681C106.548 53.3043 107.127 52.9701 107.691 53.1221L108.709 53.3942C109.835 53.6957 110.991 53.0278 111.293 51.9022L114.569 39.6741C114.871 38.5484 114.203 37.3917 113.078 37.09L112.06 36.8139C111.498 36.663 111.164 36.086 111.314 35.5239L111.586 34.5059C111.887 33.3802 111.219 32.2235 110.094 31.9218L106.018 30.8296C104.892 30.5281 103.735 31.1959 103.433 32.3216L101.65 38.9805C101.499 39.5434 100.935 39.8316 100.384 39.6434C97.3372 38.6036 93.6159 37.8195 89.3219 37.8195C85.0278 37.8195 81.3064 38.6036 78.2598 39.6434C77.7084 39.8316 77.1447 39.5434 76.9939 38.9805L75.2103 32.3216C74.984 31.4773 74.2773 30.8895 73.4628 30.776Z" fill="#FF2A6D"/>
</g>
<defs>
<clipPath id="clip0_4114_7532">
<rect width="50.6435" height="50.6435" fill="white" transform="translate(64 18.2815)"/>
</clipPath>
</defs>
</svg>
