<svg width="360" height="8974" viewBox="0 0 360 8974" fill="none" xmlns="http://www.w3.org/2000/svg" xmlns:xlink="http://www.w3.org/1999/xlink">
<g clip-path="url(#clip0_4075_205)">
<rect width="360" height="8974" fill="#0A0A0A"/>
<g opacity="0.6" filter="url(#filter0_f_4075_205)">
<ellipse cx="329.039" cy="1470.09" rx="138.002" ry="58.0281" transform="rotate(43.5078 329.039 1470.09)" fill="#FF2A6D"/>
</g>
<g opacity="0.6" filter="url(#filter1_f_4075_205)">
<ellipse cx="329.039" cy="1642.09" rx="138.002" ry="58.0281" transform="rotate(43.5078 329.039 1642.09)" fill="#FF2A6D"/>
</g>
<g opacity="0.3" filter="url(#filter2_f_4075_205)">
<ellipse cx="34.5616" cy="1087.59" rx="141.101" ry="87.4765" transform="rotate(43.5078 34.5616 1087.59)" fill="#07F1E0"/>
</g>
<g opacity="0.3" filter="url(#filter3_f_4075_205)">
<ellipse cx="34.5616" cy="1947.59" rx="141.101" ry="87.4765" transform="rotate(43.5078 34.5616 1947.59)" fill="#07F1E0"/>
</g>
<g opacity="0.3" filter="url(#filter4_f_4075_205)">
<ellipse cx="419.562" cy="2630.59" rx="141.101" ry="87.4765" transform="rotate(43.5078 419.562 2630.59)" fill="#07F1E0"/>
</g>
<mask id="mask0_4075_205" style="mask-type:alpha" maskUnits="userSpaceOnUse" x="0" y="0" width="360" height="890">
<path d="M0 0H360V855C360 874.33 344.33 890 325 890H35C15.67 890 0 874.33 0 855V0Z" fill="#D9D9D9"/>
</mask>
<g mask="url(#mask0_4075_205)">
<g filter="url(#filter5_f_4075_205)">
<ellipse cx="530" cy="497.906" rx="526" ry="312.906" fill="#090909"/>
</g>
<g filter="url(#filter6_f_4075_205)">
<ellipse cx="-240" cy="1029.91" rx="526" ry="312.906" fill="#090909"/>
</g>
<g filter="url(#filter7_f_4075_205)">
<ellipse cx="-385.011" cy="323.406" rx="309.989" ry="184.406" fill="#090909"/>
</g>
<g filter="url(#filter8_f_4075_205)">
<ellipse cx="-637" cy="15.9057" rx="526" ry="312.906" fill="#171717"/>
</g>
<g opacity="0.7" filter="url(#filter9_f_4075_205)">
<ellipse cx="402.5" cy="621" rx="290.5" ry="318" fill="#090909"/>
</g>
<g style="mix-blend-mode:color-dodge" opacity="0.3">
<rect x="-1034.49" y="-50" width="2014.99" height="1002" fill="url(#pattern0_4075_205)"/>
</g>
<g opacity="0.8" filter="url(#filter10_f_4075_205)">
<ellipse cx="173.743" cy="1237.63" rx="249.533" ry="319.246" transform="rotate(24.8975 173.743 1237.63)" fill="#1AF4E3"/>
</g>
<g opacity="0.8" filter="url(#filter11_f_4075_205)">
<ellipse cx="75.751" cy="184.446" rx="75.751" ry="184.446" transform="matrix(0.480008 -0.877264 -0.117059 -0.993125 112.182 185.264)" fill="#1AF4E3"/>
</g>
<g filter="url(#filter12_f_4075_205)">
<ellipse cx="75.5515" cy="1256.23" rx="151.203" ry="319.246" transform="rotate(24.8975 75.5515 1256.23)" fill="#1AF4E3"/>
</g>
<g filter="url(#filter13_f_4075_205)">
<ellipse cx="55.1567" cy="221.64" rx="55.1567" ry="221.64" transform="matrix(0.480008 -0.877264 -0.117059 -0.993125 111.891 102.007)" fill="#1AF4E3"/>
</g>
<g filter="url(#filter14_b_4075_205)">
<mask id="path-17-inside-1_4075_205" fill="white">
<path d="M1867 1042.5C1867 1866.78 1111.48 2535 179.5 2535C-752.481 2535 -1508 1866.78 -1508 1042.5C-1508 218.215 -752.481 -450 179.5 -450C1111.48 -450 1867 218.215 1867 1042.5ZM-1263.95 1042.5C-1263.95 1747.57 -617.693 2319.15 179.5 2319.15C976.693 2319.15 1622.95 1747.57 1622.95 1042.5C1622.95 337.427 976.693 -234.147 179.5 -234.147C-617.693 -234.147 -1263.95 337.427 -1263.95 1042.5Z"/>
</mask>
<path d="M1867 1042.5C1867 1866.78 1111.48 2535 179.5 2535C-752.481 2535 -1508 1866.78 -1508 1042.5C-1508 218.215 -752.481 -450 179.5 -450C1111.48 -450 1867 218.215 1867 1042.5ZM-1263.95 1042.5C-1263.95 1747.57 -617.693 2319.15 179.5 2319.15C976.693 2319.15 1622.95 1747.57 1622.95 1042.5C1622.95 337.427 976.693 -234.147 179.5 -234.147C-617.693 -234.147 -1263.95 337.427 -1263.95 1042.5Z" fill="url(#paint0_linear_4075_205)" fill-opacity="0.2"/>
<path d="M1867 1042.5C1867 1866.78 1111.48 2535 179.5 2535C-752.481 2535 -1508 1866.78 -1508 1042.5C-1508 218.215 -752.481 -450 179.5 -450C1111.48 -450 1867 218.215 1867 1042.5ZM-1263.95 1042.5C-1263.95 1747.57 -617.693 2319.15 179.5 2319.15C976.693 2319.15 1622.95 1747.57 1622.95 1042.5C1622.95 337.427 976.693 -234.147 179.5 -234.147C-617.693 -234.147 -1263.95 337.427 -1263.95 1042.5Z" stroke="url(#paint1_linear_4075_205)" stroke-opacity="0.3" stroke-width="7.88392" mask="url(#path-17-inside-1_4075_205)"/>
</g>
<g filter="url(#filter15_b_4075_205)">
<mask id="path-18-inside-2_4075_205" fill="white">
<path d="M1078.48 1329.5C1078.48 1783.75 675.995 2152 179.501 2152C-316.993 2152 -719.48 1783.75 -719.48 1329.5C-719.48 875.246 -316.993 507 179.501 507C675.995 507 1078.48 875.246 1078.48 1329.5ZM-527.717 1329.5C-527.717 1686.86 -211.085 1976.55 179.501 1976.55C570.087 1976.55 886.719 1686.86 886.719 1329.5C886.719 972.144 570.087 682.449 179.501 682.449C-211.085 682.449 -527.717 972.144 -527.717 1329.5Z"/>
</mask>
<path d="M1078.48 1329.5C1078.48 1783.75 675.995 2152 179.501 2152C-316.993 2152 -719.48 1783.75 -719.48 1329.5C-719.48 875.246 -316.993 507 179.501 507C675.995 507 1078.48 875.246 1078.48 1329.5ZM-527.717 1329.5C-527.717 1686.86 -211.085 1976.55 179.501 1976.55C570.087 1976.55 886.719 1686.86 886.719 1329.5C886.719 972.144 570.087 682.449 179.501 682.449C-211.085 682.449 -527.717 972.144 -527.717 1329.5Z" fill="url(#paint2_linear_4075_205)" fill-opacity="0.2"/>
<path d="M1078.48 1329.5C1078.48 1783.75 675.995 2152 179.501 2152C-316.993 2152 -719.48 1783.75 -719.48 1329.5C-719.48 875.246 -316.993 507 179.501 507C675.995 507 1078.48 875.246 1078.48 1329.5ZM-527.717 1329.5C-527.717 1686.86 -211.085 1976.55 179.501 1976.55C570.087 1976.55 886.719 1686.86 886.719 1329.5C886.719 972.144 570.087 682.449 179.501 682.449C-211.085 682.449 -527.717 972.144 -527.717 1329.5Z" stroke="url(#paint3_linear_4075_205)" stroke-opacity="0.3" stroke-width="5.71803" mask="url(#path-18-inside-2_4075_205)"/>
</g>
<g filter="url(#filter16_b_4075_205)">
<mask id="path-19-inside-3_4075_205" fill="white">
<path d="M1502 1029.5C1502 1675.4 909.896 2199 179.5 2199C-550.897 2199 -1143 1675.4 -1143 1029.5C-1143 383.603 -550.897 -140 179.5 -140C909.896 -140 1502 383.603 1502 1029.5ZM-931.369 1029.5C-931.369 1572.04 -434.016 2011.85 179.5 2011.85C793.016 2011.85 1290.37 1572.04 1290.37 1029.5C1290.37 486.962 793.016 47.1476 179.5 47.1476C-434.016 47.1476 -931.369 486.962 -931.369 1029.5Z"/>
</mask>
<path d="M1502 1029.5C1502 1675.4 909.896 2199 179.5 2199C-550.897 2199 -1143 1675.4 -1143 1029.5C-1143 383.603 -550.897 -140 179.5 -140C909.896 -140 1502 383.603 1502 1029.5ZM-931.369 1029.5C-931.369 1572.04 -434.016 2011.85 179.5 2011.85C793.016 2011.85 1290.37 1572.04 1290.37 1029.5C1290.37 486.962 793.016 47.1476 179.5 47.1476C-434.016 47.1476 -931.369 486.962 -931.369 1029.5Z" fill="url(#paint4_linear_4075_205)" fill-opacity="0.2"/>
<path d="M1502 1029.5C1502 1675.4 909.896 2199 179.5 2199C-550.897 2199 -1143 1675.4 -1143 1029.5C-1143 383.603 -550.897 -140 179.5 -140C909.896 -140 1502 383.603 1502 1029.5ZM-931.369 1029.5C-931.369 1572.04 -434.016 2011.85 179.5 2011.85C793.016 2011.85 1290.37 1572.04 1290.37 1029.5C1290.37 486.962 793.016 47.1476 179.5 47.1476C-434.016 47.1476 -931.369 486.962 -931.369 1029.5Z" stroke="url(#paint5_linear_4075_205)" stroke-opacity="0.3" stroke-width="7.88392" mask="url(#path-19-inside-3_4075_205)"/>
</g>
</g>
<g opacity="0.4" filter="url(#filter17_f_4075_205)">
<ellipse cx="288.027" cy="3357.73" rx="93.5048" ry="31.6054" transform="rotate(15 288.027 3357.73)" fill="#FF2A6D"/>
</g>
<g filter="url(#filter18_f_4075_205)">
<rect x="76.2812" y="3870.1" width="242.54" height="162.9" fill="#0D0D0D"/>
</g>
<g opacity="0.4" filter="url(#filter19_f_4075_205)">
<ellipse cx="117.866" cy="39.8396" rx="117.866" ry="39.8396" transform="matrix(-0.965926 0.258819 0.258819 0.965926 170.699 3841.12)" fill="#07F1E0"/>
</g>
<g opacity="0.2" filter="url(#filter20_f_4075_205)">
<ellipse cx="269.528" cy="8931.3" rx="427.215" ry="132.954" transform="rotate(46.7583 269.528 8931.3)" fill="#07F1E0"/>
</g>
<g opacity="0.6" filter="url(#filter21_f_4075_205)">
<ellipse cx="396.102" cy="9083.49" rx="255.223" ry="79.4278" transform="rotate(46.7583 396.102 9083.49)" fill="#07F1E0"/>
</g>
</g>
<defs>
<filter id="filter0_f_4075_205" x="21.2422" y="1166.16" width="615.594" height="607.877" filterUnits="userSpaceOnUse" color-interpolation-filters="sRGB">
<feFlood flood-opacity="0" result="BackgroundImageFix"/>
<feBlend mode="normal" in="SourceGraphic" in2="BackgroundImageFix" result="shape"/>
<feGaussianBlur stdDeviation="100" result="effect1_foregroundBlur_4075_205"/>
</filter>
<filter id="filter1_f_4075_205" x="21.2422" y="1338.16" width="615.594" height="607.877" filterUnits="userSpaceOnUse" color-interpolation-filters="sRGB">
<feFlood flood-opacity="0" result="BackgroundImageFix"/>
<feBlend mode="normal" in="SourceGraphic" in2="BackgroundImageFix" result="shape"/>
<feGaussianBlur stdDeviation="100" result="effect1_foregroundBlur_4075_205"/>
</filter>
<filter id="filter2_f_4075_205" x="-259.662" y="796.087" width="588.447" height="582.998" filterUnits="userSpaceOnUse" color-interpolation-filters="sRGB">
<feFlood flood-opacity="0" result="BackgroundImageFix"/>
<feBlend mode="normal" in="SourceGraphic" in2="BackgroundImageFix" result="shape"/>
<feGaussianBlur stdDeviation="87.7305" result="effect1_foregroundBlur_4075_205"/>
</filter>
<filter id="filter3_f_4075_205" x="-259.662" y="1656.09" width="588.447" height="582.998" filterUnits="userSpaceOnUse" color-interpolation-filters="sRGB">
<feFlood flood-opacity="0" result="BackgroundImageFix"/>
<feBlend mode="normal" in="SourceGraphic" in2="BackgroundImageFix" result="shape"/>
<feGaussianBlur stdDeviation="87.7305" result="effect1_foregroundBlur_4075_205"/>
</filter>
<filter id="filter4_f_4075_205" x="125.338" y="2339.09" width="588.447" height="582.998" filterUnits="userSpaceOnUse" color-interpolation-filters="sRGB">
<feFlood flood-opacity="0" result="BackgroundImageFix"/>
<feBlend mode="normal" in="SourceGraphic" in2="BackgroundImageFix" result="shape"/>
<feGaussianBlur stdDeviation="87.7305" result="effect1_foregroundBlur_4075_205"/>
</filter>
<filter id="filter5_f_4075_205" x="-308.906" y="-127.906" width="1677.81" height="1251.62" filterUnits="userSpaceOnUse" color-interpolation-filters="sRGB">
<feFlood flood-opacity="0" result="BackgroundImageFix"/>
<feBlend mode="normal" in="SourceGraphic" in2="BackgroundImageFix" result="shape"/>
<feGaussianBlur stdDeviation="156.453" result="effect1_foregroundBlur_4075_205"/>
</filter>
<filter id="filter6_f_4075_205" x="-1078.91" y="404.094" width="1677.81" height="1251.62" filterUnits="userSpaceOnUse" color-interpolation-filters="sRGB">
<feFlood flood-opacity="0" result="BackgroundImageFix"/>
<feBlend mode="normal" in="SourceGraphic" in2="BackgroundImageFix" result="shape"/>
<feGaussianBlur stdDeviation="156.453" result="effect1_foregroundBlur_4075_205"/>
</filter>
<filter id="filter7_f_4075_205" x="-879.406" y="-45.4057" width="988.79" height="737.623" filterUnits="userSpaceOnUse" color-interpolation-filters="sRGB">
<feFlood flood-opacity="0" result="BackgroundImageFix"/>
<feBlend mode="normal" in="SourceGraphic" in2="BackgroundImageFix" result="shape"/>
<feGaussianBlur stdDeviation="92.2028" result="effect1_foregroundBlur_4075_205"/>
</filter>
<filter id="filter8_f_4075_205" x="-1475.91" y="-609.906" width="1677.81" height="1251.62" filterUnits="userSpaceOnUse" color-interpolation-filters="sRGB">
<feFlood flood-opacity="0" result="BackgroundImageFix"/>
<feBlend mode="normal" in="SourceGraphic" in2="BackgroundImageFix" result="shape"/>
<feGaussianBlur stdDeviation="156.453" result="effect1_foregroundBlur_4075_205"/>
</filter>
<filter id="filter9_f_4075_205" x="12" y="203" width="781" height="836" filterUnits="userSpaceOnUse" color-interpolation-filters="sRGB">
<feFlood flood-opacity="0" result="BackgroundImageFix"/>
<feBlend mode="normal" in="SourceGraphic" in2="BackgroundImageFix" result="shape"/>
<feGaussianBlur stdDeviation="50" result="effect1_foregroundBlur_4075_205"/>
</filter>
<pattern id="pattern0_4075_205" patternContentUnits="objectBoundingBox" width="1" height="1">
<use xlink:href="#image0_4075_205" transform="scale(0.000545256 0.00109649)"/>
</pattern>
<filter id="filter10_f_4075_205" x="-432.322" y="586.715" width="1212.13" height="1301.83" filterUnits="userSpaceOnUse" color-interpolation-filters="sRGB">
<feFlood flood-opacity="0" result="BackgroundImageFix"/>
<feBlend mode="normal" in="SourceGraphic" in2="BackgroundImageFix" result="shape"/>
<feGaussianBlur stdDeviation="171.393" result="effect1_foregroundBlur_4075_205"/>
</filter>
<filter id="filter11_f_4075_205" x="-132.182" y="-476.119" width="518.266" height="823.502" filterUnits="userSpaceOnUse" color-interpolation-filters="sRGB">
<feFlood flood-opacity="0" result="BackgroundImageFix"/>
<feBlend mode="normal" in="SourceGraphic" in2="BackgroundImageFix" result="shape"/>
<feGaussianBlur stdDeviation="108.419" result="effect1_foregroundBlur_4075_205"/>
</filter>
<filter id="filter12_f_4075_205" x="-459.261" y="616.892" width="1069.63" height="1278.68" filterUnits="userSpaceOnUse" color-interpolation-filters="sRGB">
<feFlood flood-opacity="0" result="BackgroundImageFix"/>
<feBlend mode="normal" in="SourceGraphic" in2="BackgroundImageFix" result="shape"/>
<feGaussianBlur stdDeviation="171.393" result="effect1_foregroundBlur_4075_205"/>
</filter>
<filter id="filter13_f_4075_205" x="-54.6484" y="-521.916" width="334.139" height="710.84" filterUnits="userSpaceOnUse" color-interpolation-filters="sRGB">
<feFlood flood-opacity="0" result="BackgroundImageFix"/>
<feBlend mode="normal" in="SourceGraphic" in2="BackgroundImageFix" result="shape"/>
<feGaussianBlur stdDeviation="65" result="effect1_foregroundBlur_4075_205"/>
</filter>
<filter id="filter14_b_4075_205" x="-1567.89" y="-509.892" width="3494.78" height="3104.78" filterUnits="userSpaceOnUse" color-interpolation-filters="sRGB">
<feFlood flood-opacity="0" result="BackgroundImageFix"/>
<feGaussianBlur in="BackgroundImageFix" stdDeviation="29.9462"/>
<feComposite in2="SourceAlpha" operator="in" result="effect1_backgroundBlur_4075_205"/>
<feBlend mode="normal" in="SourceGraphic" in2="effect1_backgroundBlur_4075_205" result="shape"/>
</filter>
<filter id="filter15_b_4075_205" x="-762.919" y="463.561" width="1884.84" height="1731.88" filterUnits="userSpaceOnUse" color-interpolation-filters="sRGB">
<feFlood flood-opacity="0" result="BackgroundImageFix"/>
<feGaussianBlur in="BackgroundImageFix" stdDeviation="21.7193"/>
<feComposite in2="SourceAlpha" operator="in" result="effect1_backgroundBlur_4075_205"/>
<feBlend mode="normal" in="SourceGraphic" in2="effect1_backgroundBlur_4075_205" result="shape"/>
</filter>
<filter id="filter16_b_4075_205" x="-1202.89" y="-199.892" width="2764.78" height="2458.78" filterUnits="userSpaceOnUse" color-interpolation-filters="sRGB">
<feFlood flood-opacity="0" result="BackgroundImageFix"/>
<feGaussianBlur in="BackgroundImageFix" stdDeviation="29.9462"/>
<feComposite in2="SourceAlpha" operator="in" result="effect1_backgroundBlur_4075_205"/>
<feBlend mode="normal" in="SourceGraphic" in2="effect1_backgroundBlur_4075_205" result="shape"/>
</filter>
<filter id="filter17_f_4075_205" x="133.94" y="3255.38" width="308.175" height="204.706" filterUnits="userSpaceOnUse" color-interpolation-filters="sRGB">
<feFlood flood-opacity="0" result="BackgroundImageFix"/>
<feBlend mode="normal" in="SourceGraphic" in2="BackgroundImageFix" result="shape"/>
<feGaussianBlur stdDeviation="31.6971" result="effect1_foregroundBlur_4075_205"/>
</filter>
<filter id="filter18_f_4075_205" x="24.3102" y="3818.13" width="346.481" height="266.842" filterUnits="userSpaceOnUse" color-interpolation-filters="sRGB">
<feFlood flood-opacity="0" result="BackgroundImageFix"/>
<feBlend mode="normal" in="SourceGraphic" in2="BackgroundImageFix" result="shape"/>
<feGaussianBlur stdDeviation="25.9855" result="effect1_foregroundBlur_4075_205"/>
</filter>
<filter id="filter19_f_4075_205" x="-127.073" y="3781.09" width="388.467" height="258.038" filterUnits="userSpaceOnUse" color-interpolation-filters="sRGB">
<feFlood flood-opacity="0" result="BackgroundImageFix"/>
<feBlend mode="normal" in="SourceGraphic" in2="BackgroundImageFix" result="shape"/>
<feGaussianBlur stdDeviation="39.9552" result="effect1_foregroundBlur_4075_205"/>
</filter>
<filter id="filter20_f_4075_205" x="-236.881" y="8408.9" width="1012.82" height="1044.79" filterUnits="userSpaceOnUse" color-interpolation-filters="sRGB">
<feFlood flood-opacity="0" result="BackgroundImageFix"/>
<feBlend mode="normal" in="SourceGraphic" in2="BackgroundImageFix" result="shape"/>
<feGaussianBlur stdDeviation="99.0208" result="effect1_foregroundBlur_4075_205"/>
</filter>
<filter id="filter21_f_4075_205" x="93.5669" y="8771.4" width="605.069" height="624.168" filterUnits="userSpaceOnUse" color-interpolation-filters="sRGB">
<feFlood flood-opacity="0" result="BackgroundImageFix"/>
<feBlend mode="normal" in="SourceGraphic" in2="BackgroundImageFix" result="shape"/>
<feGaussianBlur stdDeviation="59.156" result="effect1_foregroundBlur_4075_205"/>
</filter>
<linearGradient id="paint0_linear_4075_205" x1="-1295.23" y1="-131.271" x2="1231.77" y2="1638.58" gradientUnits="userSpaceOnUse">
<stop stop-color="#1B1B1B"/>
<stop offset="1" stop-color="#070707"/>
</linearGradient>
<linearGradient id="paint1_linear_4075_205" x1="1581.1" y1="246.265" x2="1253.51" y2="599.395" gradientUnits="userSpaceOnUse">
<stop stop-color="#272727"/>
<stop offset="1" stop-color="#272727" stop-opacity="0"/>
</linearGradient>
<linearGradient id="paint2_linear_4075_205" x1="-606.134" y1="682.648" x2="769.742" y2="1614.18" gradientUnits="userSpaceOnUse">
<stop stop-color="#1B1B1B"/>
<stop offset="1" stop-color="#070707"/>
</linearGradient>
<linearGradient id="paint3_linear_4075_205" x1="926.173" y1="890.704" x2="745.287" y2="1079.2" gradientUnits="userSpaceOnUse">
<stop stop-color="#272727"/>
<stop offset="1" stop-color="#272727" stop-opacity="0"/>
</linearGradient>
<linearGradient id="paint4_linear_4075_205" x1="-976.255" y1="109.751" x2="1003.97" y2="1496.86" gradientUnits="userSpaceOnUse">
<stop stop-color="#1B1B1B"/>
<stop offset="1" stop-color="#070707"/>
</linearGradient>
<linearGradient id="paint5_linear_4075_205" x1="1277.94" y1="405.582" x2="1021.25" y2="682.329" gradientUnits="userSpaceOnUse">
<stop stop-color="#272727"/>
<stop offset="1" stop-color="#272727" stop-opacity="0"/>
</linearGradient>
<clipPath id="clip0_4075_205">
<rect width="360" height="8974" fill="white"/>
</clipPath>
</defs>
</svg>
