<svg width="1920" height="6971" viewBox="0 0 1920 6971" fill="none" xmlns="http://www.w3.org/2000/svg" xmlns:xlink="http://www.w3.org/1999/xlink">
<g clip-path="url(#clip0_4037_189)">
<rect width="1920" height="6971" fill="#0A0A0A"/>
<g opacity="0.2" filter="url(#filter0_f_4037_189)">
<ellipse cx="1315.32" cy="5066.87" rx="389.021" ry="79.402" transform="rotate(15 1315.32 5066.87)" fill="#07F1E0"/>
</g>
<g opacity="0.3" filter="url(#filter1_f_4037_189)">
<ellipse cx="717.316" cy="4836.87" rx="389.021" ry="79.402" transform="rotate(15 717.316 4836.87)" fill="#FF2A6D"/>
</g>
<g opacity="0.3" filter="url(#filter2_f_4037_189)">
<ellipse cx="-69.1234" cy="1108.05" rx="216.367" ry="58.0281" transform="rotate(43.5078 -69.1234 1108.05)" fill="#07F1E0"/>
</g>
<g opacity="0.6" filter="url(#filter3_f_4037_189)">
<ellipse cx="1158.04" cy="1510.09" rx="138.002" ry="58.0281" transform="rotate(43.5078 1158.04 1510.09)" fill="#FF2A6D"/>
</g>
<g opacity="0.6" filter="url(#filter4_f_4037_189)">
<ellipse cx="97.1833" cy="2363.45" rx="221.906" ry="93.3085" transform="rotate(43.5078 97.1833 2363.45)" fill="#FF2A6D"/>
</g>
<g filter="url(#filter5_f_4037_189)">
<ellipse cx="-67.0808" cy="2240.3" rx="143.681" ry="60.4158" transform="rotate(43.5078 -67.0808 2240.3)" fill="#FF2A6D"/>
</g>
<g opacity="0.3" filter="url(#filter6_f_4037_189)">
<ellipse cx="1970.34" cy="1385.76" rx="261.478" ry="109.948" transform="rotate(43.5078 1970.34 1385.76)" fill="#07F1E0"/>
</g>
<g opacity="0.3" filter="url(#filter7_f_4037_189)">
<ellipse cx="357.714" cy="1889.07" rx="123.885" ry="52.0921" transform="rotate(43.5078 357.714 1889.07)" fill="#07F1E0"/>
</g>
<g opacity="0.3" filter="url(#filter8_f_4037_189)">
<ellipse cx="822.714" cy="2321.07" rx="123.885" ry="52.0921" transform="rotate(43.5078 822.714 2321.07)" fill="#07F1E0"/>
</g>
<g opacity="0.3" filter="url(#filter9_f_4037_189)">
<ellipse cx="1797.98" cy="2383.31" rx="260.536" ry="109.552" transform="rotate(43.5078 1797.98 2383.31)" fill="#07F1E0"/>
</g>
<g filter="url(#filter10_f_4037_189)">
<ellipse cx="2030.79" cy="2415.99" rx="178.159" ry="74.9136" transform="rotate(43.5078 2030.79 2415.99)" fill="#07F1E0"/>
</g>
<g opacity="0.6" filter="url(#filter11_f_4037_189)">
<ellipse cx="2043.08" cy="4975.26" rx="255.223" ry="79.4278" transform="rotate(15 2043.08 4975.26)" fill="#07F1E0"/>
</g>
<g filter="url(#filter12_f_4037_189)">
<ellipse cx="305" cy="1036.91" rx="526" ry="312.906" fill="#090909"/>
</g>
<g filter="url(#filter13_f_4037_189)">
<ellipse cx="1446" cy="1098" rx="815" ry="313" fill="#090909"/>
</g>
<g opacity="0.3" filter="url(#filter14_f_4037_189)">
<ellipse cx="1168.98" cy="918.591" rx="170.979" ry="106" transform="rotate(43.5078 1168.98 918.591)" fill="#07F1E0"/>
</g>
<g opacity="0.3" filter="url(#filter15_f_4037_189)">
<ellipse cx="1039.84" cy="1150.53" rx="93.6001" ry="58.0281" transform="rotate(43.5078 1039.84 1150.53)" fill="#FF2A6D"/>
</g>
<g opacity="0.06">
<path opacity="0.0344828" d="M100.03 456.822C133.268 489.314 219.393 556.033 297.99 562.969C396.236 571.639 515.571 467.491 665.559 488.295C815.547 509.098 859.839 693.854 1166.95 707.179C1474.06 720.504 1562.71 423.487 1955.96 470.415" stroke="#9A9A9A" stroke-width="0.675014"/>
<path opacity="0.0689655" d="M99.4656 444.621C130.631 478.493 212.47 548.831 290.508 559.209C388.055 572.181 513.667 473.554 662.119 500.906C810.57 528.258 843.31 714.488 1149.09 741.297C1454.88 768.106 1561.84 475.754 1951.53 539.871" stroke="#9A9A9A" stroke-width="0.718563"/>
<path opacity="0.103448" d="M99.0007 432.019C128.012 467.177 205.35 540.941 282.616 554.73C379.198 571.967 510.726 479.126 657.236 512.949C803.746 546.771 824.87 733.968 1128.49 774.18C1432.11 814.393 1557.04 527.501 1942.11 608.622" stroke="#9A9A9A" stroke-width="0.762112"/>
<path opacity="0.137931" d="M98.6595 419.02C125.442 455.368 198.077 532.355 274.358 549.517C369.71 570.969 506.778 484.163 650.947 524.361C795.115 564.559 804.594 752.211 1105.21 805.711C1405.83 859.21 1548.35 578.555 1927.75 676.451" stroke="#9A9A9A" stroke-width="0.805662"/>
<path opacity="0.172414" d="M98.4653 405.631C122.95 443.07 190.691 523.069 265.781 543.554C359.642 569.161 501.858 488.623 643.292 535.083C784.725 581.542 782.56 769.142 1079.36 835.774C1376.15 902.406 1535.82 628.747 1908.51 743.142" stroke="#9A9A9A" stroke-width="0.849211"/>
<path opacity="0.206897" d="M98.444 391.86C120.568 430.287 183.24 513.08 256.932 536.831C349.046 566.519 496.004 492.463 634.318 545.055C772.632 597.646 758.855 784.684 1051.01 864.26C1343.17 943.836 1519.51 677.909 1884.48 808.482" stroke="#9A9A9A" stroke-width="0.89276"/>
<path opacity="0.241379" d="M98.6171 377.715C118.325 417.026 175.764 502.385 247.857 529.336C337.973 563.023 489.255 495.645 624.073 554.221C758.89 612.797 733.564 798.767 1020.29 891.063C1307.01 983.358 1499.49 725.878 1855.74 872.263" stroke="#9A9A9A" stroke-width="0.936309"/>
<path opacity="0.275862" d="M99.0092 363.205C116.251 403.293 168.309 490.987 238.607 521.061C326.479 558.653 481.655 498.129 612.609 562.527C743.563 626.925 706.784 811.326 987.287 916.081C1267.79 1020.84 1475.84 772.491 1822.4 934.281" stroke="#9A9A9A" stroke-width="0.979859"/>
<path opacity="0.310345" d="M99.6407 348.341C114.374 389.097 160.918 478.887 229.228 512.001C314.615 553.393 473.247 499.881 599.981 569.921C726.715 639.962 678.609 822.298 952.125 939.219C1225.64 1056.14 1448.66 817.592 1784.58 994.336" stroke="#9A9A9A" stroke-width="1.02341"/>
<path opacity="0.344828" d="M100.535 333.136C112.723 374.449 153.634 466.091 219.77 502.152C302.441 547.229 464.079 500.865 586.249 576.355C708.419 651.844 649.142 831.625 914.922 960.385C1180.7 1089.14 1418.03 861.028 1742.41 1052.23" stroke="#9A9A9A" stroke-width="1.06696"/>
<path opacity="0.37931" d="M101.711 317.6C111.326 359.359 146.5 452.604 210.282 491.512C290.011 540.148 454.2 501.051 571.474 581.78C688.748 662.509 618.486 839.253 875.805 979.493C1133.12 1119.73 1384.08 902.65 1696.03 1107.79" stroke="#9A9A9A" stroke-width="1.11051"/>
<path opacity="0.413793" d="M103.189 301.747C110.207 343.839 139.557 438.434 200.812 480.082C277.381 532.142 443.659 500.408 555.718 586.153C667.778 671.898 586.748 845.134 834.902 996.462C1083.06 1147.79 1346.91 942.315 1645.59 1160.82" stroke="#9A9A9A" stroke-width="1.15406"/>
<path opacity="0.448276" d="M104.989 285.592C109.396 327.902 132.849 423.592 191.41 467.864C264.612 523.204 432.51 498.909 539.051 589.433C645.593 679.958 554.038 849.223 792.351 1011.22C1030.66 1173.22 1306.67 979.885 1591.25 1211.15" stroke="#9A9A9A" stroke-width="1.19761"/>
<path opacity="0.482759" d="M107.128 269.149C108.915 311.565 126.417 408.089 182.124 454.863C251.759 513.329 420.806 496.529 521.541 591.583C622.276 686.637 520.469 851.483 748.291 1023.7C976.114 1195.91 1263.47 1015.23 1533.19 1258.61" stroke="#9A9A9A" stroke-width="1.24115"/>
<path opacity="0.517241" d="M109.622 252.434C108.789 294.84 120.298 391.94 173.001 441.085C238.88 502.517 408.603 493.245 503.258 592.566C597.913 691.887 486.154 851.877 702.866 1033.83C919.577 1215.79 1217.46 1048.22 1471.6 1303.05" stroke="#9A9A9A" stroke-width="1.2847"/>
<path opacity="0.551724" d="M112.49 235.463C109.042 277.746 114.535 375.159 164.09 426.54C226.035 490.767 395.958 489.036 484.278 592.352C572.599 695.667 451.213 850.377 656.223 1041.57C861.234 1232.76 1168.81 1078.73 1406.66 1344.31" stroke="#9A9A9A" stroke-width="1.32825"/>
<path opacity="0.586207" d="M115.744 218.254C109.695 260.3 109.164 357.763 155.438 411.239C213.28 478.084 382.929 483.887 464.676 590.911C546.423 697.935 415.762 846.96 608.514 1046.86C801.267 1246.75 1117.66 1106.66 1338.59 1382.26" stroke="#9A9A9A" stroke-width="1.3718"/>
<path opacity="0.62069" d="M119.4 200.823C110.769 242.521 104.223 339.772 147.09 395.194C200.673 464.472 369.576 477.78 444.528 588.219C519.481 698.658 379.92 841.607 559.892 1049.66C739.863 1257.71 1064.18 1131.9 1267.59 1416.75" stroke="#9A9A9A" stroke-width="1.41535"/>
<path opacity="0.655172" d="M123.468 183.19C112.282 224.427 99.7456 321.204 139.089 378.42C188.269 449.941 355.955 470.704 423.912 584.254C491.869 697.804 343.807 834.303 510.51 1049.93C677.212 1265.56 1008.54 1154.35 1193.88 1447.68" stroke="#9A9A9A" stroke-width="1.4589"/>
<path opacity="0.689655" d="M127.964 165.372C114.257 206.038 95.771 302.083 131.486 360.935C176.129 434.501 342.132 462.648 402.911 578.997C463.691 695.347 307.548 825.04 460.531 1047.65C613.513 1270.26 950.916 1173.93 1117.69 1474.91" stroke="#9A9A9A" stroke-width="1.50245"/>
<path opacity="0.724138" d="M132.894 147.39C116.706 187.376 92.3275 282.43 124.317 342.757C164.304 418.166 328.163 453.605 381.602 572.434C435.041 691.263 271.261 813.817 410.109 1042.79C548.957 1271.77 891.496 1190.54 1039.26 1498.36" stroke="#9A9A9A" stroke-width="1.546"/>
<path opacity="0.758621" d="M138.269 129.262C119.648 168.462 89.4495 262.272 117.628 323.907C152.852 400.95 314.113 443.572 360.069 564.554C406.025 685.537 235.068 800.634 359.408 1035.35C483.748 1270.06 830.465 1204.11 958.824 1517.93" stroke="#9A9A9A" stroke-width="1.58955"/>
<path opacity="0.793103" d="M144.098 111.009C123.096 149.319 87.1659 241.632 111.458 304.406C141.824 382.873 300.042 432.545 338.393 555.349C376.744 678.153 199.09 785.5 308.588 1025.3C418.085 1265.1 768.016 1214.58 876.625 1533.53" stroke="#9A9A9A" stroke-width="1.6331"/>
<path opacity="0.827586" d="M150.385 92.6503C127.063 129.968 85.505 220.54 105.846 284.279C131.273 363.954 286.012 420.526 316.656 544.815C347.301 669.104 163.448 768.427 257.81 1012.66C352.171 1256.89 704.343 1221.9 792.915 1545.1" stroke="#9A9A9A" stroke-width="1.67665"/>
<path opacity="0.862069" d="M157.136 74.2067C131.56 110.434 84.4915 199.022 100.828 263.552C121.248 344.216 272.082 407.517 294.94 532.951C317.799 658.385 128.258 749.434 207.232 997.418C286.207 1245.4 639.643 1226 707.945 1552.57" stroke="#9A9A9A" stroke-width="1.7202"/>
<path opacity="0.896552" d="M164.358 55.6993C136.6 90.7403 84.1548 177.108 96.4435 242.252C111.804 323.683 258.317 393.526 273.331 519.761C288.345 645.995 93.6441 728.543 157.021 979.599C220.399 1230.65 574.123 1226.86 621.979 1555.9" stroke="#9A9A9A" stroke-width="1.76375"/>
<path opacity="0.931035" d="M172.05 37.1486C142.187 70.9105 84.5131 154.829 92.7223 220.408C102.984 302.382 244.775 378.561 251.907 505.251C259.038 631.941 59.7171 705.784 107.331 959.22C154.945 1212.66 507.982 1224.44 535.27 1555.05" stroke="#9A9A9A" stroke-width="1.80729"/>
<path opacity="0.965517" d="M180.215 18.575C148.331 50.9691 85.5889 132.216 89.6981 198.05C94.8347 280.342 231.517 362.634 230.751 489.432C229.984 616.231 26.5934 681.189 58.3208 936.309C90.0483 1191.43 441.427 1218.72 448.082 1550" stroke="#9A9A9A" stroke-width="1.85084"/>
<path d="M188.854 -7.52861e-06C155.037 30.9411 87.4023 109.301 87.4023 175.209C87.4023 257.594 218.602 345.758 209.944 472.318C201.286 598.879 -5.61405 654.797 10.1477 910.9C25.9094 1167 374.665 1209.69 360.679 1540.72" stroke="#9A9A9A" stroke-width="1.89439"/>
</g>
<mask id="mask0_4037_189" style="mask-type:alpha" maskUnits="userSpaceOnUse" x="0" y="-67" width="1920" height="1020">
<rect y="-67" width="1920" height="1020" rx="60" fill="#D9D9D9"/>
</mask>
<g mask="url(#mask0_4037_189)">
<g filter="url(#filter16_f_4037_189)">
<ellipse cx="1509" cy="547.906" rx="526" ry="312.906" fill="#090909"/>
</g>
<g filter="url(#filter17_f_4037_189)">
<ellipse cx="739" cy="1079.91" rx="526" ry="312.906" fill="#090909"/>
</g>
<g filter="url(#filter18_f_4037_189)">
<ellipse cx="67" cy="721.906" rx="526" ry="312.906" fill="#090909"/>
</g>
<g filter="url(#filter19_f_4037_189)">
<ellipse cx="593.989" cy="373.406" rx="309.989" ry="184.406" fill="#090909"/>
</g>
<g filter="url(#filter20_f_4037_189)">
<ellipse cx="342" cy="65.9057" rx="526" ry="312.906" fill="#171717"/>
</g>
<g opacity="0.7" filter="url(#filter21_f_4037_189)">
<ellipse cx="1381.5" cy="671" rx="290.5" ry="318" fill="#090909"/>
</g>
<g style="mix-blend-mode:color-dodge" opacity="0.3">
<rect x="-55.4932" width="2014.99" height="1002" fill="url(#pattern0_4037_189)"/>
</g>
<g opacity="0.8" filter="url(#filter22_f_4037_189)">
<ellipse cx="1152.74" cy="1287.63" rx="249.533" ry="319.246" transform="rotate(24.8975 1152.74 1287.63)" fill="#1AF4E3"/>
</g>
<g opacity="0.8" filter="url(#filter23_f_4037_189)">
<ellipse cx="75.751" cy="184.446" rx="75.751" ry="184.446" transform="matrix(0.480008 -0.877264 -0.117059 -0.993125 1091.18 235.264)" fill="#1AF4E3"/>
</g>
<g filter="url(#filter24_f_4037_189)">
<ellipse cx="1054.55" cy="1306.23" rx="151.203" ry="319.246" transform="rotate(24.8975 1054.55 1306.23)" fill="#1AF4E3"/>
</g>
<g filter="url(#filter25_f_4037_189)">
<ellipse cx="55.1567" cy="221.64" rx="55.1567" ry="221.64" transform="matrix(0.480008 -0.877264 -0.117059 -0.993125 1090.89 152.007)" fill="#1AF4E3"/>
</g>
<g filter="url(#filter26_b_4037_189)">
<mask id="path-58-inside-1_4037_189" fill="white">
<path d="M2846 1092.5C2846 1916.78 2090.48 2585 1158.5 2585C226.519 2585 -529 1916.78 -529 1092.5C-529 268.215 226.519 -400 1158.5 -400C2090.48 -400 2846 268.215 2846 1092.5ZM-284.945 1092.5C-284.945 1797.57 361.307 2369.15 1158.5 2369.15C1955.69 2369.15 2601.95 1797.57 2601.95 1092.5C2601.95 387.427 1955.69 -184.147 1158.5 -184.147C361.307 -184.147 -284.945 387.427 -284.945 1092.5Z"/>
</mask>
<path d="M2846 1092.5C2846 1916.78 2090.48 2585 1158.5 2585C226.519 2585 -529 1916.78 -529 1092.5C-529 268.215 226.519 -400 1158.5 -400C2090.48 -400 2846 268.215 2846 1092.5ZM-284.945 1092.5C-284.945 1797.57 361.307 2369.15 1158.5 2369.15C1955.69 2369.15 2601.95 1797.57 2601.95 1092.5C2601.95 387.427 1955.69 -184.147 1158.5 -184.147C361.307 -184.147 -284.945 387.427 -284.945 1092.5Z" fill="url(#paint0_linear_4037_189)" fill-opacity="0.2"/>
<path d="M2846 1092.5C2846 1916.78 2090.48 2585 1158.5 2585C226.519 2585 -529 1916.78 -529 1092.5C-529 268.215 226.519 -400 1158.5 -400C2090.48 -400 2846 268.215 2846 1092.5ZM-284.945 1092.5C-284.945 1797.57 361.307 2369.15 1158.5 2369.15C1955.69 2369.15 2601.95 1797.57 2601.95 1092.5C2601.95 387.427 1955.69 -184.147 1158.5 -184.147C361.307 -184.147 -284.945 387.427 -284.945 1092.5Z" stroke="url(#paint1_linear_4037_189)" stroke-opacity="0.3" stroke-width="7.88392" mask="url(#path-58-inside-1_4037_189)"/>
</g>
<g filter="url(#filter27_b_4037_189)">
<mask id="path-59-inside-2_4037_189" fill="white">
<path d="M2057.48 1379.5C2057.48 1833.75 1654.99 2202 1158.5 2202C662.006 2202 259.519 1833.75 259.519 1379.5C259.519 925.246 662.006 557 1158.5 557C1654.99 557 2057.48 925.246 2057.48 1379.5ZM451.282 1379.5C451.282 1736.86 767.914 2026.55 1158.5 2026.55C1549.09 2026.55 1865.72 1736.86 1865.72 1379.5C1865.72 1022.14 1549.09 732.449 1158.5 732.449C767.914 732.449 451.282 1022.14 451.282 1379.5Z"/>
</mask>
<path d="M2057.48 1379.5C2057.48 1833.75 1654.99 2202 1158.5 2202C662.006 2202 259.519 1833.75 259.519 1379.5C259.519 925.246 662.006 557 1158.5 557C1654.99 557 2057.48 925.246 2057.48 1379.5ZM451.282 1379.5C451.282 1736.86 767.914 2026.55 1158.5 2026.55C1549.09 2026.55 1865.72 1736.86 1865.72 1379.5C1865.72 1022.14 1549.09 732.449 1158.5 732.449C767.914 732.449 451.282 1022.14 451.282 1379.5Z" fill="url(#paint2_linear_4037_189)" fill-opacity="0.2"/>
<path d="M2057.48 1379.5C2057.48 1833.75 1654.99 2202 1158.5 2202C662.006 2202 259.519 1833.75 259.519 1379.5C259.519 925.246 662.006 557 1158.5 557C1654.99 557 2057.48 925.246 2057.48 1379.5ZM451.282 1379.5C451.282 1736.86 767.914 2026.55 1158.5 2026.55C1549.09 2026.55 1865.72 1736.86 1865.72 1379.5C1865.72 1022.14 1549.09 732.449 1158.5 732.449C767.914 732.449 451.282 1022.14 451.282 1379.5Z" stroke="url(#paint3_linear_4037_189)" stroke-opacity="0.3" stroke-width="5.71803" mask="url(#path-59-inside-2_4037_189)"/>
</g>
<g filter="url(#filter28_b_4037_189)">
<mask id="path-60-inside-3_4037_189" fill="white">
<path d="M2481 1079.5C2481 1725.4 1888.9 2249 1158.5 2249C428.103 2249 -164 1725.4 -164 1079.5C-164 433.603 428.103 -90 1158.5 -90C1888.9 -90 2481 433.603 2481 1079.5ZM47.6312 1079.5C47.6312 1622.04 544.984 2061.85 1158.5 2061.85C1772.02 2061.85 2269.37 1622.04 2269.37 1079.5C2269.37 536.962 1772.02 97.1476 1158.5 97.1476C544.984 97.1476 47.6312 536.962 47.6312 1079.5Z"/>
</mask>
<path d="M2481 1079.5C2481 1725.4 1888.9 2249 1158.5 2249C428.103 2249 -164 1725.4 -164 1079.5C-164 433.603 428.103 -90 1158.5 -90C1888.9 -90 2481 433.603 2481 1079.5ZM47.6312 1079.5C47.6312 1622.04 544.984 2061.85 1158.5 2061.85C1772.02 2061.85 2269.37 1622.04 2269.37 1079.5C2269.37 536.962 1772.02 97.1476 1158.5 97.1476C544.984 97.1476 47.6312 536.962 47.6312 1079.5Z" fill="url(#paint4_linear_4037_189)" fill-opacity="0.2"/>
<path d="M2481 1079.5C2481 1725.4 1888.9 2249 1158.5 2249C428.103 2249 -164 1725.4 -164 1079.5C-164 433.603 428.103 -90 1158.5 -90C1888.9 -90 2481 433.603 2481 1079.5ZM47.6312 1079.5C47.6312 1622.04 544.984 2061.85 1158.5 2061.85C1772.02 2061.85 2269.37 1622.04 2269.37 1079.5C2269.37 536.962 1772.02 97.1476 1158.5 97.1476C544.984 97.1476 47.6312 536.962 47.6312 1079.5Z" stroke="url(#paint5_linear_4037_189)" stroke-opacity="0.3" stroke-width="7.88392" mask="url(#path-60-inside-3_4037_189)"/>
</g>
<g filter="url(#filter29_b_4037_189)">
<mask id="path-61-inside-4_4037_189" fill="white">
<path d="M1259 1478.5C1259 1828.92 974.925 2113 624.5 2113C274.075 2113 -10 1828.92 -10 1478.5C-10 1128.08 274.075 844 624.5 844C974.925 844 1259 1128.08 1259 1478.5ZM125.346 1478.5C125.346 1754.17 348.825 1977.65 624.5 1977.65C900.175 1977.65 1123.65 1754.17 1123.65 1478.5C1123.65 1202.83 900.175 979.346 624.5 979.346C348.825 979.346 125.346 1202.83 125.346 1478.5Z"/>
</mask>
<path d="M1259 1478.5C1259 1828.92 974.925 2113 624.5 2113C274.075 2113 -10 1828.92 -10 1478.5C-10 1128.08 274.075 844 624.5 844C974.925 844 1259 1128.08 1259 1478.5ZM125.346 1478.5C125.346 1754.17 348.825 1977.65 624.5 1977.65C900.175 1977.65 1123.65 1754.17 1123.65 1478.5C1123.65 1202.83 900.175 979.346 624.5 979.346C348.825 979.346 125.346 1202.83 125.346 1478.5Z" fill="url(#paint6_linear_4037_189)" fill-opacity="0.2"/>
<path d="M1259 1478.5C1259 1828.92 974.925 2113 624.5 2113C274.075 2113 -10 1828.92 -10 1478.5C-10 1128.08 274.075 844 624.5 844C974.925 844 1259 1128.08 1259 1478.5ZM125.346 1478.5C125.346 1754.17 348.825 1977.65 624.5 1977.65C900.175 1977.65 1123.65 1754.17 1123.65 1478.5C1123.65 1202.83 900.175 979.346 624.5 979.346C348.825 979.346 125.346 1202.83 125.346 1478.5Z" stroke="url(#paint7_linear_4037_189)" stroke-opacity="0.3" stroke-width="4.41105" mask="url(#path-61-inside-4_4037_189)"/>
</g>
<g opacity="0.6">
<g style="mix-blend-mode:color-dodge" opacity="0.5" filter="url(#filter30_f_4037_189)">
<rect x="983" y="-218.461" width="104" height="1047" transform="rotate(-45 983 -218.461)" fill="url(#paint8_linear_4037_189)"/>
</g>
<g style="mix-blend-mode:color-dodge" opacity="0.5" filter="url(#filter31_f_4037_189)">
<rect x="668" y="-42.4609" width="104" height="1047" transform="rotate(-45 668 -42.4609)" fill="url(#paint9_linear_4037_189)"/>
</g>
<g style="mix-blend-mode:color-dodge" opacity="0.5" filter="url(#filter32_f_4037_189)">
<rect x="594" y="261.539" width="104" height="1047" transform="rotate(-45 594 261.539)" fill="url(#paint10_linear_4037_189)"/>
</g>
</g>
<g filter="url(#filter33_f_4037_189)">
<circle cx="1164.93" cy="510.798" r="41.9747" fill="#0C0C0C"/>
</g>
<g filter="url(#filter34_f_4037_189)">
<circle cx="959.824" cy="353.393" r="65.824" fill="#0C0C0C"/>
</g>
<g filter="url(#filter35_f_4037_189)">
<circle cx="959.824" cy="441.158" r="65.824" fill="#0C0C0C"/>
</g>
<g filter="url(#filter36_f_4037_189)">
<circle cx="1032.33" cy="492.672" r="85.8573" fill="#0C0C0C"/>
</g>
<g filter="url(#filter37_f_4037_189)">
<circle cx="1103.87" cy="355.3" r="85.8573" fill="#0C0C0C"/>
</g>
<g filter="url(#filter38_f_4037_189)">
<circle cx="1063.81" cy="333.359" r="85.8573" fill="#0C0C0C"/>
</g>
</g>
<g opacity="0.4" filter="url(#filter39_f_4037_189)">
<ellipse cx="793.837" cy="3018.7" rx="149.834" ry="50.6453" transform="rotate(15 793.837 3018.7)" fill="#FF2A6D"/>
</g>
<g opacity="0.4" filter="url(#filter40_f_4037_189)">
<ellipse cx="226.166" cy="76.4462" rx="226.166" ry="76.4462" transform="matrix(-0.965926 0.258819 0.258819 0.965926 1244.92 3258)" fill="#07F1E0"/>
</g>
<g opacity="0.2" filter="url(#filter41_f_4037_189)">
<ellipse cx="-170.522" cy="3074.41" rx="344.1" ry="116.309" transform="rotate(-165 -170.522 3074.41)" fill="#07F1E0"/>
</g>
<g opacity="0.2" filter="url(#filter42_f_4037_189)">
<ellipse cx="2100.48" cy="3303.41" rx="344.1" ry="116.309" transform="rotate(-165 2100.48 3303.41)" fill="#07F1E0"/>
</g>
<g filter="url(#filter43_f_4037_189)">
<ellipse cx="226.166" cy="76.4462" rx="226.166" ry="76.4462" transform="matrix(-0.965926 0.258819 0.258819 0.965926 1448.92 3203)" fill="#07F1E0"/>
</g>
<g opacity="0.3" filter="url(#filter44_f_4037_189)">
<ellipse cx="97.9927" cy="5713.01" rx="631.731" ry="146" transform="rotate(15 97.9927 5713.01)" fill="#FF2A6D"/>
</g>
<g opacity="0.3" filter="url(#filter45_f_4037_189)">
<ellipse cx="2245.99" cy="5760.01" rx="631.731" ry="146" transform="rotate(15 2245.99 5760.01)" fill="#414141"/>
</g>
<g opacity="0.3" filter="url(#filter46_f_4037_189)">
<ellipse cx="-390.007" cy="6363.01" rx="631.731" ry="146" transform="rotate(15 -390.007 6363.01)" fill="#414141"/>
</g>
<g opacity="0.2" filter="url(#filter47_f_4037_189)">
<ellipse cx="-400.008" cy="4531.01" rx="730.192" ry="146" transform="rotate(15 -400.008 4531.01)" fill="#FF2A6D"/>
</g>
<g opacity="0.2" filter="url(#filter48_f_4037_189)">
<ellipse cx="1580.53" cy="6853.78" rx="427.215" ry="132.954" transform="rotate(46.7583 1580.53 6853.78)" fill="#07F1E0"/>
</g>
<g opacity="0.6" filter="url(#filter49_f_4037_189)">
<ellipse cx="1707.1" cy="7005.97" rx="255.223" ry="79.4278" transform="rotate(46.7583 1707.1 7005.97)" fill="#07F1E0"/>
</g>
</g>
<defs>
<filter id="filter0_f_4037_189" x="758.643" y="4759.95" width="1113.35" height="613.825" filterUnits="userSpaceOnUse" color-interpolation-filters="sRGB">
<feFlood flood-opacity="0" result="BackgroundImageFix"/>
<feBlend mode="normal" in="SourceGraphic" in2="BackgroundImageFix" result="shape"/>
<feGaussianBlur stdDeviation="90.168" result="effect1_foregroundBlur_4037_189"/>
</filter>
<filter id="filter1_f_4037_189" x="160.643" y="4529.95" width="1113.35" height="613.825" filterUnits="userSpaceOnUse" color-interpolation-filters="sRGB">
<feFlood flood-opacity="0" result="BackgroundImageFix"/>
<feBlend mode="normal" in="SourceGraphic" in2="BackgroundImageFix" result="shape"/>
<feGaussianBlur stdDeviation="90.168" result="effect1_foregroundBlur_4037_189"/>
</filter>
<filter id="filter2_f_4037_189" x="-431.095" y="753.216" width="723.942" height="709.659" filterUnits="userSpaceOnUse" color-interpolation-filters="sRGB">
<feFlood flood-opacity="0" result="BackgroundImageFix"/>
<feBlend mode="normal" in="SourceGraphic" in2="BackgroundImageFix" result="shape"/>
<feGaussianBlur stdDeviation="100" result="effect1_foregroundBlur_4037_189"/>
</filter>
<filter id="filter3_f_4037_189" x="850.243" y="1206.16" width="615.595" height="607.877" filterUnits="userSpaceOnUse" color-interpolation-filters="sRGB">
<feFlood flood-opacity="0" result="BackgroundImageFix"/>
<feBlend mode="normal" in="SourceGraphic" in2="BackgroundImageFix" result="shape"/>
<feGaussianBlur stdDeviation="100" result="effect1_foregroundBlur_4037_189"/>
</filter>
<filter id="filter4_f_4037_189" x="-397.751" y="1874.72" width="989.87" height="977.46" filterUnits="userSpaceOnUse" color-interpolation-filters="sRGB">
<feFlood flood-opacity="0" result="BackgroundImageFix"/>
<feBlend mode="normal" in="SourceGraphic" in2="BackgroundImageFix" result="shape"/>
<feGaussianBlur stdDeviation="160.799" result="effect1_foregroundBlur_4037_189"/>
</filter>
<filter id="filter5_f_4037_189" x="-387.543" y="1923.86" width="640.925" height="632.89" filterUnits="userSpaceOnUse" color-interpolation-filters="sRGB">
<feFlood flood-opacity="0" result="BackgroundImageFix"/>
<feBlend mode="normal" in="SourceGraphic" in2="BackgroundImageFix" result="shape"/>
<feGaussianBlur stdDeviation="104.115" result="effect1_foregroundBlur_4037_189"/>
</filter>
<filter id="filter6_f_4037_189" x="1387.14" y="809.875" width="1166.39" height="1151.77" filterUnits="userSpaceOnUse" color-interpolation-filters="sRGB">
<feFlood flood-opacity="0" result="BackgroundImageFix"/>
<feBlend mode="normal" in="SourceGraphic" in2="BackgroundImageFix" result="shape"/>
<feGaussianBlur stdDeviation="189.474" result="effect1_foregroundBlur_4037_189"/>
</filter>
<filter id="filter7_f_4037_189" x="81.4034" y="1616.22" width="552.622" height="545.694" filterUnits="userSpaceOnUse" color-interpolation-filters="sRGB">
<feFlood flood-opacity="0" result="BackgroundImageFix"/>
<feBlend mode="normal" in="SourceGraphic" in2="BackgroundImageFix" result="shape"/>
<feGaussianBlur stdDeviation="89.7705" result="effect1_foregroundBlur_4037_189"/>
</filter>
<filter id="filter8_f_4037_189" x="546.403" y="2048.22" width="552.622" height="545.694" filterUnits="userSpaceOnUse" color-interpolation-filters="sRGB">
<feFlood flood-opacity="0" result="BackgroundImageFix"/>
<feBlend mode="normal" in="SourceGraphic" in2="BackgroundImageFix" result="shape"/>
<feGaussianBlur stdDeviation="89.7705" result="effect1_foregroundBlur_4037_189"/>
</filter>
<filter id="filter9_f_4037_189" x="1216.88" y="1809.5" width="1162.19" height="1147.62" filterUnits="userSpaceOnUse" color-interpolation-filters="sRGB">
<feFlood flood-opacity="0" result="BackgroundImageFix"/>
<feBlend mode="normal" in="SourceGraphic" in2="BackgroundImageFix" result="shape"/>
<feGaussianBlur stdDeviation="188.791" result="effect1_foregroundBlur_4037_189"/>
</filter>
<filter id="filter10_f_4037_189" x="1633.43" y="2023.61" width="794.725" height="784.762" filterUnits="userSpaceOnUse" color-interpolation-filters="sRGB">
<feFlood flood-opacity="0" result="BackgroundImageFix"/>
<feBlend mode="normal" in="SourceGraphic" in2="BackgroundImageFix" result="shape"/>
<feGaussianBlur stdDeviation="129.099" result="effect1_foregroundBlur_4037_189"/>
</filter>
<filter id="filter11_f_4037_189" x="1677.38" y="4755.71" width="731.414" height="439.108" filterUnits="userSpaceOnUse" color-interpolation-filters="sRGB">
<feFlood flood-opacity="0" result="BackgroundImageFix"/>
<feBlend mode="normal" in="SourceGraphic" in2="BackgroundImageFix" result="shape"/>
<feGaussianBlur stdDeviation="59.156" result="effect1_foregroundBlur_4037_189"/>
</filter>
<filter id="filter12_f_4037_189" x="-533.906" y="411.094" width="1677.81" height="1251.62" filterUnits="userSpaceOnUse" color-interpolation-filters="sRGB">
<feFlood flood-opacity="0" result="BackgroundImageFix"/>
<feBlend mode="normal" in="SourceGraphic" in2="BackgroundImageFix" result="shape"/>
<feGaussianBlur stdDeviation="156.453" result="effect1_foregroundBlur_4037_189"/>
</filter>
<filter id="filter13_f_4037_189" x="318.094" y="472.094" width="2255.81" height="1251.81" filterUnits="userSpaceOnUse" color-interpolation-filters="sRGB">
<feFlood flood-opacity="0" result="BackgroundImageFix"/>
<feBlend mode="normal" in="SourceGraphic" in2="BackgroundImageFix" result="shape"/>
<feGaussianBlur stdDeviation="156.453" result="effect1_foregroundBlur_4037_189"/>
</filter>
<filter id="filter14_f_4037_189" x="812.459" y="565.366" width="713.051" height="706.45" filterUnits="userSpaceOnUse" color-interpolation-filters="sRGB">
<feFlood flood-opacity="0" result="BackgroundImageFix"/>
<feBlend mode="normal" in="SourceGraphic" in2="BackgroundImageFix" result="shape"/>
<feGaussianBlur stdDeviation="106.308" result="effect1_foregroundBlur_4037_189"/>
</filter>
<filter id="filter15_f_4037_189" x="844.662" y="957.158" width="390.349" height="386.735" filterUnits="userSpaceOnUse" color-interpolation-filters="sRGB">
<feFlood flood-opacity="0" result="BackgroundImageFix"/>
<feBlend mode="normal" in="SourceGraphic" in2="BackgroundImageFix" result="shape"/>
<feGaussianBlur stdDeviation="58.1965" result="effect1_foregroundBlur_4037_189"/>
</filter>
<filter id="filter16_f_4037_189" x="670.094" y="-77.9057" width="1677.81" height="1251.62" filterUnits="userSpaceOnUse" color-interpolation-filters="sRGB">
<feFlood flood-opacity="0" result="BackgroundImageFix"/>
<feBlend mode="normal" in="SourceGraphic" in2="BackgroundImageFix" result="shape"/>
<feGaussianBlur stdDeviation="156.453" result="effect1_foregroundBlur_4037_189"/>
</filter>
<filter id="filter17_f_4037_189" x="-99.9057" y="454.094" width="1677.81" height="1251.62" filterUnits="userSpaceOnUse" color-interpolation-filters="sRGB">
<feFlood flood-opacity="0" result="BackgroundImageFix"/>
<feBlend mode="normal" in="SourceGraphic" in2="BackgroundImageFix" result="shape"/>
<feGaussianBlur stdDeviation="156.453" result="effect1_foregroundBlur_4037_189"/>
</filter>
<filter id="filter18_f_4037_189" x="-771.906" y="96.0943" width="1677.81" height="1251.62" filterUnits="userSpaceOnUse" color-interpolation-filters="sRGB">
<feFlood flood-opacity="0" result="BackgroundImageFix"/>
<feBlend mode="normal" in="SourceGraphic" in2="BackgroundImageFix" result="shape"/>
<feGaussianBlur stdDeviation="156.453" result="effect1_foregroundBlur_4037_189"/>
</filter>
<filter id="filter19_f_4037_189" x="99.5943" y="4.59431" width="988.79" height="737.623" filterUnits="userSpaceOnUse" color-interpolation-filters="sRGB">
<feFlood flood-opacity="0" result="BackgroundImageFix"/>
<feBlend mode="normal" in="SourceGraphic" in2="BackgroundImageFix" result="shape"/>
<feGaussianBlur stdDeviation="92.2028" result="effect1_foregroundBlur_4037_189"/>
</filter>
<filter id="filter20_f_4037_189" x="-496.906" y="-559.906" width="1677.81" height="1251.62" filterUnits="userSpaceOnUse" color-interpolation-filters="sRGB">
<feFlood flood-opacity="0" result="BackgroundImageFix"/>
<feBlend mode="normal" in="SourceGraphic" in2="BackgroundImageFix" result="shape"/>
<feGaussianBlur stdDeviation="156.453" result="effect1_foregroundBlur_4037_189"/>
</filter>
<filter id="filter21_f_4037_189" x="991" y="253" width="781" height="836" filterUnits="userSpaceOnUse" color-interpolation-filters="sRGB">
<feFlood flood-opacity="0" result="BackgroundImageFix"/>
<feBlend mode="normal" in="SourceGraphic" in2="BackgroundImageFix" result="shape"/>
<feGaussianBlur stdDeviation="50" result="effect1_foregroundBlur_4037_189"/>
</filter>
<pattern id="pattern0_4037_189" patternContentUnits="objectBoundingBox" width="1" height="1">
<use xlink:href="#image0_4037_189" transform="scale(0.000545256 0.00109649)"/>
</pattern>
<filter id="filter22_f_4037_189" x="546.677" y="636.715" width="1212.13" height="1301.83" filterUnits="userSpaceOnUse" color-interpolation-filters="sRGB">
<feFlood flood-opacity="0" result="BackgroundImageFix"/>
<feBlend mode="normal" in="SourceGraphic" in2="BackgroundImageFix" result="shape"/>
<feGaussianBlur stdDeviation="171.393" result="effect1_foregroundBlur_4037_189"/>
</filter>
<filter id="filter23_f_4037_189" x="846.819" y="-426.119" width="518.266" height="823.502" filterUnits="userSpaceOnUse" color-interpolation-filters="sRGB">
<feFlood flood-opacity="0" result="BackgroundImageFix"/>
<feBlend mode="normal" in="SourceGraphic" in2="BackgroundImageFix" result="shape"/>
<feGaussianBlur stdDeviation="108.419" result="effect1_foregroundBlur_4037_189"/>
</filter>
<filter id="filter24_f_4037_189" x="519.739" y="666.892" width="1069.63" height="1278.68" filterUnits="userSpaceOnUse" color-interpolation-filters="sRGB">
<feFlood flood-opacity="0" result="BackgroundImageFix"/>
<feBlend mode="normal" in="SourceGraphic" in2="BackgroundImageFix" result="shape"/>
<feGaussianBlur stdDeviation="171.393" result="effect1_foregroundBlur_4037_189"/>
</filter>
<filter id="filter25_f_4037_189" x="924.352" y="-471.916" width="334.138" height="710.84" filterUnits="userSpaceOnUse" color-interpolation-filters="sRGB">
<feFlood flood-opacity="0" result="BackgroundImageFix"/>
<feBlend mode="normal" in="SourceGraphic" in2="BackgroundImageFix" result="shape"/>
<feGaussianBlur stdDeviation="65" result="effect1_foregroundBlur_4037_189"/>
</filter>
<filter id="filter26_b_4037_189" x="-588.892" y="-459.892" width="3494.78" height="3104.78" filterUnits="userSpaceOnUse" color-interpolation-filters="sRGB">
<feFlood flood-opacity="0" result="BackgroundImageFix"/>
<feGaussianBlur in="BackgroundImageFix" stdDeviation="29.9462"/>
<feComposite in2="SourceAlpha" operator="in" result="effect1_backgroundBlur_4037_189"/>
<feBlend mode="normal" in="SourceGraphic" in2="effect1_backgroundBlur_4037_189" result="shape"/>
</filter>
<filter id="filter27_b_4037_189" x="216.08" y="513.561" width="1884.84" height="1731.88" filterUnits="userSpaceOnUse" color-interpolation-filters="sRGB">
<feFlood flood-opacity="0" result="BackgroundImageFix"/>
<feGaussianBlur in="BackgroundImageFix" stdDeviation="21.7193"/>
<feComposite in2="SourceAlpha" operator="in" result="effect1_backgroundBlur_4037_189"/>
<feBlend mode="normal" in="SourceGraphic" in2="effect1_backgroundBlur_4037_189" result="shape"/>
</filter>
<filter id="filter28_b_4037_189" x="-223.892" y="-149.892" width="2764.78" height="2458.78" filterUnits="userSpaceOnUse" color-interpolation-filters="sRGB">
<feFlood flood-opacity="0" result="BackgroundImageFix"/>
<feGaussianBlur in="BackgroundImageFix" stdDeviation="29.9462"/>
<feComposite in2="SourceAlpha" operator="in" result="effect1_backgroundBlur_4037_189"/>
<feBlend mode="normal" in="SourceGraphic" in2="effect1_backgroundBlur_4037_189" result="shape"/>
</filter>
<filter id="filter29_b_4037_189" x="-43.5098" y="810.49" width="1336.02" height="1336.02" filterUnits="userSpaceOnUse" color-interpolation-filters="sRGB">
<feFlood flood-opacity="0" result="BackgroundImageFix"/>
<feGaussianBlur in="BackgroundImageFix" stdDeviation="16.7549"/>
<feComposite in2="SourceAlpha" operator="in" result="effect1_backgroundBlur_4037_189"/>
<feBlend mode="normal" in="SourceGraphic" in2="effect1_backgroundBlur_4037_189" result="shape"/>
</filter>
<filter id="filter30_f_4037_189" x="883" y="-392" width="1013.88" height="1013.88" filterUnits="userSpaceOnUse" color-interpolation-filters="sRGB">
<feFlood flood-opacity="0" result="BackgroundImageFix"/>
<feBlend mode="normal" in="SourceGraphic" in2="BackgroundImageFix" result="shape"/>
<feGaussianBlur stdDeviation="50" result="effect1_foregroundBlur_4037_189"/>
</filter>
<filter id="filter31_f_4037_189" x="568" y="-216" width="1013.88" height="1013.88" filterUnits="userSpaceOnUse" color-interpolation-filters="sRGB">
<feFlood flood-opacity="0" result="BackgroundImageFix"/>
<feBlend mode="normal" in="SourceGraphic" in2="BackgroundImageFix" result="shape"/>
<feGaussianBlur stdDeviation="50" result="effect1_foregroundBlur_4037_189"/>
</filter>
<filter id="filter32_f_4037_189" x="494" y="88" width="1013.88" height="1013.88" filterUnits="userSpaceOnUse" color-interpolation-filters="sRGB">
<feFlood flood-opacity="0" result="BackgroundImageFix"/>
<feBlend mode="normal" in="SourceGraphic" in2="BackgroundImageFix" result="shape"/>
<feGaussianBlur stdDeviation="50" result="effect1_foregroundBlur_4037_189"/>
</filter>
<filter id="filter33_f_4037_189" x="1072.58" y="418.453" width="184.688" height="184.689" filterUnits="userSpaceOnUse" color-interpolation-filters="sRGB">
<feFlood flood-opacity="0" result="BackgroundImageFix"/>
<feBlend mode="normal" in="SourceGraphic" in2="BackgroundImageFix" result="shape"/>
<feGaussianBlur stdDeviation="25.1848" result="effect1_foregroundBlur_4037_189"/>
</filter>
<filter id="filter34_f_4037_189" x="815.011" y="208.58" width="289.625" height="289.625" filterUnits="userSpaceOnUse" color-interpolation-filters="sRGB">
<feFlood flood-opacity="0" result="BackgroundImageFix"/>
<feBlend mode="normal" in="SourceGraphic" in2="BackgroundImageFix" result="shape"/>
<feGaussianBlur stdDeviation="39.4944" result="effect1_foregroundBlur_4037_189"/>
</filter>
<filter id="filter35_f_4037_189" x="815.011" y="296.345" width="289.625" height="289.625" filterUnits="userSpaceOnUse" color-interpolation-filters="sRGB">
<feFlood flood-opacity="0" result="BackgroundImageFix"/>
<feBlend mode="normal" in="SourceGraphic" in2="BackgroundImageFix" result="shape"/>
<feGaussianBlur stdDeviation="39.4944" result="effect1_foregroundBlur_4037_189"/>
</filter>
<filter id="filter36_f_4037_189" x="867.48" y="327.826" width="329.692" height="329.692" filterUnits="userSpaceOnUse" color-interpolation-filters="sRGB">
<feFlood flood-opacity="0" result="BackgroundImageFix"/>
<feBlend mode="normal" in="SourceGraphic" in2="BackgroundImageFix" result="shape"/>
<feGaussianBlur stdDeviation="39.4944" result="effect1_foregroundBlur_4037_189"/>
</filter>
<filter id="filter37_f_4037_189" x="939.027" y="190.454" width="329.692" height="329.692" filterUnits="userSpaceOnUse" color-interpolation-filters="sRGB">
<feFlood flood-opacity="0" result="BackgroundImageFix"/>
<feBlend mode="normal" in="SourceGraphic" in2="BackgroundImageFix" result="shape"/>
<feGaussianBlur stdDeviation="39.4944" result="effect1_foregroundBlur_4037_189"/>
</filter>
<filter id="filter38_f_4037_189" x="898.96" y="168.513" width="329.692" height="329.692" filterUnits="userSpaceOnUse" color-interpolation-filters="sRGB">
<feFlood flood-opacity="0" result="BackgroundImageFix"/>
<feBlend mode="normal" in="SourceGraphic" in2="BackgroundImageFix" result="shape"/>
<feGaussianBlur stdDeviation="39.4944" result="effect1_foregroundBlur_4037_189"/>
</filter>
<filter id="filter39_f_4037_189" x="546.921" y="2854.69" width="493.83" height="328.026" filterUnits="userSpaceOnUse" color-interpolation-filters="sRGB">
<feFlood flood-opacity="0" result="BackgroundImageFix"/>
<feBlend mode="normal" in="SourceGraphic" in2="BackgroundImageFix" result="shape"/>
<feGaussianBlur stdDeviation="50.7923" result="effect1_foregroundBlur_4037_189"/>
</filter>
<filter id="filter40_f_4037_189" x="673.541" y="3142.81" width="745.41" height="495.137" filterUnits="userSpaceOnUse" color-interpolation-filters="sRGB">
<feFlood flood-opacity="0" result="BackgroundImageFix"/>
<feBlend mode="normal" in="SourceGraphic" in2="BackgroundImageFix" result="shape"/>
<feGaussianBlur stdDeviation="76.6681" result="effect1_foregroundBlur_4037_189"/>
</filter>
<filter id="filter41_f_4037_189" x="-737.571" y="2697.74" width="1134.1" height="753.324" filterUnits="userSpaceOnUse" color-interpolation-filters="sRGB">
<feFlood flood-opacity="0" result="BackgroundImageFix"/>
<feBlend mode="normal" in="SourceGraphic" in2="BackgroundImageFix" result="shape"/>
<feGaussianBlur stdDeviation="116.646" result="effect1_foregroundBlur_4037_189"/>
</filter>
<filter id="filter42_f_4037_189" x="1466.72" y="2860.04" width="1267.51" height="886.739" filterUnits="userSpaceOnUse" color-interpolation-filters="sRGB">
<feFlood flood-opacity="0" result="BackgroundImageFix"/>
<feBlend mode="normal" in="SourceGraphic" in2="BackgroundImageFix" result="shape"/>
<feGaussianBlur stdDeviation="150" result="effect1_foregroundBlur_4037_189"/>
</filter>
<filter id="filter43_f_4037_189" x="877.541" y="3087.81" width="745.41" height="495.137" filterUnits="userSpaceOnUse" color-interpolation-filters="sRGB">
<feFlood flood-opacity="0" result="BackgroundImageFix"/>
<feBlend mode="normal" in="SourceGraphic" in2="BackgroundImageFix" result="shape"/>
<feGaussianBlur stdDeviation="76.6681" result="effect1_foregroundBlur_4037_189"/>
</filter>
<filter id="filter44_f_4037_189" x="-806.249" y="5204.24" width="1808.48" height="1017.54" filterUnits="userSpaceOnUse" color-interpolation-filters="sRGB">
<feFlood flood-opacity="0" result="BackgroundImageFix"/>
<feBlend mode="normal" in="SourceGraphic" in2="BackgroundImageFix" result="shape"/>
<feGaussianBlur stdDeviation="146.424" result="effect1_foregroundBlur_4037_189"/>
</filter>
<filter id="filter45_f_4037_189" x="1341.75" y="5251.24" width="1808.48" height="1017.54" filterUnits="userSpaceOnUse" color-interpolation-filters="sRGB">
<feFlood flood-opacity="0" result="BackgroundImageFix"/>
<feBlend mode="normal" in="SourceGraphic" in2="BackgroundImageFix" result="shape"/>
<feGaussianBlur stdDeviation="146.424" result="effect1_foregroundBlur_4037_189"/>
</filter>
<filter id="filter46_f_4037_189" x="-1294.25" y="5854.24" width="1808.48" height="1017.54" filterUnits="userSpaceOnUse" color-interpolation-filters="sRGB">
<feFlood flood-opacity="0" result="BackgroundImageFix"/>
<feBlend mode="normal" in="SourceGraphic" in2="BackgroundImageFix" result="shape"/>
<feGaussianBlur stdDeviation="146.424" result="effect1_foregroundBlur_4037_189"/>
</filter>
<filter id="filter47_f_4037_189" x="-1399.2" y="4002.34" width="1998.38" height="1057.34" filterUnits="userSpaceOnUse" color-interpolation-filters="sRGB">
<feFlood flood-opacity="0" result="BackgroundImageFix"/>
<feBlend mode="normal" in="SourceGraphic" in2="BackgroundImageFix" result="shape"/>
<feGaussianBlur stdDeviation="146.424" result="effect1_foregroundBlur_4037_189"/>
</filter>
<filter id="filter48_f_4037_189" x="1074.12" y="6331.39" width="1012.82" height="1044.79" filterUnits="userSpaceOnUse" color-interpolation-filters="sRGB">
<feFlood flood-opacity="0" result="BackgroundImageFix"/>
<feBlend mode="normal" in="SourceGraphic" in2="BackgroundImageFix" result="shape"/>
<feGaussianBlur stdDeviation="99.0208" result="effect1_foregroundBlur_4037_189"/>
</filter>
<filter id="filter49_f_4037_189" x="1404.57" y="6693.89" width="605.067" height="624.168" filterUnits="userSpaceOnUse" color-interpolation-filters="sRGB">
<feFlood flood-opacity="0" result="BackgroundImageFix"/>
<feBlend mode="normal" in="SourceGraphic" in2="BackgroundImageFix" result="shape"/>
<feGaussianBlur stdDeviation="59.156" result="effect1_foregroundBlur_4037_189"/>
</filter>
<linearGradient id="paint0_linear_4037_189" x1="-316.234" y1="-81.2707" x2="2210.77" y2="1688.58" gradientUnits="userSpaceOnUse">
<stop stop-color="#1B1B1B"/>
<stop offset="1" stop-color="#070707"/>
</linearGradient>
<linearGradient id="paint1_linear_4037_189" x1="2560.1" y1="296.265" x2="2232.51" y2="649.395" gradientUnits="userSpaceOnUse">
<stop stop-color="#272727"/>
<stop offset="1" stop-color="#272727" stop-opacity="0"/>
</linearGradient>
<linearGradient id="paint2_linear_4037_189" x1="372.865" y1="732.648" x2="1748.74" y2="1664.18" gradientUnits="userSpaceOnUse">
<stop stop-color="#1B1B1B"/>
<stop offset="1" stop-color="#070707"/>
</linearGradient>
<linearGradient id="paint3_linear_4037_189" x1="1905.17" y1="940.704" x2="1724.29" y2="1129.2" gradientUnits="userSpaceOnUse">
<stop stop-color="#272727"/>
<stop offset="1" stop-color="#272727" stop-opacity="0"/>
</linearGradient>
<linearGradient id="paint4_linear_4037_189" x1="2.74549" y1="159.751" x2="1982.97" y2="1546.86" gradientUnits="userSpaceOnUse">
<stop stop-color="#1B1B1B"/>
<stop offset="1" stop-color="#070707"/>
</linearGradient>
<linearGradient id="paint5_linear_4037_189" x1="2256.94" y1="455.582" x2="2000.25" y2="732.329" gradientUnits="userSpaceOnUse">
<stop stop-color="#272727"/>
<stop offset="1" stop-color="#272727" stop-opacity="0"/>
</linearGradient>
<linearGradient id="paint6_linear_4037_189" x1="70" y1="979.5" x2="1093.5" y2="1613.5" gradientUnits="userSpaceOnUse">
<stop stop-color="#1B1B1B"/>
<stop offset="1" stop-color="#070707"/>
</linearGradient>
<linearGradient id="paint7_linear_4037_189" x1="1151.5" y1="1140" x2="1012" y2="1273" gradientUnits="userSpaceOnUse">
<stop stop-color="#272727"/>
<stop offset="1" stop-color="#272727" stop-opacity="0"/>
</linearGradient>
<linearGradient id="paint8_linear_4037_189" x1="1035" y1="-218.461" x2="1035" y2="828.539" gradientUnits="userSpaceOnUse">
<stop stop-color="#D9D9D9"/>
<stop offset="1" stop-color="#737373" stop-opacity="0"/>
</linearGradient>
<linearGradient id="paint9_linear_4037_189" x1="720" y1="-42.4609" x2="720" y2="1004.54" gradientUnits="userSpaceOnUse">
<stop stop-color="#D9D9D9"/>
<stop offset="1" stop-color="#737373" stop-opacity="0"/>
</linearGradient>
<linearGradient id="paint10_linear_4037_189" x1="646" y1="261.539" x2="646" y2="1308.54" gradientUnits="userSpaceOnUse">
<stop stop-color="#D9D9D9"/>
<stop offset="1" stop-color="#737373" stop-opacity="0"/>
</linearGradient>
<clipPath id="clip0_4037_189">
<rect width="1920" height="6971" fill="white"/>
</clipPath>
</defs>
</svg>
