<svg width="1920" height="5944" viewBox="0 0 1920 5944" fill="none" xmlns="http://www.w3.org/2000/svg" xmlns:xlink="http://www.w3.org/1999/xlink">
<g clip-path="url(#clip0_4114_7437)">
<rect width="1920" height="5944" fill="#EEF0F4"/>
<g filter="url(#filter0_f_4114_7437)">
<ellipse cx="-37.5685" cy="1530.55" rx="600.432" ry="443.55" fill="#D6D9E1"/>
</g>
<g filter="url(#filter1_f_4114_7437)">
<ellipse cx="1773.43" cy="1825.55" rx="600.432" ry="443.55" fill="#D6D9E1"/>
</g>
<g filter="url(#filter2_f_4114_7437)">
<ellipse cx="1773.43" cy="4920.55" rx="600.432" ry="443.55" fill="#D6D9E1"/>
</g>
<g filter="url(#filter3_f_4114_7437)">
<ellipse cx="639.432" cy="5970.55" rx="600.432" ry="443.55" fill="#D6D9E1"/>
</g>
<g filter="url(#filter4_f_4114_7437)">
<ellipse cx="198.432" cy="2750.55" rx="600.432" ry="443.55" fill="#D6D9E1"/>
</g>
<g filter="url(#filter5_f_4114_7437)">
<ellipse cx="1078.43" cy="3446.55" rx="600.432" ry="443.55" fill="#CCD0DB"/>
</g>
<g filter="url(#filter6_f_4114_7437)">
<ellipse cx="519.432" cy="4160.55" rx="600.432" ry="443.55" fill="#CCD0DB"/>
</g>
<g style="mix-blend-mode:color-dodge" opacity="0.2">
<rect x="-55.4922" y="970" width="2014.99" height="1002" fill="url(#pattern0_4114_7437)"/>
</g>
<g style="mix-blend-mode:color-dodge" opacity="0.2">
<rect x="-55.4922" y="1972" width="2014.99" height="1002" fill="url(#pattern1_4114_7437)"/>
</g>
<g style="mix-blend-mode:color-dodge" opacity="0.2">
<rect x="-55.4922" y="2974" width="2014.99" height="1002" fill="url(#pattern2_4114_7437)"/>
</g>
<g style="mix-blend-mode:color-dodge" opacity="0.2">
<rect x="-55.4922" y="3976" width="2014.99" height="1002" fill="url(#pattern3_4114_7437)"/>
</g>
<mask id="mask0_4114_7437" style="mask-type:alpha" maskUnits="userSpaceOnUse" x="0" y="0" width="1920" height="970">
<path d="M0 0H1920V910C1920 943.137 1893.14 970 1860 970H60C26.8629 970 0 943.137 0 910V0Z" fill="#D9D9D9"/>
</mask>
<g mask="url(#mask0_4114_7437)">
<g opacity="0.7" filter="url(#filter7_f_4114_7437)">
<ellipse cx="937" cy="-150.5" rx="687" ry="507.5" fill="#FAFAFD"/>
</g>
<g opacity="0.7" filter="url(#filter8_f_4114_7437)">
<ellipse cx="937" cy="-150.5" rx="882" ry="651.55" fill="#FAFAFD"/>
</g>
<g filter="url(#filter9_f_4114_7437)">
<ellipse cx="165.432" cy="1038.55" rx="600.432" ry="443.55" fill="#D6D9E1"/>
</g>
<g filter="url(#filter10_f_4114_7437)">
<ellipse cx="2295.43" cy="726.55" rx="600.432" ry="443.55" fill="#D6D9E1"/>
</g>
<path opacity="0.0344828" d="M-50.7144 1014.18C-82.0204 1010.89 -110.066 990.178 -133.964 955.394C-157.861 920.612 -177.569 871.814 -192.202 812.491C-221.467 693.849 -230.408 533.222 -212.069 358.738C-193.73 184.254 -151.588 28.996 -98.2955 -80.9689C-71.6482 -135.953 -42.2257 -179.587 -11.6192 -208.641C18.9891 -237.696 50.7272 -252.121 82.0332 -248.831C113.339 -245.541 141.385 -224.832 165.283 -190.048C189.18 -155.266 208.888 -106.468 223.521 -47.1446C252.786 71.4975 261.727 232.125 243.388 406.608C225.049 581.092 182.907 736.35 129.614 846.315C102.967 901.3 73.5445 944.934 42.938 973.987C12.3297 1003.04 -19.4085 1017.47 -50.7144 1014.18Z" stroke="url(#paint0_linear_4114_7437)" stroke-opacity="0.52" stroke-width="1.03448"/>
<path opacity="0.0689655" d="M-114.902 969.514C-145.923 964.601 -172.843 942.877 -194.945 907.652C-217.046 872.428 -234.29 823.762 -245.965 765.103C-269.315 647.791 -270.368 490.632 -243.571 321.441C-216.774 152.25 -167.207 3.10825 -108.749 -101.247C-79.5183 -153.426 -48.0796 -194.382 -16.1755 -221.052C15.7297 -247.723 48.0454 -260.065 79.0658 -255.152C110.086 -250.239 137.006 -228.515 159.108 -193.29C181.209 -158.066 198.453 -109.4 210.129 -50.7416C233.478 66.5706 234.532 223.73 207.735 392.921C180.937 562.112 131.37 711.254 72.9122 815.609C43.6819 867.788 12.2432 908.744 -19.6609 935.414C-51.5661 962.085 -83.8818 974.427 -114.902 969.514Z" stroke="url(#paint1_linear_4114_7437)" stroke-opacity="0.52" stroke-width="1.06897"/>
<path opacity="0.103448" d="M-174.843 922.133C-205.495 915.618 -231.26 892.939 -251.585 857.363C-271.909 821.789 -286.756 773.375 -295.583 715.525C-313.236 599.829 -306.788 446.514 -272.034 283.011C-237.281 119.509 -180.812 -23.1747 -117.628 -121.688C-86.0346 -170.946 -52.7788 -209.136 -19.7423 -233.368C13.2946 -257.601 46.0572 -267.84 76.7086 -261.324C107.36 -254.809 133.126 -232.13 153.45 -196.555C173.774 -160.98 188.622 -112.566 197.449 -54.7163C215.101 60.9793 208.653 214.295 173.9 377.797C139.146 541.3 82.6776 683.983 19.4934 782.497C-12.0998 831.755 -45.3557 869.944 -78.3921 894.177C-111.429 918.409 -144.192 928.648 -174.843 922.133Z" stroke="url(#paint2_linear_4114_7437)" stroke-opacity="0.52" stroke-width="1.10345"/>
<path opacity="0.137931" d="M-230.419 872.342C-260.619 864.25 -285.204 840.675 -303.775 804.837C-322.345 768.999 -334.87 720.951 -340.964 664.044C-353.151 550.232 -339.605 401.105 -297.415 243.649C-255.225 86.1929 -192.392 -49.7286 -124.932 -142.198C-91.2006 -188.435 -56.3304 -223.783 -22.3287 -245.534C11.6727 -267.285 44.7514 -275.41 74.9517 -267.317C105.152 -259.225 129.737 -235.65 148.307 -199.812C166.878 -163.974 179.403 -115.927 185.496 -59.0193C197.684 54.7921 184.138 203.92 141.948 361.376C99.7576 518.832 36.9249 654.753 -30.5355 747.223C-64.2669 793.459 -99.1371 828.807 -133.139 850.559C-167.14 872.31 -200.219 880.434 -230.419 872.342Z" stroke="url(#paint3_linear_4114_7437)" stroke-opacity="0.52" stroke-width="1.13793"/>
<path opacity="0.172414" d="M-281.533 820.451C-311.201 810.811 -334.582 786.4 -351.427 750.383C-368.271 714.366 -378.551 666.793 -382.034 610.951C-389.001 499.272 -368.775 354.645 -319.682 203.555C-270.59 52.4654 -201.944 -76.4288 -130.665 -162.685C-95.024 -205.814 -58.7448 -238.259 -23.9463 -257.497C10.8511 -276.734 44.1149 -282.74 73.7836 -273.1C103.452 -263.46 126.833 -239.049 143.677 -203.033C160.522 -167.015 170.802 -119.442 174.285 -63.6004C181.251 48.079 161.025 192.706 111.933 343.796C62.8412 494.885 -5.80522 623.78 -77.0845 710.036C-112.725 753.165 -149.004 785.61 -183.803 804.848C-218.6 824.085 -251.864 830.091 -281.533 820.451Z" stroke="url(#paint4_linear_4114_7437)" stroke-opacity="0.52" stroke-width="1.17241"/>
<path opacity="0.206897" d="M-328.107 766.775C-357.165 755.62 -379.322 730.434 -394.472 694.318C-409.622 658.201 -417.74 611.203 -418.74 556.541C-420.739 447.222 -394.264 307.376 -338.817 162.933C-283.371 18.4893 -209.471 -103.151 -134.836 -183.054C-97.5172 -223.006 -60.0364 -252.501 -24.6102 -269.204C10.814 -285.906 44.1328 -289.797 73.1911 -278.642C102.249 -267.488 124.406 -242.302 139.556 -206.186C154.706 -170.069 162.824 -123.071 163.824 -68.4091C165.823 40.9106 139.348 180.756 83.9014 325.199C28.4547 469.643 -45.4452 591.283 -120.08 671.186C-157.399 711.139 -194.88 740.633 -230.306 757.336C-265.73 774.038 -299.049 777.929 -328.107 766.775Z" stroke="url(#paint5_linear_4114_7437)" stroke-opacity="0.52" stroke-width="1.2069"/>
<path opacity="0.241379" d="M-370.085 711.629C-398.456 698.997 -419.372 673.095 -432.862 636.957C-446.353 600.817 -452.397 554.487 -451.045 501.109C-448.341 394.355 -416.058 259.54 -354.814 121.984C-293.57 -15.5731 -214.984 -129.773 -137.46 -203.214C-98.6969 -239.936 -60.2228 -266.445 -24.338 -280.602C11.544 -294.758 44.7884 -296.547 73.1596 -283.915C101.531 -271.283 122.446 -245.381 135.936 -209.244C149.427 -173.103 155.471 -126.773 154.119 -73.3949C151.415 33.3584 119.132 168.174 57.8882 305.73C-3.35598 443.287 -81.9421 557.487 -159.466 630.928C-198.229 667.65 -236.703 694.159 -272.588 708.316C-308.47 722.472 -341.714 724.261 -370.085 711.629Z" stroke="url(#paint6_linear_4114_7437)" stroke-opacity="0.52" stroke-width="1.24138"/>
<path opacity="0.275862" d="M-407.432 655.331C-435.041 641.264 -454.701 614.705 -466.57 578.618C-478.44 542.527 -482.5 496.95 -478.932 444.949C-471.796 340.948 -434.156 211.378 -367.678 80.9086C-301.201 -49.5604 -218.501 -156.171 -138.557 -223.075C-98.5844 -256.527 -59.3253 -280.032 -23.1503 -291.642C13.0211 -303.252 46.0634 -302.957 73.673 -288.89C101.283 -274.822 120.943 -248.263 132.811 -212.176C144.681 -176.085 148.742 -130.508 145.173 -78.5068C138.037 25.494 100.397 155.064 33.9197 285.533C-32.5576 416.002 -115.258 522.613 -195.202 589.517C-235.174 622.969 -274.433 646.474 -310.608 658.084C-346.78 669.694 -379.822 669.399 -407.432 655.331Z" stroke="url(#paint7_linear_4114_7437)" stroke-opacity="0.52" stroke-width="1.27586"/>
<path opacity="0.310345" d="M-440.131 598.199C-466.907 582.739 -485.3 555.583 -495.589 519.615C-505.879 483.643 -508.05 438.897 -502.404 388.354C-491.113 287.271 -448.571 163.128 -377.43 39.9074C-306.289 -83.3132 -220.049 -182.227 -138.153 -242.547C-97.2048 -272.708 -57.3683 -293.2 -21.0702 -302.275C15.2237 -311.348 47.9378 -308.998 74.7138 -293.539C101.49 -278.08 119.882 -250.924 130.171 -214.955C140.462 -178.983 142.633 -134.237 136.987 -83.6946C125.696 17.3889 83.1541 141.532 12.0127 264.752C-59.1288 387.973 -145.369 486.886 -227.264 547.207C-268.213 577.367 -308.049 597.86 -344.347 606.935C-380.641 616.008 -413.355 613.658 -440.131 598.199Z" stroke="url(#paint8_linear_4114_7437)" stroke-opacity="0.52" stroke-width="1.31034"/>
<path opacity="0.344828" d="M-468.188 540.545C-519.936 506.94 -536.656 429.709 -521.481 331.617C-506.318 233.594 -459.334 115.028 -384.1 -0.822991C-308.865 -116.674 -219.659 -207.821 -136.279 -261.543C-52.8395 -315.303 24.5151 -331.442 76.263 -297.836C128.011 -264.231 144.73 -186.999 129.556 -88.908C114.392 9.1148 67.409 127.681 -7.82573 243.532C-83.0604 359.383 -172.266 450.53 -255.647 504.252C-339.086 558.012 -416.44 574.151 -468.188 540.545Z" stroke="url(#paint9_linear_4114_7437)" stroke-opacity="0.52" stroke-width="1.34483"/>
<path opacity="0.37931" d="M-491.628 482.684C-541.434 446.497 -554.965 369.928 -536.202 275.025C-517.451 180.185 -466.488 67.3118 -387.73 -41.0887C-308.973 -149.489 -217.372 -232.838 -132.969 -279.978C-48.5088 -327.15 28.4945 -337.942 78.3004 -301.756C128.106 -265.57 141.637 -189 122.874 -94.0976C104.123 0.742336 53.16 113.616 -25.5976 222.016C-104.355 330.417 -195.956 413.765 -280.359 460.906C-364.819 508.077 -441.822 518.87 -491.628 482.684Z" stroke="url(#paint10_linear_4114_7437)" stroke-opacity="0.52" stroke-width="1.37931"/>
<path opacity="0.413793" d="M-510.496 424.921C-558.233 386.265 -568.688 310.474 -546.623 218.861C-524.573 127.305 -470.09 20.2078 -388.377 -80.6997C-306.664 -181.607 -213.235 -257.165 -128.264 -297.77C-43.2402 -338.399 33.0679 -343.931 80.8045 -305.275C128.541 -266.618 138.996 -190.828 116.931 -99.2147C94.8808 -7.65848 40.3987 99.4386 -41.3146 200.346C-123.028 301.254 -216.457 376.812 -301.428 417.416C-386.452 458.046 -462.76 463.577 -510.496 424.921Z" stroke="url(#paint11_linear_4114_7437)" stroke-opacity="0.52" stroke-width="1.41379"/>
<path opacity="0.448276" d="M-524.856 367.56C-570.403 326.55 -577.896 251.646 -552.819 163.402C-527.756 75.2099 -470.214 -26.0598 -386.107 -119.471C-301.999 -212.881 -207.299 -280.694 -122.209 -314.838C-37.0705 -349.002 38.2064 -349.379 83.7527 -308.369C129.299 -267.359 136.793 -192.455 111.715 -104.211C86.6526 -16.0188 29.1104 85.2509 -54.9971 178.662C-139.105 272.072 -233.805 339.885 -318.894 374.029C-404.033 408.193 -479.31 408.57 -524.856 367.56Z" stroke="url(#paint12_linear_4114_7437)" stroke-opacity="0.52" stroke-width="1.44828"/>
<path opacity="0.482759" d="M-534.792 310.896C-578.033 267.654 -582.684 193.735 -554.881 108.92C-527.093 24.1502 -466.944 -71.2728 -380.996 -157.221C-295.048 -243.169 -199.625 -303.318 -114.854 -331.106C-30.0396 -358.909 43.8797 -354.258 87.121 -311.017C130.362 -267.775 135.013 -193.856 107.21 -109.041C79.4219 -24.2712 19.2736 71.1518 -66.6747 157.1C-152.623 243.048 -248.046 303.197 -332.816 330.985C-417.631 358.788 -491.55 354.137 -534.792 310.896Z" stroke="url(#paint13_linear_4114_7437)" stroke-opacity="0.52" stroke-width="1.48276"/>
<path opacity="0.517241" d="M-540.404 255.217C-581.233 209.872 -583.16 137.025 -552.917 55.6775C-522.687 -25.6319 -460.38 -115.22 -373.134 -193.777C-285.887 -272.334 -190.277 -324.935 -106.253 -346.5C-22.1899 -368.075 50.0562 -358.543 90.8848 -313.198C131.713 -267.854 133.641 -195.007 103.397 -113.659C73.1679 -32.3499 10.8606 57.2382 -76.3857 135.795C-163.632 214.352 -259.242 266.953 -343.266 288.518C-427.329 310.093 -499.575 300.561 -540.404 255.217Z" stroke="url(#paint14_linear_4114_7437)" stroke-opacity="0.52" stroke-width="1.51724"/>
<path opacity="0.551724" d="M-541.813 200.801C-580.128 153.486 -579.454 81.7905 -547.051 3.92799C-514.66 -73.9021 -450.633 -157.698 -362.618 -228.97C-274.604 -300.243 -179.328 -345.449 -96.464 -360.95C-13.5659 -376.457 56.703 -362.209 95.018 -314.894C133.333 -267.579 132.659 -195.884 100.256 -118.021C67.8655 -40.1911 3.83767 43.6043 -84.1766 114.877C-172.191 186.149 -267.467 231.356 -350.331 246.856C-433.229 262.363 -503.498 248.116 -541.813 200.801Z" stroke="url(#paint15_linear_4114_7437)" stroke-opacity="0.52" stroke-width="1.55172"/>
<path opacity="0.586207" d="M-539.155 147.918C-574.863 98.7706 -571.709 28.2952 -537.422 -46.0836C-503.147 -120.436 -437.826 -198.51 -349.559 -262.64C-261.291 -326.77 -166.853 -364.767 -85.5484 -374.389C-4.21459 -384.014 63.7861 -365.235 99.494 -316.087C135.202 -266.94 132.048 -196.464 97.7608 -122.085C63.4856 -47.7331 -1.83497 30.3412 -90.1023 94.4712C-178.37 158.601 -272.808 196.598 -354.113 206.22C-435.447 215.845 -503.447 197.066 -539.155 147.918Z" stroke="url(#paint16_linear_4114_7437)" stroke-opacity="0.52" stroke-width="1.58621"/>
<path opacity="0.62069" d="M-532.584 96.8265C-565.599 45.9881 -560.087 -23.2078 -524.185 -94.1234C-488.294 -165.018 -422.096 -237.471 -334.073 -294.634C-246.05 -351.797 -152.936 -382.802 -73.5723 -386.755C5.81498 -390.709 71.2704 -367.599 104.285 -316.761C137.3 -265.923 131.788 -196.727 95.8866 -125.811C59.9954 -54.9166 -6.2027 17.5367 -94.2254 74.6993C-182.248 131.862 -275.363 162.867 -354.726 166.82C-434.114 170.774 -499.569 147.665 -532.584 96.8265Z" stroke="url(#paint17_linear_4114_7437)" stroke-opacity="0.52" stroke-width="1.62069"/>
<path opacity="0.655172" d="M-522.268 47.7713C-552.511 -4.61171 -544.763 -72.4779 -507.508 -139.969C-470.263 -207.445 -403.588 -274.404 -316.288 -324.807C-228.989 -375.209 -137.662 -399.471 -60.6045 -397.989C16.4719 -396.507 79.12 -369.284 109.363 -316.901C139.607 -264.518 131.858 -196.652 94.6039 -129.16C57.3584 -61.6852 -9.31627 5.27454 -96.616 55.6771C-183.916 106.08 -275.242 130.342 -352.3 128.86C-429.376 127.377 -492.024 100.154 -522.268 47.7713Z" stroke="url(#paint18_linear_4114_7437)" stroke-opacity="0.52" stroke-width="1.65517"/>
<path opacity="0.689655" d="M-508.391 0.986066C-535.792 -52.7921 -525.927 -119.287 -487.573 -183.411C-449.226 -247.523 -382.46 -309.143 -296.34 -353.023C-210.22 -396.903 -121.125 -414.699 -46.7174 -408.038C27.7036 -401.376 87.2981 -370.272 114.699 -316.494C142.101 -262.716 132.235 -196.221 93.8816 -132.097C55.5347 -67.9848 -11.2317 -6.3654 -97.3513 37.5147C-183.471 81.3948 -272.566 99.191 -346.974 92.53C-421.395 85.8679 -480.989 54.7643 -508.391 0.986066Z" stroke="url(#paint19_linear_4114_7437)" stroke-opacity="0.52" stroke-width="1.68966"/>
<path opacity="0.724138" d="M-491.15 -43.3098C-515.647 -98.3306 -503.782 -163.422 -464.572 -224.252C-425.367 -285.074 -358.876 -341.531 -274.371 -379.155C-189.866 -416.779 -103.419 -428.414 -31.9861 -416.852C39.4557 -405.287 95.7671 -370.55 120.264 -315.529C144.761 -260.508 132.896 -195.416 93.6862 -134.587C54.4811 -73.7651 -12.0098 -17.3078 -96.5151 20.3164C-181.02 57.9405 -267.467 69.5756 -338.9 58.0129C-410.342 46.4487 -466.653 11.7109 -491.15 -43.3098Z" stroke="url(#paint20_linear_4114_7437)" stroke-opacity="0.52" stroke-width="1.72414"/>
<path opacity="0.758621" d="M-470.757 -84.9116C-492.295 -141.02 -478.547 -204.684 -438.713 -262.308C-398.881 -319.929 -333.014 -371.425 -250.532 -403.087C-168.051 -434.748 -84.6442 -440.553 -16.4883 -424.385C51.6726 -408.216 104.489 -370.103 126.027 -313.995C147.564 -257.887 133.817 -194.223 93.9824 -136.599C54.1513 -78.9783 -11.7159 -27.4819 -94.1976 4.1798C-176.679 35.8415 -260.086 41.646 -328.242 25.478C-396.403 9.30881 -449.219 -28.8036 -470.757 -84.9116Z" stroke="url(#paint21_linear_4114_7437)" stroke-opacity="0.52" stroke-width="1.75862"/>
<path opacity="0.793103" d="M-447.433 -123.63C-465.966 -180.667 -450.447 -242.888 -410.209 -297.412C-369.972 -351.934 -305.056 -398.693 -224.981 -424.711C-144.906 -450.729 -64.9041 -451.057 -0.304267 -430.598C64.2975 -410.138 113.425 -368.923 131.957 -311.885C150.49 -254.847 134.971 -192.627 94.733 -138.103C54.4961 -83.5806 -10.4197 -36.8222 -90.4947 -10.8042C-170.57 15.2138 -250.572 15.542 -315.172 -4.91699C-379.773 -25.3765 -428.9 -66.5921 -447.433 -123.63Z" stroke="url(#paint22_linear_4114_7437)" stroke-opacity="0.52" stroke-width="1.7931"/>
<path opacity="0.827586" d="M-421.413 -159.291C-436.902 -217.099 -419.722 -277.867 -379.287 -329.409C-338.852 -380.951 -275.193 -423.214 -197.88 -443.93C-120.567 -464.646 -44.305 -459.874 16.4839 -435.455C77.2724 -411.036 122.535 -366.999 138.025 -309.192C153.514 -251.384 136.334 -190.615 95.8991 -139.074C55.464 -87.5314 -8.19458 -45.268 -85.5079 -24.5519C-162.821 -3.8359 -239.083 -8.60779 -299.872 -33.0271C-360.66 -57.4463 -405.923 -101.483 -421.413 -159.291Z" stroke="url(#paint23_linear_4114_7437)" stroke-opacity="0.52" stroke-width="1.82759"/>
<path opacity="0.862069" d="M-392.939 -191.738C-417.767 -308.543 -317.937 -429.087 -169.398 -460.66C-20.8586 -492.233 119.371 -422.715 144.199 -305.91C169.026 -189.105 69.1958 -68.5602 -79.3432 -36.9872C-227.882 -5.41433 -368.112 -74.9325 -392.939 -191.738Z" stroke="url(#paint24_linear_4114_7437)" stroke-opacity="0.52" stroke-width="1.86207"/>
<path opacity="0.0344828" d="M1369.29 213.183C1337.98 216.474 1309.93 237.182 1286.04 271.967C1262.14 306.749 1242.43 355.546 1227.8 414.87C1198.53 533.512 1189.59 694.139 1207.93 868.623C1226.27 1043.11 1268.41 1198.36 1321.7 1308.33C1348.35 1363.31 1377.77 1406.95 1408.38 1436C1438.99 1465.06 1470.73 1479.48 1502.03 1476.19C1533.34 1472.9 1561.38 1452.19 1585.28 1417.41C1609.18 1382.63 1628.89 1333.83 1643.52 1274.51C1672.79 1155.86 1681.73 995.236 1663.39 820.752C1645.05 646.269 1602.91 491.01 1549.61 381.045C1522.97 326.061 1493.54 282.427 1462.94 253.373C1432.33 224.318 1400.59 209.893 1369.29 213.183Z" stroke="url(#paint25_linear_4114_7437)" stroke-opacity="0.52" stroke-width="1.03448"/>
<path opacity="0.0689655" d="M1305.1 257.847C1274.08 262.76 1247.16 284.484 1225.06 319.709C1202.95 354.932 1185.71 403.599 1174.03 462.257C1150.69 579.569 1149.63 736.729 1176.43 905.92C1203.23 1075.11 1252.79 1224.25 1311.25 1328.61C1340.48 1380.79 1371.92 1421.74 1403.82 1448.41C1435.73 1475.08 1468.05 1487.43 1499.07 1482.51C1530.09 1477.6 1557.01 1455.88 1579.11 1420.65C1601.21 1385.43 1618.45 1336.76 1630.13 1278.1C1653.48 1160.79 1654.53 1003.63 1627.73 834.44C1600.94 665.249 1551.37 516.107 1492.91 411.752C1463.68 359.572 1432.24 318.617 1400.34 291.947C1368.43 265.276 1336.12 252.934 1305.1 257.847Z" stroke="url(#paint26_linear_4114_7437)" stroke-opacity="0.52" stroke-width="1.06897"/>
<path opacity="0.103448" d="M1245.16 305.228C1214.51 311.743 1188.74 334.422 1168.42 369.997C1148.09 405.572 1133.24 453.986 1124.42 511.836C1106.76 627.531 1113.21 780.847 1147.97 944.349C1182.72 1107.85 1239.19 1250.54 1302.37 1349.05C1333.97 1398.31 1367.22 1436.5 1400.26 1460.73C1433.29 1484.96 1466.06 1495.2 1496.71 1488.68C1527.36 1482.17 1553.13 1459.49 1573.45 1423.92C1593.77 1388.34 1608.62 1339.93 1617.45 1282.08C1635.1 1166.38 1628.65 1013.07 1593.9 849.563C1559.15 686.061 1502.68 543.377 1439.49 444.864C1407.9 395.606 1374.64 357.416 1341.61 333.184C1308.57 308.951 1275.81 298.712 1245.16 305.228Z" stroke="url(#paint27_linear_4114_7437)" stroke-opacity="0.52" stroke-width="1.10345"/>
<path opacity="0.137931" d="M1189.58 355.019C1159.38 363.111 1134.8 386.686 1116.23 422.524C1097.65 458.362 1085.13 506.409 1079.04 563.317C1066.85 677.128 1080.39 826.256 1122.58 983.712C1164.77 1141.17 1227.61 1277.09 1295.07 1369.56C1328.8 1415.8 1363.67 1451.14 1397.67 1472.89C1431.67 1494.65 1464.75 1502.77 1494.95 1494.68C1525.15 1486.59 1549.74 1463.01 1568.31 1427.17C1586.88 1391.33 1599.4 1343.29 1605.5 1286.38C1617.68 1172.57 1604.14 1023.44 1561.95 865.985C1519.76 708.529 1456.92 572.608 1389.46 480.138C1355.73 433.901 1320.86 398.554 1286.86 376.802C1252.86 355.051 1219.78 346.927 1189.58 355.019Z" stroke="url(#paint28_linear_4114_7437)" stroke-opacity="0.52" stroke-width="1.13793"/>
<path opacity="0.172414" d="M1138.47 406.91C1108.8 416.55 1085.42 440.96 1068.57 476.977C1051.73 512.995 1041.45 560.568 1037.97 616.409C1031 728.089 1051.23 872.716 1100.32 1023.81C1149.41 1174.9 1218.06 1303.79 1289.34 1390.05C1324.98 1433.17 1361.26 1465.62 1396.05 1484.86C1430.85 1504.09 1464.11 1510.1 1493.78 1500.46C1523.45 1490.82 1546.83 1466.41 1563.68 1430.39C1580.52 1394.38 1590.8 1346.8 1594.29 1290.96C1601.25 1179.28 1581.03 1034.65 1531.93 883.565C1482.84 732.475 1414.19 603.581 1342.92 517.325C1307.27 474.196 1271 441.751 1236.2 422.513C1201.4 403.275 1168.14 397.27 1138.47 406.91Z" stroke="url(#paint29_linear_4114_7437)" stroke-opacity="0.52" stroke-width="1.17241"/>
<path opacity="0.206897" d="M1091.89 460.586C1062.83 471.74 1040.68 496.927 1025.53 533.042C1010.38 569.16 1002.26 616.158 1001.26 670.819C999.261 780.139 1025.74 919.984 1081.18 1064.43C1136.63 1208.87 1210.53 1330.51 1285.16 1410.41C1322.48 1450.37 1359.96 1479.86 1395.39 1496.56C1430.81 1513.27 1464.13 1517.16 1493.19 1506C1522.25 1494.85 1544.41 1469.66 1559.56 1433.55C1574.71 1397.43 1582.82 1350.43 1583.82 1295.77C1585.82 1186.45 1559.35 1046.6 1503.9 902.161C1448.45 757.718 1374.55 636.077 1299.92 556.175C1262.6 516.222 1225.12 486.728 1189.69 470.025C1154.27 453.323 1120.95 449.432 1091.89 460.586Z" stroke="url(#paint30_linear_4114_7437)" stroke-opacity="0.52" stroke-width="1.2069"/>
<path opacity="0.241379" d="M1049.91 515.732C1021.54 528.363 1000.63 554.266 987.138 590.403C973.647 626.544 967.603 672.874 968.955 726.252C971.659 833.005 1003.94 967.821 1065.19 1105.38C1126.43 1242.93 1205.02 1357.13 1282.54 1430.57C1321.3 1467.3 1359.78 1493.81 1395.66 1507.96C1431.54 1522.12 1464.79 1523.91 1493.16 1511.28C1521.53 1498.64 1542.45 1472.74 1555.94 1436.6C1569.43 1400.46 1575.47 1354.13 1574.12 1300.76C1571.41 1194 1539.13 1059.19 1477.89 921.63C1416.64 784.074 1338.06 669.874 1260.53 596.433C1221.77 559.711 1183.3 533.201 1147.41 519.044C1111.53 504.889 1078.29 503.1 1049.91 515.732Z" stroke="url(#paint31_linear_4114_7437)" stroke-opacity="0.52" stroke-width="1.24138"/>
<path opacity="0.275862" d="M1012.57 572.029C984.959 586.097 965.299 612.656 953.43 648.743C941.56 684.834 937.5 730.41 941.068 782.412C948.204 886.413 985.844 1015.98 1052.32 1146.45C1118.8 1276.92 1201.5 1383.53 1281.44 1450.44C1321.42 1483.89 1360.67 1507.39 1396.85 1519C1433.02 1530.61 1466.06 1530.32 1493.67 1516.25C1521.28 1502.18 1540.94 1475.62 1552.81 1439.54C1564.68 1403.45 1568.74 1357.87 1565.17 1305.87C1558.04 1201.87 1520.4 1072.3 1453.92 941.827C1387.44 811.358 1304.74 704.747 1224.8 637.844C1184.83 604.391 1145.57 580.887 1109.39 569.276C1073.22 557.667 1040.18 557.961 1012.57 572.029Z" stroke="url(#paint32_linear_4114_7437)" stroke-opacity="0.52" stroke-width="1.27586"/>
<path opacity="0.310345" d="M979.869 629.162C953.093 644.621 934.7 671.777 924.411 707.745C914.121 743.718 911.95 788.464 917.596 839.006C928.887 940.09 971.429 1064.23 1042.57 1187.45C1113.71 1310.67 1199.95 1409.59 1281.85 1469.91C1322.8 1500.07 1362.63 1520.56 1398.93 1529.64C1435.22 1538.71 1467.94 1536.36 1494.71 1520.9C1521.49 1505.44 1539.88 1478.28 1550.17 1442.32C1560.46 1406.34 1562.63 1361.6 1556.99 1311.06C1545.7 1209.97 1503.15 1085.83 1432.01 962.608C1360.87 839.388 1274.63 740.474 1192.74 680.154C1151.79 649.993 1111.95 629.501 1075.65 620.426C1039.36 611.353 1006.64 613.703 979.869 629.162Z" stroke="url(#paint33_linear_4114_7437)" stroke-opacity="0.52" stroke-width="1.31034"/>
<path opacity="0.344828" d="M951.812 686.815C900.064 720.421 883.344 797.652 898.519 895.743C913.682 993.766 960.666 1112.33 1035.9 1228.18C1111.14 1344.03 1200.34 1435.18 1283.72 1488.9C1367.16 1542.66 1444.52 1558.8 1496.26 1525.2C1548.01 1491.59 1564.73 1414.36 1549.56 1316.27C1534.39 1218.25 1487.41 1099.68 1412.17 983.828C1336.94 867.977 1247.73 776.831 1164.35 723.108C1080.91 669.349 1003.56 653.21 951.812 686.815Z" stroke="url(#paint34_linear_4114_7437)" stroke-opacity="0.52" stroke-width="1.34483"/>
<path opacity="0.37931" d="M928.372 744.677C878.566 780.863 865.035 857.433 883.798 952.336C902.549 1047.18 953.512 1160.05 1032.27 1268.45C1111.03 1376.85 1202.63 1460.2 1287.03 1507.34C1371.49 1554.51 1448.49 1565.3 1498.3 1529.12C1548.11 1492.93 1561.64 1416.36 1542.87 1321.46C1524.12 1226.62 1473.16 1113.74 1394.4 1005.34C1315.64 896.944 1224.04 813.595 1139.64 766.455C1055.18 719.284 978.178 708.491 928.372 744.677Z" stroke="url(#paint35_linear_4114_7437)" stroke-opacity="0.52" stroke-width="1.37931"/>
<path opacity="0.413793" d="M909.504 802.44C861.767 841.096 851.312 916.887 873.377 1008.5C895.427 1100.06 949.91 1207.15 1031.62 1308.06C1113.34 1408.97 1206.77 1484.53 1291.74 1525.13C1376.76 1565.76 1453.07 1571.29 1500.8 1532.64C1548.54 1493.98 1559 1418.19 1536.93 1326.58C1514.88 1235.02 1460.4 1127.92 1378.69 1027.01C1296.97 926.107 1203.54 850.549 1118.57 809.944C1033.55 769.315 957.24 763.783 909.504 802.44Z" stroke="url(#paint36_linear_4114_7437)" stroke-opacity="0.52" stroke-width="1.41379"/>
<path opacity="0.448276" d="M895.144 859.801C849.597 900.811 842.104 975.715 867.181 1063.96C892.244 1152.15 949.786 1253.42 1033.89 1346.83C1118 1440.24 1212.7 1508.05 1297.79 1542.2C1382.93 1576.36 1458.21 1576.74 1503.75 1535.73C1549.3 1494.72 1556.79 1419.82 1531.72 1331.57C1506.65 1243.38 1449.11 1142.11 1365 1048.7C1280.9 955.288 1186.2 887.476 1101.11 853.331C1015.97 819.168 940.69 818.791 895.144 859.801Z" stroke="url(#paint37_linear_4114_7437)" stroke-opacity="0.52" stroke-width="1.44828"/>
<path opacity="0.482759" d="M885.208 916.465C841.967 959.707 837.316 1033.63 865.119 1118.44C892.907 1203.21 953.056 1298.63 1039 1384.58C1124.95 1470.53 1220.38 1530.68 1305.15 1558.47C1389.96 1586.27 1463.88 1581.62 1507.12 1538.38C1550.36 1495.14 1555.01 1421.22 1527.21 1336.4C1499.42 1251.63 1439.27 1156.21 1353.33 1070.26C1267.38 984.313 1171.95 924.164 1087.18 896.376C1002.37 868.573 928.45 873.224 885.208 916.465Z" stroke="url(#paint38_linear_4114_7437)" stroke-opacity="0.52" stroke-width="1.48276"/>
<path opacity="0.517241" d="M879.596 972.145C838.767 1017.49 836.84 1090.34 867.083 1171.68C897.313 1252.99 959.62 1342.58 1046.87 1421.14C1134.11 1499.69 1229.72 1552.3 1313.75 1573.86C1397.81 1595.44 1470.06 1585.9 1510.88 1540.56C1551.71 1495.21 1553.64 1422.37 1523.4 1341.02C1493.17 1259.71 1430.86 1170.12 1343.61 1091.57C1256.37 1013.01 1160.76 960.408 1076.73 938.843C992.671 917.268 920.425 926.8 879.596 972.145Z" stroke="url(#paint39_linear_4114_7437)" stroke-opacity="0.52" stroke-width="1.51724"/>
<path opacity="0.551724" d="M878.187 1026.56C839.872 1073.88 840.546 1145.57 872.949 1223.43C905.34 1301.26 969.367 1385.06 1057.38 1456.33C1145.4 1527.6 1240.67 1572.81 1323.54 1588.31C1406.43 1603.82 1476.7 1589.57 1515.02 1542.26C1553.33 1494.94 1552.66 1423.24 1520.26 1345.38C1487.87 1267.55 1423.84 1183.76 1335.82 1112.48C1247.81 1041.21 1152.53 996.005 1069.67 980.505C986.771 964.998 916.502 979.245 878.187 1026.56Z" stroke="url(#paint40_linear_4114_7437)" stroke-opacity="0.52" stroke-width="1.55172"/>
<path opacity="0.586207" d="M880.845 1079.44C845.137 1128.59 848.291 1199.07 882.578 1273.44C916.853 1347.8 982.174 1425.87 1070.44 1490C1158.71 1554.13 1253.15 1592.13 1334.45 1601.75C1415.79 1611.37 1483.79 1592.6 1519.49 1543.45C1555.2 1494.3 1552.05 1423.83 1517.76 1349.45C1483.49 1275.09 1418.17 1197.02 1329.9 1132.89C1241.63 1068.76 1147.19 1030.76 1065.89 1021.14C984.553 1011.52 916.553 1030.29 880.845 1079.44Z" stroke="url(#paint41_linear_4114_7437)" stroke-opacity="0.52" stroke-width="1.58621"/>
<path opacity="0.62069" d="M887.416 1130.53C854.401 1181.37 859.913 1250.57 895.815 1321.48C931.706 1392.38 997.904 1464.83 1085.93 1521.99C1173.95 1579.16 1267.06 1610.16 1346.43 1614.12C1425.81 1618.07 1491.27 1594.96 1524.29 1544.12C1557.3 1493.28 1551.79 1424.09 1515.89 1353.17C1480 1282.28 1413.8 1209.82 1325.77 1152.66C1237.75 1095.5 1144.64 1064.49 1065.27 1060.54C985.886 1056.59 920.431 1079.7 887.416 1130.53Z" stroke="url(#paint42_linear_4114_7437)" stroke-opacity="0.52" stroke-width="1.62069"/>
</g>
</g>
<defs>
<filter id="filter0_f_4114_7437" x="-1081.55" y="643.45" width="2087.96" height="1774.2" filterUnits="userSpaceOnUse" color-interpolation-filters="sRGB">
<feFlood flood-opacity="0" result="BackgroundImageFix"/>
<feBlend mode="normal" in="SourceGraphic" in2="BackgroundImageFix" result="shape"/>
<feGaussianBlur stdDeviation="221.775" result="effect1_foregroundBlur_4114_7437"/>
</filter>
<filter id="filter1_f_4114_7437" x="729.45" y="938.45" width="2087.96" height="1774.2" filterUnits="userSpaceOnUse" color-interpolation-filters="sRGB">
<feFlood flood-opacity="0" result="BackgroundImageFix"/>
<feBlend mode="normal" in="SourceGraphic" in2="BackgroundImageFix" result="shape"/>
<feGaussianBlur stdDeviation="221.775" result="effect1_foregroundBlur_4114_7437"/>
</filter>
<filter id="filter2_f_4114_7437" x="729.45" y="4033.45" width="2087.96" height="1774.2" filterUnits="userSpaceOnUse" color-interpolation-filters="sRGB">
<feFlood flood-opacity="0" result="BackgroundImageFix"/>
<feBlend mode="normal" in="SourceGraphic" in2="BackgroundImageFix" result="shape"/>
<feGaussianBlur stdDeviation="221.775" result="effect1_foregroundBlur_4114_7437"/>
</filter>
<filter id="filter3_f_4114_7437" x="-404.55" y="5083.45" width="2087.96" height="1774.2" filterUnits="userSpaceOnUse" color-interpolation-filters="sRGB">
<feFlood flood-opacity="0" result="BackgroundImageFix"/>
<feBlend mode="normal" in="SourceGraphic" in2="BackgroundImageFix" result="shape"/>
<feGaussianBlur stdDeviation="221.775" result="effect1_foregroundBlur_4114_7437"/>
</filter>
<filter id="filter4_f_4114_7437" x="-845.55" y="1863.45" width="2087.96" height="1774.2" filterUnits="userSpaceOnUse" color-interpolation-filters="sRGB">
<feFlood flood-opacity="0" result="BackgroundImageFix"/>
<feBlend mode="normal" in="SourceGraphic" in2="BackgroundImageFix" result="shape"/>
<feGaussianBlur stdDeviation="221.775" result="effect1_foregroundBlur_4114_7437"/>
</filter>
<filter id="filter5_f_4114_7437" x="34.4498" y="2559.45" width="2087.96" height="1774.2" filterUnits="userSpaceOnUse" color-interpolation-filters="sRGB">
<feFlood flood-opacity="0" result="BackgroundImageFix"/>
<feBlend mode="normal" in="SourceGraphic" in2="BackgroundImageFix" result="shape"/>
<feGaussianBlur stdDeviation="221.775" result="effect1_foregroundBlur_4114_7437"/>
</filter>
<filter id="filter6_f_4114_7437" x="-524.55" y="3273.45" width="2087.96" height="1774.2" filterUnits="userSpaceOnUse" color-interpolation-filters="sRGB">
<feFlood flood-opacity="0" result="BackgroundImageFix"/>
<feBlend mode="normal" in="SourceGraphic" in2="BackgroundImageFix" result="shape"/>
<feGaussianBlur stdDeviation="221.775" result="effect1_foregroundBlur_4114_7437"/>
</filter>
<pattern id="pattern0_4114_7437" patternContentUnits="objectBoundingBox" width="1" height="1">
<use xlink:href="#image0_4114_7437" transform="scale(0.000545256 0.00109649)"/>
</pattern>
<pattern id="pattern1_4114_7437" patternContentUnits="objectBoundingBox" width="1" height="1">
<use xlink:href="#image0_4114_7437" transform="scale(0.000545256 0.00109649)"/>
</pattern>
<pattern id="pattern2_4114_7437" patternContentUnits="objectBoundingBox" width="1" height="1">
<use xlink:href="#image0_4114_7437" transform="scale(0.000545256 0.00109649)"/>
</pattern>
<pattern id="pattern3_4114_7437" patternContentUnits="objectBoundingBox" width="1" height="1">
<use xlink:href="#image0_4114_7437" transform="scale(0.000545256 0.00109649)"/>
</pattern>
<filter id="filter7_f_4114_7437" x="-257.5" y="-1165.5" width="2389" height="2030" filterUnits="userSpaceOnUse" color-interpolation-filters="sRGB">
<feFlood flood-opacity="0" result="BackgroundImageFix"/>
<feBlend mode="normal" in="SourceGraphic" in2="BackgroundImageFix" result="shape"/>
<feGaussianBlur stdDeviation="253.75" result="effect1_foregroundBlur_4114_7437"/>
</filter>
<filter id="filter8_f_4114_7437" x="-596.55" y="-1453.6" width="3067.1" height="2606.2" filterUnits="userSpaceOnUse" color-interpolation-filters="sRGB">
<feFlood flood-opacity="0" result="BackgroundImageFix"/>
<feBlend mode="normal" in="SourceGraphic" in2="BackgroundImageFix" result="shape"/>
<feGaussianBlur stdDeviation="325.775" result="effect1_foregroundBlur_4114_7437"/>
</filter>
<filter id="filter9_f_4114_7437" x="-878.55" y="151.45" width="2087.96" height="1774.2" filterUnits="userSpaceOnUse" color-interpolation-filters="sRGB">
<feFlood flood-opacity="0" result="BackgroundImageFix"/>
<feBlend mode="normal" in="SourceGraphic" in2="BackgroundImageFix" result="shape"/>
<feGaussianBlur stdDeviation="221.775" result="effect1_foregroundBlur_4114_7437"/>
</filter>
<filter id="filter10_f_4114_7437" x="1251.45" y="-160.55" width="2087.96" height="1774.2" filterUnits="userSpaceOnUse" color-interpolation-filters="sRGB">
<feFlood flood-opacity="0" result="BackgroundImageFix"/>
<feBlend mode="normal" in="SourceGraphic" in2="BackgroundImageFix" result="shape"/>
<feGaussianBlur stdDeviation="221.775" result="effect1_foregroundBlur_4114_7437"/>
</filter>
<linearGradient id="paint0_linear_4114_7437" x1="152.276" y1="840.329" x2="-396.898" y2="594.047" gradientUnits="userSpaceOnUse">
<stop stop-color="#05E9D8"/>
<stop offset="1" stop-color="#FF2A6D"/>
</linearGradient>
<linearGradient id="paint1_linear_4114_7437" x1="95.792" y1="811.019" x2="-435.642" y2="534.069" gradientUnits="userSpaceOnUse">
<stop stop-color="#05E9D8"/>
<stop offset="1" stop-color="#FF2A6D"/>
</linearGradient>
<linearGradient id="paint2_linear_4114_7437" x1="42.5071" y1="779.31" x2="-469.331" y2="472.813" gradientUnits="userSpaceOnUse">
<stop stop-color="#05E9D8"/>
<stop offset="1" stop-color="#FF2A6D"/>
</linearGradient>
<linearGradient id="paint3_linear_4114_7437" x1="-7.47211" y1="745.441" x2="-497.914" y2="410.636" gradientUnits="userSpaceOnUse">
<stop stop-color="#05E9D8"/>
<stop offset="1" stop-color="#FF2A6D"/>
</linearGradient>
<linearGradient id="paint4_linear_4114_7437" x1="-54.0554" y1="709.653" x2="-521.359" y2="347.898" gradientUnits="userSpaceOnUse">
<stop stop-color="#05E9D8"/>
<stop offset="1" stop-color="#FF2A6D"/>
</linearGradient>
<linearGradient id="paint5_linear_4114_7437" x1="-97.1688" y1="672.196" x2="-539.661" y2="284.962" gradientUnits="userSpaceOnUse">
<stop stop-color="#05E9D8"/>
<stop offset="1" stop-color="#FF2A6D"/>
</linearGradient>
<linearGradient id="paint6_linear_4114_7437" x1="-136.755" y1="633.316" x2="-552.834" y2="222.192" gradientUnits="userSpaceOnUse">
<stop stop-color="#05E9D8"/>
<stop offset="1" stop-color="#FF2A6D"/>
</linearGradient>
<linearGradient id="paint7_linear_4114_7437" x1="-172.773" y1="593.264" x2="-560.92" y2="159.953" gradientUnits="userSpaceOnUse">
<stop stop-color="#05E9D8"/>
<stop offset="1" stop-color="#FF2A6D"/>
</linearGradient>
<linearGradient id="paint8_linear_4114_7437" x1="-205.197" y1="552.291" x2="-563.981" y2="98.6075" gradientUnits="userSpaceOnUse">
<stop stop-color="#05E9D8"/>
<stop offset="1" stop-color="#FF2A6D"/>
</linearGradient>
<linearGradient id="paint9_linear_4114_7437" x1="-234.021" y1="510.645" x2="-562.105" y2="38.5176" gradientUnits="userSpaceOnUse">
<stop stop-color="#05E9D8"/>
<stop offset="1" stop-color="#FF2A6D"/>
</linearGradient>
<linearGradient id="paint10_linear_4114_7437" x1="-259.251" y1="468.575" x2="-555.404" y2="-19.9584" gradientUnits="userSpaceOnUse">
<stop stop-color="#05E9D8"/>
<stop offset="1" stop-color="#FF2A6D"/>
</linearGradient>
<linearGradient id="paint11_linear_4114_7437" x1="-280.912" y1="426.325" x2="-544.014" y2="-76.4662" gradientUnits="userSpaceOnUse">
<stop stop-color="#05E9D8"/>
<stop offset="1" stop-color="#FF2A6D"/>
</linearGradient>
<linearGradient id="paint12_linear_4114_7437" x1="-299.043" y1="384.137" x2="-528.096" y2="-130.657" gradientUnits="userSpaceOnUse">
<stop stop-color="#05E9D8"/>
<stop offset="1" stop-color="#FF2A6D"/>
</linearGradient>
<linearGradient id="paint13_linear_4114_7437" x1="-313.699" y1="342.246" x2="-507.837" y2="-182.187" gradientUnits="userSpaceOnUse">
<stop stop-color="#05E9D8"/>
<stop offset="1" stop-color="#FF2A6D"/>
</linearGradient>
<linearGradient id="paint14_linear_4114_7437" x1="-324.95" y1="300.883" x2="-483.448" y2="-230.722" gradientUnits="userSpaceOnUse">
<stop stop-color="#05E9D8"/>
<stop offset="1" stop-color="#FF2A6D"/>
</linearGradient>
<linearGradient id="paint15_linear_4114_7437" x1="-332.88" y1="260.271" x2="-455.168" y2="-275.934" gradientUnits="userSpaceOnUse">
<stop stop-color="#05E9D8"/>
<stop offset="1" stop-color="#FF2A6D"/>
</linearGradient>
<linearGradient id="paint16_linear_4114_7437" x1="-337.587" y1="220.629" x2="-423.263" y2="-317.507" gradientUnits="userSpaceOnUse">
<stop stop-color="#05E9D8"/>
<stop offset="1" stop-color="#FF2A6D"/>
</linearGradient>
<linearGradient id="paint17_linear_4114_7437" x1="-339.182" y1="182.162" x2="-388.027" y2="-355.136" gradientUnits="userSpaceOnUse">
<stop stop-color="#05E9D8"/>
<stop offset="1" stop-color="#FF2A6D"/>
</linearGradient>
<linearGradient id="paint18_linear_4114_7437" x1="-337.791" y1="145.071" x2="-349.784" y2="-388.527" gradientUnits="userSpaceOnUse">
<stop stop-color="#05E9D8"/>
<stop offset="1" stop-color="#FF2A6D"/>
</linearGradient>
<linearGradient id="paint19_linear_4114_7437" x1="-333.549" y1="109.544" x2="-308.889" y2="-417.404" gradientUnits="userSpaceOnUse">
<stop stop-color="#05E9D8"/>
<stop offset="1" stop-color="#FF2A6D"/>
</linearGradient>
<linearGradient id="paint20_linear_4114_7437" x1="-326.605" y1="75.7595" x2="-265.73" y2="-441.505" gradientUnits="userSpaceOnUse">
<stop stop-color="#05E9D8"/>
<stop offset="1" stop-color="#FF2A6D"/>
</linearGradient>
<linearGradient id="paint21_linear_4114_7437" x1="-317.117" y1="43.8851" x2="-220.732" y2="-460.59" gradientUnits="userSpaceOnUse">
<stop stop-color="#05E9D8"/>
<stop offset="1" stop-color="#FF2A6D"/>
</linearGradient>
<linearGradient id="paint22_linear_4114_7437" x1="-305.254" y1="14.0756" x2="-174.357" y2="-474.445" gradientUnits="userSpaceOnUse">
<stop stop-color="#05E9D8"/>
<stop offset="1" stop-color="#FF2A6D"/>
</linearGradient>
<linearGradient id="paint23_linear_4114_7437" x1="-291.193" y1="-13.5261" x2="-127.108" y2="-482.882" gradientUnits="userSpaceOnUse">
<stop stop-color="#05E9D8"/>
<stop offset="1" stop-color="#FF2A6D"/>
</linearGradient>
<linearGradient id="paint24_linear_4114_7437" x1="-275.12" y1="-38.7903" x2="-79.5333" y2="-485.752" gradientUnits="userSpaceOnUse">
<stop stop-color="#05E9D8"/>
<stop offset="1" stop-color="#FF2A6D"/>
</linearGradient>
<linearGradient id="paint25_linear_4114_7437" x1="1572.28" y1="387.031" x2="1023.1" y2="633.313" gradientUnits="userSpaceOnUse">
<stop stop-color="#05E9D8"/>
<stop offset="1" stop-color="#FF2A6D"/>
</linearGradient>
<linearGradient id="paint26_linear_4114_7437" x1="1515.79" y1="416.341" x2="984.358" y2="693.292" gradientUnits="userSpaceOnUse">
<stop stop-color="#05E9D8"/>
<stop offset="1" stop-color="#FF2A6D"/>
</linearGradient>
<linearGradient id="paint27_linear_4114_7437" x1="1462.51" y1="448.05" x2="950.669" y2="754.547" gradientUnits="userSpaceOnUse">
<stop stop-color="#05E9D8"/>
<stop offset="1" stop-color="#FF2A6D"/>
</linearGradient>
<linearGradient id="paint28_linear_4114_7437" x1="1412.53" y1="481.92" x2="922.086" y2="816.724" gradientUnits="userSpaceOnUse">
<stop stop-color="#05E9D8"/>
<stop offset="1" stop-color="#FF2A6D"/>
</linearGradient>
<linearGradient id="paint29_linear_4114_7437" x1="1365.94" y1="517.707" x2="898.641" y2="879.462" gradientUnits="userSpaceOnUse">
<stop stop-color="#05E9D8"/>
<stop offset="1" stop-color="#FF2A6D"/>
</linearGradient>
<linearGradient id="paint30_linear_4114_7437" x1="1322.83" y1="555.165" x2="880.339" y2="942.398" gradientUnits="userSpaceOnUse">
<stop stop-color="#05E9D8"/>
<stop offset="1" stop-color="#FF2A6D"/>
</linearGradient>
<linearGradient id="paint31_linear_4114_7437" x1="1283.25" y1="594.045" x2="867.166" y2="1005.17" gradientUnits="userSpaceOnUse">
<stop stop-color="#05E9D8"/>
<stop offset="1" stop-color="#FF2A6D"/>
</linearGradient>
<linearGradient id="paint32_linear_4114_7437" x1="1247.23" y1="634.097" x2="859.08" y2="1067.41" gradientUnits="userSpaceOnUse">
<stop stop-color="#05E9D8"/>
<stop offset="1" stop-color="#FF2A6D"/>
</linearGradient>
<linearGradient id="paint33_linear_4114_7437" x1="1214.8" y1="675.07" x2="856.019" y2="1128.75" gradientUnits="userSpaceOnUse">
<stop stop-color="#05E9D8"/>
<stop offset="1" stop-color="#FF2A6D"/>
</linearGradient>
<linearGradient id="paint34_linear_4114_7437" x1="1185.98" y1="716.715" x2="857.895" y2="1188.84" gradientUnits="userSpaceOnUse">
<stop stop-color="#05E9D8"/>
<stop offset="1" stop-color="#FF2A6D"/>
</linearGradient>
<linearGradient id="paint35_linear_4114_7437" x1="1160.75" y1="758.786" x2="864.596" y2="1247.32" gradientUnits="userSpaceOnUse">
<stop stop-color="#05E9D8"/>
<stop offset="1" stop-color="#FF2A6D"/>
</linearGradient>
<linearGradient id="paint36_linear_4114_7437" x1="1139.09" y1="801.035" x2="875.986" y2="1303.83" gradientUnits="userSpaceOnUse">
<stop stop-color="#05E9D8"/>
<stop offset="1" stop-color="#FF2A6D"/>
</linearGradient>
<linearGradient id="paint37_linear_4114_7437" x1="1120.96" y1="843.224" x2="891.904" y2="1358.02" gradientUnits="userSpaceOnUse">
<stop stop-color="#05E9D8"/>
<stop offset="1" stop-color="#FF2A6D"/>
</linearGradient>
<linearGradient id="paint38_linear_4114_7437" x1="1106.3" y1="885.115" x2="912.163" y2="1409.55" gradientUnits="userSpaceOnUse">
<stop stop-color="#05E9D8"/>
<stop offset="1" stop-color="#FF2A6D"/>
</linearGradient>
<linearGradient id="paint39_linear_4114_7437" x1="1095.05" y1="926.479" x2="936.552" y2="1458.08" gradientUnits="userSpaceOnUse">
<stop stop-color="#05E9D8"/>
<stop offset="1" stop-color="#FF2A6D"/>
</linearGradient>
<linearGradient id="paint40_linear_4114_7437" x1="1087.12" y1="967.09" x2="964.832" y2="1503.3" gradientUnits="userSpaceOnUse">
<stop stop-color="#05E9D8"/>
<stop offset="1" stop-color="#FF2A6D"/>
</linearGradient>
<linearGradient id="paint41_linear_4114_7437" x1="1082.41" y1="1006.73" x2="996.737" y2="1544.87" gradientUnits="userSpaceOnUse">
<stop stop-color="#05E9D8"/>
<stop offset="1" stop-color="#FF2A6D"/>
</linearGradient>
<linearGradient id="paint42_linear_4114_7437" x1="1080.82" y1="1045.2" x2="1031.97" y2="1582.5" gradientUnits="userSpaceOnUse">
<stop stop-color="#05E9D8"/>
<stop offset="1" stop-color="#FF2A6D"/>
</linearGradient>
<clipPath id="clip0_4114_7437">
<rect width="1920" height="5944" fill="white"/>
</clipPath>

</defs>
</svg>
