<svg width="90" height="28" viewBox="0 0 90 28" fill="none" xmlns="http://www.w3.org/2000/svg">
<path d="M5.6959 19.8589L9.10751 4.87137H11.0721L11.8486 6.73011L8.21344 22H6.06059L5.6959 19.8589ZM4.36655 4.87137L7.22525 19.9295L6.73115 22H4.2842L0.566724 4.87137H4.36655ZM14.2837 19.8472L17.1071 4.87137H20.8952L17.1777 22H14.7543L14.2837 19.8472ZM12.3544 4.87137L15.8131 19.9413L15.4131 22H13.272L9.57808 6.71834L10.3898 4.87137H12.3544ZM28.0949 22.2353C27.0832 22.2353 26.1773 22.0745 25.3774 21.753C24.5774 21.4314 23.899 20.9883 23.3422 20.4236C22.7932 19.8511 22.3736 19.1923 22.0834 18.4472C21.7932 17.7022 21.6481 16.9061 21.6481 16.0591V15.6121C21.6481 14.6631 21.7814 13.7886 22.0481 12.9886C22.3148 12.1887 22.703 11.4946 23.2128 10.9064C23.7304 10.3103 24.3656 9.85153 25.1186 9.52998C25.8715 9.20058 26.7302 9.03588 27.6949 9.03588C28.5968 9.03588 29.4007 9.1849 30.1066 9.48292C30.8124 9.7731 31.4085 10.1927 31.8947 10.7417C32.381 11.2828 32.7496 11.9377 33.0005 12.7063C33.2594 13.4671 33.3888 14.3219 33.3888 15.2709V16.7767H23.1304V14.4121H29.7889V14.1298C29.7889 13.6827 29.7066 13.2906 29.5419 12.9534C29.385 12.6161 29.1497 12.3573 28.836 12.1769C28.5302 11.9887 28.1419 11.8946 27.6714 11.8946C27.2243 11.8946 26.8518 11.9887 26.5538 12.1769C26.2558 12.3651 26.0165 12.6318 25.8362 12.9769C25.6636 13.3141 25.5381 13.7102 25.4597 14.1651C25.3813 14.6121 25.3421 15.0944 25.3421 15.6121V16.0591C25.3421 16.5532 25.4087 17.0041 25.5421 17.412C25.6754 17.8198 25.8715 18.1688 26.1303 18.459C26.3891 18.7492 26.7028 18.9766 27.0714 19.1413C27.44 19.306 27.8596 19.3884 28.3302 19.3884C28.9105 19.3884 29.4635 19.2786 29.9889 19.059C30.5144 18.8315 30.9693 18.4786 31.3536 18.0002L33.0711 19.9648C32.8123 20.3413 32.4476 20.7059 31.9771 21.0589C31.5143 21.4039 30.9575 21.6863 30.3066 21.9059C29.6556 22.1255 28.9184 22.2353 28.0949 22.2353Z" fill="#07F1E0"/>
<path d="M43.3413 4.87137V22H39.5179V4.87137H43.3413ZM48.5528 4.87137V7.8477H34.4122V4.87137H48.5528ZM53.1408 12.2357V22H49.4704V9.27117H52.9173L53.1408 12.2357ZM56.9406 9.17705L56.8818 12.6004C56.725 12.5769 56.521 12.5573 56.2701 12.5416C56.0191 12.5181 55.8034 12.5063 55.623 12.5063C55.1525 12.5063 54.7447 12.5651 54.3996 12.6828C54.0623 12.7926 53.78 12.9573 53.5526 13.1769C53.333 13.3965 53.1683 13.671 53.0585 14.0004C52.9487 14.3219 52.8938 14.6944 52.8938 15.118L52.1997 14.7768C52.1997 13.9376 52.282 13.169 52.4467 12.471C52.6114 11.773 52.8506 11.1691 53.1643 10.6593C53.478 10.1417 53.8623 9.74173 54.3172 9.45939C54.7721 9.17705 55.2897 9.03588 55.8701 9.03588C56.0583 9.03588 56.2505 9.04765 56.4465 9.07118C56.6426 9.0947 56.8073 9.13 56.9406 9.17705ZM64.8109 18.9648V13.5063C64.8109 13.122 64.752 12.7926 64.6344 12.5181C64.5168 12.2436 64.3325 12.0279 64.0815 11.871C63.8305 11.7142 63.505 11.6358 63.1051 11.6358C62.7678 11.6358 62.4737 11.6946 62.2227 11.8122C61.9796 11.9299 61.7914 12.0985 61.6581 12.3181C61.5326 12.5377 61.4698 12.8083 61.4698 13.1298H57.7994C57.7994 12.5573 57.9288 12.024 58.1876 11.5299C58.4464 11.0358 58.8151 10.6005 59.2935 10.2241C59.7797 9.84761 60.3601 9.55743 61.0346 9.35352C61.709 9.14176 62.4659 9.03588 63.305 9.03588C64.3011 9.03588 65.1873 9.2045 65.9638 9.54174C66.748 9.87114 67.3676 10.3692 67.8225 11.0358C68.2774 11.6946 68.5048 12.5259 68.5048 13.5298V18.859C68.5048 19.6276 68.5479 20.2315 68.6342 20.6706C68.7283 21.102 68.8617 21.4785 69.0342 21.8V22H65.3285C65.1559 21.6314 65.0265 21.1765 64.9403 20.6354C64.854 20.0864 64.8109 19.5295 64.8109 18.9648ZM65.2697 14.2356L65.2932 16.2591H63.4697C63.0619 16.2591 62.709 16.3101 62.411 16.412C62.1208 16.514 61.8855 16.6551 61.7051 16.8355C61.5247 17.0081 61.3914 17.212 61.3051 17.4473C61.2267 17.6747 61.1875 17.9257 61.1875 18.2002C61.1875 18.459 61.2502 18.6943 61.3757 18.906C61.5012 19.1099 61.6738 19.2707 61.8933 19.3884C62.1129 19.506 62.3678 19.5648 62.658 19.5648C63.1364 19.5648 63.5443 19.4707 63.8815 19.2825C64.2266 19.0942 64.4932 18.8668 64.6815 18.6002C64.8697 18.3257 64.9638 18.0708 64.9638 17.8355L65.8461 19.3648C65.7049 19.6785 65.5324 20.004 65.3285 20.3413C65.1246 20.6706 64.8658 20.9804 64.5521 21.2706C64.2383 21.553 63.858 21.7843 63.4109 21.9647C62.9717 22.1451 62.4423 22.2353 61.8228 22.2353C61.0228 22.2353 60.2973 22.0745 59.6464 21.753C58.9954 21.4236 58.4739 20.9726 58.0818 20.4001C57.6975 19.8275 57.5053 19.1688 57.5053 18.4237C57.5053 17.7571 57.6269 17.1649 57.87 16.6473C58.1131 16.1297 58.4778 15.6905 58.9641 15.3297C59.4582 14.9689 60.0777 14.6984 60.8228 14.518C61.5679 14.3298 62.4384 14.2356 63.4345 14.2356H65.2697ZM74.7869 9.27117V22H71.1047V9.27117H74.7869ZM70.8812 5.9772C70.8812 5.44389 71.0694 5.00861 71.4459 4.67138C71.8223 4.32629 72.3164 4.15375 72.9281 4.15375C73.5399 4.15375 74.034 4.32629 74.4104 4.67138C74.7947 5.00861 74.9869 5.44389 74.9869 5.9772C74.9869 6.50266 74.7947 6.93794 74.4104 7.28302C74.034 7.62026 73.5399 7.78888 72.9281 7.78888C72.3164 7.78888 71.8223 7.62026 71.4459 7.28302C71.0694 6.93794 70.8812 6.50266 70.8812 5.9772ZM81.0337 11.9887V22H77.3515V9.27117H80.8101L81.0337 11.9887ZM80.5513 15.1885L79.6337 15.2121C79.6337 14.2553 79.7514 13.3965 79.9866 12.6357C80.2219 11.875 80.5553 11.2279 80.9866 10.6946C81.4258 10.1535 81.9473 9.74173 82.5512 9.45939C83.163 9.17705 83.8375 9.03588 84.5747 9.03588C85.1707 9.03588 85.7158 9.12215 86.2099 9.29469C86.704 9.46724 87.1275 9.74565 87.4804 10.13C87.8412 10.5064 88.1157 11.0083 88.3039 11.6358C88.4921 12.2553 88.5863 13.02 88.5863 13.9298V22H84.8923V13.918C84.8923 13.3847 84.8178 12.973 84.6688 12.6828C84.5198 12.3926 84.3002 12.1887 84.01 12.071C83.7277 11.9534 83.3826 11.8946 82.9747 11.8946C82.5434 11.8946 82.1748 11.9808 81.8689 12.1534C81.563 12.3181 81.3121 12.5494 81.116 12.8475C80.9199 13.1455 80.7748 13.4945 80.6807 13.8945C80.5945 14.2945 80.5513 14.7258 80.5513 15.1885Z" fill="#FF2A6D"/>
</svg>
