<svg width="65" height="52" viewBox="0 0 65 52" fill="none" xmlns="http://www.w3.org/2000/svg">
<path d="M0.162237 8.04503C-0.139329 8.50771 -0.00871743 9.12726 0.453966 9.42883L7.99384 14.3431C8.45652 14.6447 9.07607 14.5141 9.37763 14.0514C9.6792 13.5887 9.54859 12.9692 9.0859 12.6676L2.3838 8.29933L6.75206 1.59723C7.05363 1.13454 6.92302 0.514997 6.46034 0.213431C5.99765 -0.0881343 5.3781 0.0424773 5.07654 0.505161L0.162237 8.04503ZM63.8761 51.8897C65.6689 41.9916 64.7045 27.7988 55.7607 17.6085C46.7598 7.35325 29.9654 1.46265 0.793716 7.61257L1.20628 9.56956C30.0103 3.49715 45.9247 9.43371 54.2575 18.9278C62.6473 28.4868 63.6411 41.9653 61.9081 51.5333L63.8761 51.8897Z" fill="url(#paint0_linear_4067_270)"/>
<defs>
<linearGradient id="paint0_linear_4067_270" x1="14.2039" y1="-2.70451" x2="61.6582" y2="52.767" gradientUnits="userSpaceOnUse">
<stop stop-color="#FF2A6D"/>
<stop offset="1" stop-color="#991941" stop-opacity="0"/>
</linearGradient>
</defs>
</svg>
