<svg width="39" height="31" viewBox="0 0 39 31" fill="none" xmlns="http://www.w3.org/2000/svg">
<rect width="39" height="31" rx="15.5" fill="white"/>
<g clip-path="url(#clip0_6001_4011)">
<path d="M29.455 10.9204H28.8525V17.5434C28.8525 18.5746 28.2521 19.507 27.0484 19.507H15.2559V19.8219C15.2559 20.7336 16.2928 21.6538 17.3576 21.6538H26.3736L29.8228 23.6819L29.3226 21.6538H29.455C30.5191 21.6538 30.9993 20.7357 30.9993 19.8219V12.4926C30.9993 11.5809 30.5191 10.9204 29.455 10.9204Z" fill="black"/>
<path d="M25.2887 6.31885H11.5919C10.3869 6.31885 9 7.3894 9 8.42131V16.7224C9 17.6727 10.175 18.359 11.3021 18.4649L10.5686 21.2493L15.2687 18.4842H25.2887C26.4938 18.4842 27.6059 17.7536 27.6059 16.7224V10.0064V8.42131C27.6059 7.3894 26.4931 6.31885 25.2887 6.31885ZM13.6815 13.3261C12.9981 13.3261 12.4442 12.7722 12.4442 12.0888C12.4442 11.4054 12.9981 10.8515 13.6815 10.8515C14.3642 10.8515 14.9188 11.4054 14.9188 12.0888C14.9188 12.7722 14.3642 13.3261 13.6815 13.3261ZM18.3029 13.3261C17.6195 13.3261 17.0656 12.7722 17.0656 12.0888C17.0656 11.4054 17.6195 10.8515 18.3029 10.8515C18.9863 10.8515 19.5402 11.4054 19.5402 12.0888C19.5402 12.7722 18.9863 13.3261 18.3029 13.3261ZM22.9251 13.3261C22.2416 13.3261 21.6871 12.7722 21.6871 12.0888C21.6871 11.4054 22.2416 10.8515 22.9251 10.8515C23.607 10.8515 24.1623 11.4054 24.1623 12.0888C24.1623 12.7722 23.607 13.3261 22.9251 13.3261Z" fill="black"/>
</g>
<defs>
<clipPath id="clip0_6001_4011">
<rect width="22" height="22.0007" fill="white" transform="translate(9 4)"/>
</clipPath>
</defs>
</svg>
