<svg width="17" height="18" viewBox="0 0 17 18" fill="none" xmlns="http://www.w3.org/2000/svg">
<path d="M14.9322 4.53934H13.1624L12.1854 3.06456C11.8167 2.51151 11.1715 2.17969 10.5078 2.17969H6.45217C5.78852 2.17969 5.1433 2.51151 4.77461 3.06456L3.79756 4.53934H2.02782C0.903304 4.53934 0 5.44264 0 6.56716V13.7199C0 14.8444 0.903304 15.7477 2.02782 15.7477H14.9322C16.0567 15.7477 16.96 14.8444 16.96 13.7199V6.56716C16.96 5.44264 16.0567 4.53934 14.9322 4.53934ZM8.48 14.0885C5.95443 14.0885 3.90817 12.0423 3.90817 9.51673C3.90817 6.99116 5.95443 4.96334 8.48 4.96334C11.0056 4.96334 13.0518 7.0096 13.0518 9.53516C13.0518 12.0423 11.0056 14.0885 8.48 14.0885ZM14.6741 7.39673C14.6556 7.39673 14.6372 7.39673 14.6003 7.39673H13.8629C13.5311 7.37829 13.273 7.10177 13.2915 6.76995C13.3099 6.45655 13.5496 6.2169 13.8629 6.19847H14.6003C14.9322 6.18003 15.2087 6.43812 15.2271 6.76995C15.2456 7.10177 15.0059 7.37829 14.6741 7.39673Z" fill="#484848"/>
<path d="M8.4815 6.99121C7.08046 6.99121 5.9375 8.13417 5.9375 9.53521C5.9375 10.9363 7.08046 12.0608 8.4815 12.0608C9.88254 12.0608 11.0255 10.9178 11.0255 9.51678C11.0255 8.11573 9.88254 6.99121 8.4815 6.99121Z" fill="#484848"/>
</svg>
