<svg width="31" height="31" viewBox="0 0 31 31" fill="none" xmlns="http://www.w3.org/2000/svg">
<circle cx="15.5" cy="15.5" r="15.5" fill="#07F1E0"/>
<g clip-path="url(#clip0_4067_522)">
<path fill-rule="evenodd" clip-rule="evenodd" d="M15.597 6.00008C14.8433 5.99239 14.2994 6.52565 13.8186 7.01204C13.3379 7.49842 12.881 7.97929 12.531 8.1201C12.181 8.2609 11.5184 8.23038 10.8347 8.21244C10.1511 8.1945 9.3895 8.18649 8.85112 8.71399C8.31275 9.2415 8.30521 10.0031 8.3092 10.6869C8.31318 11.3708 8.33013 12.034 8.18221 12.381C8.03429 12.7281 7.54422 13.175 7.04813 13.6458C6.55204 14.1165 6.0078 14.6493 6.00008 15.403C5.99239 16.1567 6.52565 16.7005 7.01204 17.1813C7.49842 17.6621 7.97929 18.119 8.1201 18.469C8.2609 18.819 8.23045 19.4816 8.21251 20.1653C8.19457 20.8489 8.1865 21.6106 8.71399 22.1489C9.24149 22.6873 10.0032 22.6948 10.687 22.6908C11.3709 22.6868 12.034 22.6699 12.381 22.8178C12.7281 22.9657 13.175 23.4558 13.6458 23.9519C14.1165 24.448 14.6493 24.9922 15.403 24.9999C16.1567 25.0076 16.7006 24.4744 17.1814 23.988C17.6621 23.5016 18.119 23.0207 18.469 22.8799C18.819 22.7391 19.4816 22.7696 20.1653 22.7876C20.8489 22.8055 21.6105 22.8136 22.1489 22.2861C22.6873 21.7586 22.6948 20.9969 22.6908 20.3131C22.6868 19.6292 22.6699 18.966 22.8178 18.6189C22.9657 18.2719 23.4558 17.825 23.9519 17.3542C24.448 16.8835 24.9922 16.3507 24.9999 15.597C24.9999 15.597 24.9999 15.5969 24.9999 15.5969C25.0076 14.8432 24.4743 14.2994 23.988 13.8186C23.5016 13.3379 23.0207 12.881 22.8799 12.531C22.7391 12.181 22.7696 11.5184 22.7875 10.8347C22.8054 10.1511 22.8135 9.38943 22.286 8.85105C21.7585 8.31268 20.9968 8.30521 20.313 8.3092C19.6291 8.31318 18.966 8.33013 18.619 8.18221C18.272 8.03429 17.825 7.54422 17.3542 7.04813C16.8835 6.55204 16.3507 6.0078 15.597 6.00008ZM15.4996 9.63672C18.7329 9.63672 21.3628 12.2666 21.3628 15.4999C21.3628 18.7331 18.7329 21.363 15.4996 21.363C12.2664 21.363 9.63651 18.7331 9.63651 15.4999C9.63651 12.2666 12.2664 9.63672 15.4996 9.63672Z" fill="black"/>
<path fill-rule="evenodd" clip-rule="evenodd" d="M15.5001 11.4551C15.1916 11.4551 14.9323 11.6326 14.7714 11.8229C14.6106 12.0132 14.5061 12.2262 14.4089 12.4344C14.2145 12.8509 14.0131 13.2438 13.9135 13.3161C13.814 13.3885 13.378 13.4586 12.9218 13.5148C12.6938 13.5429 12.459 13.5764 12.2283 13.6706C11.9976 13.7648 11.7486 13.9565 11.6532 14.25C11.5579 14.5434 11.6466 14.8448 11.7779 15.0567C11.9092 15.2685 12.0794 15.4337 12.2474 15.5905C12.5834 15.904 12.8948 16.217 12.9329 16.334C12.9709 16.4511 12.9029 16.8874 12.8154 17.3385C12.7716 17.5641 12.731 17.7978 12.7493 18.0464C12.7676 18.2949 12.8729 18.5909 13.1225 18.7723C13.3722 18.9537 13.6863 18.9624 13.9283 18.903C14.1703 18.8436 14.38 18.7327 14.581 18.6214C14.9831 18.3988 15.377 18.1993 15.5001 18.1993C15.6231 18.1993 16.0171 18.3988 16.4191 18.6215C16.6201 18.7328 16.8298 18.8437 17.0718 18.9031C17.3138 18.9625 17.6279 18.9537 17.8775 18.7724C18.1272 18.591 18.2326 18.295 18.2509 18.0465C18.2692 17.798 18.2285 17.5642 18.1848 17.3387C18.0973 16.8875 18.0293 16.4512 18.0673 16.3342C18.1053 16.2171 18.4168 15.9041 18.7528 15.5905C18.9208 15.4338 19.0911 15.2686 19.2224 15.0568C19.3537 14.845 19.4424 14.5436 19.347 14.2501C19.2517 13.9566 19.0027 13.765 18.772 13.6708C18.5413 13.5766 18.3065 13.543 18.0784 13.5149C17.6223 13.4587 17.1863 13.3885 17.0868 13.3162C16.9872 13.2439 16.7858 12.8509 16.5915 12.4345C16.4943 12.2263 16.3898 12.0133 16.2289 11.823C16.068 11.6327 15.8088 11.4551 15.5002 11.4551H15.5001Z" fill="black"/>
</g>
<defs>
<clipPath id="clip0_4067_522">
<rect width="19" height="19" fill="white" transform="translate(6 6)"/>
</clipPath>
</defs>
</svg>
