<svg width="45" height="45" viewBox="0 0 45 45" fill="none" xmlns="http://www.w3.org/2000/svg">
<circle cx="22.5" cy="22.5" r="22.5" fill="#FF2A6D"/>
<g clip-path="url(#clip0_4067_271)">
<path d="M24.9784 30.6575C25.2006 29.2865 24.2694 27.995 22.8984 27.7727C21.5275 27.5505 20.236 28.4817 20.0137 29.8526C19.7915 31.2236 20.7227 32.5151 22.0936 32.7374C23.4646 32.9596 24.7561 32.0284 24.9784 30.6575Z" fill="white"/>
<path d="M35.2493 17.5083C31.6249 13.884 26.964 12.2271 22.5 12.2271C18.036 12.2271 13.3751 13.884 9.75067 17.5083C8.74904 18.5111 8.75363 20.064 9.74134 21.0558C10.9748 22.303 12.5897 21.8066 13.3129 21.0592C15.7679 18.6075 19.0303 17.2573 22.5 17.2573C25.9697 17.2573 29.2321 18.6075 31.6871 21.0592C32.4103 21.8066 34.0252 22.303 35.2587 21.0558C36.2464 20.064 36.251 18.5111 35.2493 17.5083Z" fill="white"/>
<path d="M22.4997 19.9849C19.999 19.9849 17.3157 20.9146 15.2364 22.9934C14.222 24.0078 14.2422 25.5677 15.2465 26.5615C16.2438 27.552 17.7954 27.5478 18.7924 26.5508C19.7826 25.5606 21.0992 25.0153 22.4996 25.0153C23.9 25.0153 25.2166 25.5606 26.2069 26.5508C27.2038 27.5478 28.7555 27.552 29.7527 26.5615C30.7571 25.5677 30.7773 24.0078 29.7628 22.9934C27.6837 20.9146 25.0004 19.9849 22.4997 19.9849Z" fill="white"/>
</g>
<defs>
<clipPath id="clip0_4067_271">
<rect width="27" height="27" fill="white" transform="translate(9 9)"/>
</clipPath>
</defs>
</svg>
