<svg width="285" height="486" viewBox="0 0 285 486" fill="none" xmlns="http://www.w3.org/2000/svg">
<mask id="mask0_4067_623" style="mask-type:alpha" maskUnits="userSpaceOnUse" x="0" y="1" width="285" height="484">
<path d="M0 39.1291C0 28.6267 8.12332 19.9133 18.5999 19.1781L263.6 1.98516C275.168 1.17333 285 10.3391 285 21.9361V446.838C285 457.34 276.877 466.053 266.4 466.789L21.4001 483.982C9.83154 484.793 0 475.628 0 464.031V39.1291Z" fill="#D9D9D9"/>
<path d="M0 39.1291C0 28.6267 8.12332 19.9133 18.5999 19.1781L263.6 1.98516C275.168 1.17333 285 10.3391 285 21.9361V446.838C285 457.34 276.877 466.053 266.4 466.789L21.4001 483.982C9.83154 484.793 0 475.628 0 464.031V39.1291Z" fill="url(#paint0_linear_4067_623)"/>
</mask>
<g mask="url(#mask0_4067_623)">
<path d="M0 39.1291C0 28.6267 8.12332 19.9133 18.5999 19.1781L263.6 1.98516C275.168 1.17333 285 10.3391 285 21.9361V446.838C285 457.34 276.877 466.053 266.4 466.789L21.4001 483.982C9.83154 484.793 0 475.628 0 464.031V39.1291Z" fill="url(#paint1_linear_4067_623)"/>
<g opacity="0.5" filter="url(#filter0_f_4067_623)">
<ellipse cx="142" cy="18.9834" rx="41" ry="70.5" fill="#07F1E0"/>
</g>
<g opacity="0.5" filter="url(#filter1_f_4067_623)">
<ellipse cx="143" cy="486.983" rx="41" ry="70.5" fill="#07F1E0"/>
</g>
<g opacity="0.5" filter="url(#filter2_f_4067_623)">
<ellipse cx="41.4539" cy="581.983" rx="83.4539" ry="143.5" fill="#07F1E0"/>
</g>
<g opacity="0.5" filter="url(#filter3_f_4067_623)">
<ellipse cx="322.632" cy="242.984" rx="52.6312" ry="90.5" transform="rotate(15 322.632 242.984)" fill="#07F1E0"/>
</g>
<g opacity="0.9" filter="url(#filter4_f_4067_623)">
<ellipse cx="142" cy="-34.0166" rx="61" ry="70.5" fill="#07F1E0"/>
</g>
<g opacity="0.7" filter="url(#filter5_f_4067_623)">
<ellipse cx="-29.5" cy="206.233" rx="91.5" ry="105.75" fill="#0A0A0A"/>
</g>
<g opacity="0.7" filter="url(#filter6_f_4067_623)">
<ellipse cx="33.5" cy="485.233" rx="91.5" ry="105.75" fill="#0A0A0A"/>
</g>
<g opacity="0.7" filter="url(#filter7_f_4067_623)">
<ellipse cx="264.5" cy="229.233" rx="91.5" ry="105.75" fill="#0A0A0A"/>
</g>
</g>
<defs>
<filter id="filter0_f_4067_623" x="27.8" y="-124.717" width="228.4" height="287.4" filterUnits="userSpaceOnUse" color-interpolation-filters="sRGB">
<feFlood flood-opacity="0" result="BackgroundImageFix"/>
<feBlend mode="normal" in="SourceGraphic" in2="BackgroundImageFix" result="shape"/>
<feGaussianBlur stdDeviation="36.6" result="effect1_foregroundBlur_4067_623"/>
</filter>
<filter id="filter1_f_4067_623" x="28.8" y="343.283" width="228.4" height="287.4" filterUnits="userSpaceOnUse" color-interpolation-filters="sRGB">
<feFlood flood-opacity="0" result="BackgroundImageFix"/>
<feBlend mode="normal" in="SourceGraphic" in2="BackgroundImageFix" result="shape"/>
<feGaussianBlur stdDeviation="36.6" result="effect1_foregroundBlur_4067_623"/>
</filter>
<filter id="filter2_f_4067_623" x="-190.996" y="289.488" width="464.9" height="584.992" filterUnits="userSpaceOnUse" color-interpolation-filters="sRGB">
<feFlood flood-opacity="0" result="BackgroundImageFix"/>
<feBlend mode="normal" in="SourceGraphic" in2="BackgroundImageFix" result="shape"/>
<feGaussianBlur stdDeviation="74.4979" result="effect1_foregroundBlur_4067_623"/>
</filter>
<filter id="filter3_f_4067_623" x="172.679" y="60.534" width="299.907" height="364.9" filterUnits="userSpaceOnUse" color-interpolation-filters="sRGB">
<feFlood flood-opacity="0" result="BackgroundImageFix"/>
<feBlend mode="normal" in="SourceGraphic" in2="BackgroundImageFix" result="shape"/>
<feGaussianBlur stdDeviation="46.983" result="effect1_foregroundBlur_4067_623"/>
</filter>
<filter id="filter4_f_4067_623" x="7.8" y="-177.717" width="268.4" height="287.4" filterUnits="userSpaceOnUse" color-interpolation-filters="sRGB">
<feFlood flood-opacity="0" result="BackgroundImageFix"/>
<feBlend mode="normal" in="SourceGraphic" in2="BackgroundImageFix" result="shape"/>
<feGaussianBlur stdDeviation="36.6" result="effect1_foregroundBlur_4067_623"/>
</filter>
<filter id="filter5_f_4067_623" x="-230.8" y="-9.31662" width="402.6" height="431.1" filterUnits="userSpaceOnUse" color-interpolation-filters="sRGB">
<feFlood flood-opacity="0" result="BackgroundImageFix"/>
<feBlend mode="normal" in="SourceGraphic" in2="BackgroundImageFix" result="shape"/>
<feGaussianBlur stdDeviation="54.9" result="effect1_foregroundBlur_4067_623"/>
</filter>
<filter id="filter6_f_4067_623" x="-167.8" y="269.683" width="402.6" height="431.1" filterUnits="userSpaceOnUse" color-interpolation-filters="sRGB">
<feFlood flood-opacity="0" result="BackgroundImageFix"/>
<feBlend mode="normal" in="SourceGraphic" in2="BackgroundImageFix" result="shape"/>
<feGaussianBlur stdDeviation="54.9" result="effect1_foregroundBlur_4067_623"/>
</filter>
<filter id="filter7_f_4067_623" x="63.2" y="13.6834" width="402.6" height="431.1" filterUnits="userSpaceOnUse" color-interpolation-filters="sRGB">
<feFlood flood-opacity="0" result="BackgroundImageFix"/>
<feBlend mode="normal" in="SourceGraphic" in2="BackgroundImageFix" result="shape"/>
<feGaussianBlur stdDeviation="54.9" result="effect1_foregroundBlur_4067_623"/>
</filter>
<linearGradient id="paint0_linear_4067_623" x1="5.5878e-06" y1="185.158" x2="283.022" y2="165.636" gradientUnits="userSpaceOnUse">
<stop stop-color="#161616"/>
<stop offset="1" stop-color="#101010"/>
</linearGradient>
<linearGradient id="paint1_linear_4067_623" x1="5.5878e-06" y1="185.158" x2="283.022" y2="165.636" gradientUnits="userSpaceOnUse">
<stop stop-color="#1F1F1F"/>
<stop offset="1" stop-color="#090909"/>
</linearGradient>
</defs>
</svg>
