<svg width="236" height="402" viewBox="0 0 236 402" fill="none" xmlns="http://www.w3.org/2000/svg">
<mask id="mask0_4078_753" style="mask-type:alpha" maskUnits="userSpaceOnUse" x="0" y="1" width="236" height="400">
<path d="M0 32.308C0 23.6113 6.72668 16.396 15.4021 15.7872L218.279 1.5502C227.859 0.877953 236 8.46788 236 18.071V369.919C236 378.616 229.273 385.831 220.598 386.44L17.7207 400.677C8.1412 401.349 0 393.759 0 384.156V32.308Z" fill="#D9D9D9"/>
<path d="M0 32.308C0 23.6113 6.72668 16.396 15.4021 15.7872L218.279 1.5502C227.859 0.877953 236 8.46788 236 18.071V369.919C236 378.616 229.273 385.831 220.598 386.44L17.7207 400.677C8.1412 401.349 0 393.759 0 384.156V32.308Z" fill="url(#paint0_linear_4078_753)"/>
</mask>
<g mask="url(#mask0_4078_753)">
<path d="M0 32.308C0 23.6113 6.72668 16.396 15.4021 15.7872L218.279 1.5502C227.859 0.877953 236 8.46788 236 18.071V369.919C236 378.616 229.273 385.831 220.598 386.44L17.7207 400.677C8.1412 401.349 0 393.759 0 384.156V32.308Z" fill="#D9D9D9"/>
<path d="M0 32.308C0 23.6113 6.72668 16.396 15.4021 15.7872L218.279 1.5502C227.859 0.877953 236 8.46788 236 18.071V369.919C236 378.616 229.273 385.831 220.598 386.44L17.7207 400.677C8.1412 401.349 0 393.759 0 384.156V32.308Z" fill="url(#paint1_linear_4078_753)"/>
<g opacity="0.5" filter="url(#filter0_f_4078_753)">
<ellipse cx="117.586" cy="15.626" rx="33.9509" ry="58.3789" fill="#07F1E0"/>
</g>
<g opacity="0.5" filter="url(#filter1_f_4078_753)">
<ellipse cx="118.414" cy="403.163" rx="33.9509" ry="58.3789" fill="#07F1E0"/>
</g>
<g opacity="0.5" filter="url(#filter2_f_4078_753)">
<ellipse cx="34.3264" cy="481.829" rx="69.1057" ry="118.828" fill="#07F1E0"/>
</g>
<g opacity="0.5" filter="url(#filter3_f_4078_753)">
<ellipse cx="267.162" cy="201.114" rx="43.5823" ry="74.9404" transform="rotate(15 267.162 201.114)" fill="#07F1E0"/>
</g>
<g opacity="0.9" filter="url(#filter4_f_4078_753)">
<ellipse cx="117.587" cy="-28.2617" rx="50.5123" ry="58.3789" fill="#07F1E0"/>
</g>
<g opacity="0.7" filter="url(#filter5_f_4078_753)">
<ellipse cx="-24.4288" cy="170.682" rx="75.7684" ry="87.5684" fill="#0A0A0A"/>
</g>
<g opacity="0.7" filter="url(#filter6_f_4078_753)">
<ellipse cx="27.7411" cy="401.714" rx="75.7684" ry="87.5684" fill="#0A0A0A"/>
</g>
<g opacity="0.7" filter="url(#filter7_f_4078_753)">
<ellipse cx="219.024" cy="189.728" rx="75.7684" ry="87.5684" fill="#0A0A0A"/>
</g>
</g>
<defs>
<filter id="filter0_f_4078_753" x="23.02" y="-103.368" width="189.132" height="237.987" filterUnits="userSpaceOnUse" color-interpolation-filters="sRGB">
<feFlood flood-opacity="0" result="BackgroundImageFix"/>
<feBlend mode="normal" in="SourceGraphic" in2="BackgroundImageFix" result="shape"/>
<feGaussianBlur stdDeviation="30.3074" result="effect1_foregroundBlur_4078_753"/>
</filter>
<filter id="filter1_f_4078_753" x="23.8482" y="284.169" width="189.132" height="237.987" filterUnits="userSpaceOnUse" color-interpolation-filters="sRGB">
<feFlood flood-opacity="0" result="BackgroundImageFix"/>
<feBlend mode="normal" in="SourceGraphic" in2="BackgroundImageFix" result="shape"/>
<feGaussianBlur stdDeviation="30.3074" result="effect1_foregroundBlur_4078_753"/>
</filter>
<filter id="filter2_f_4078_753" x="-158.158" y="239.622" width="384.969" height="484.414" filterUnits="userSpaceOnUse" color-interpolation-filters="sRGB">
<feFlood flood-opacity="0" result="BackgroundImageFix"/>
<feBlend mode="normal" in="SourceGraphic" in2="BackgroundImageFix" result="shape"/>
<feGaussianBlur stdDeviation="61.6895" result="effect1_foregroundBlur_4078_753"/>
</filter>
<filter id="filter3_f_4078_753" x="142.99" y="50.0324" width="248.343" height="302.163" filterUnits="userSpaceOnUse" color-interpolation-filters="sRGB">
<feFlood flood-opacity="0" result="BackgroundImageFix"/>
<feBlend mode="normal" in="SourceGraphic" in2="BackgroundImageFix" result="shape"/>
<feGaussianBlur stdDeviation="38.9052" result="effect1_foregroundBlur_4078_753"/>
</filter>
<filter id="filter4_f_4078_753" x="6.45948" y="-147.255" width="222.255" height="237.987" filterUnits="userSpaceOnUse" color-interpolation-filters="sRGB">
<feFlood flood-opacity="0" result="BackgroundImageFix"/>
<feBlend mode="normal" in="SourceGraphic" in2="BackgroundImageFix" result="shape"/>
<feGaussianBlur stdDeviation="30.3074" result="effect1_foregroundBlur_4078_753"/>
</filter>
<filter id="filter5_f_4078_753" x="-191.119" y="-7.80884" width="333.381" height="356.981" filterUnits="userSpaceOnUse" color-interpolation-filters="sRGB">
<feFlood flood-opacity="0" result="BackgroundImageFix"/>
<feBlend mode="normal" in="SourceGraphic" in2="BackgroundImageFix" result="shape"/>
<feGaussianBlur stdDeviation="45.4611" result="effect1_foregroundBlur_4078_753"/>
</filter>
<filter id="filter6_f_4078_753" x="-138.949" y="223.223" width="333.381" height="356.981" filterUnits="userSpaceOnUse" color-interpolation-filters="sRGB">
<feFlood flood-opacity="0" result="BackgroundImageFix"/>
<feBlend mode="normal" in="SourceGraphic" in2="BackgroundImageFix" result="shape"/>
<feGaussianBlur stdDeviation="45.4611" result="effect1_foregroundBlur_4078_753"/>
</filter>
<filter id="filter7_f_4078_753" x="52.3337" y="11.2371" width="333.381" height="356.981" filterUnits="userSpaceOnUse" color-interpolation-filters="sRGB">
<feFlood flood-opacity="0" result="BackgroundImageFix"/>
<feBlend mode="normal" in="SourceGraphic" in2="BackgroundImageFix" result="shape"/>
<feGaussianBlur stdDeviation="45.4611" result="effect1_foregroundBlur_4078_753"/>
</filter>
<linearGradient id="paint0_linear_4078_753" x1="4.62709e-06" y1="153.23" x2="234.362" y2="137.064" gradientUnits="userSpaceOnUse">
<stop stop-color="#161616"/>
<stop offset="1" stop-color="#101010"/>
</linearGradient>
<linearGradient id="paint1_linear_4078_753" x1="4.62709e-06" y1="153.23" x2="234.362" y2="137.064" gradientUnits="userSpaceOnUse">
<stop stop-color="#1F1F1F"/>
<stop offset="1" stop-color="#090909"/>
</linearGradient>
</defs>
</svg>
