<svg width="236" height="402" viewBox="0 0 236 402" fill="none" xmlns="http://www.w3.org/2000/svg">
<mask id="mask0_4078_690" style="mask-type:alpha" maskUnits="userSpaceOnUse" x="0" y="1" width="236" height="400">
<path d="M0 32.0013C0 23.3046 6.72668 16.0894 15.4021 15.4806L218.279 1.24356C227.859 0.571312 236 8.16124 236 17.7643V369.613C236 378.309 229.273 385.525 220.598 386.134L17.7207 400.37C8.1412 401.043 0 393.453 0 383.85V32.0013Z" fill="#D9D9D9"/>
<path d="M0 32.0013C0 23.3046 6.72668 16.0894 15.4021 15.4806L218.279 1.24356C227.859 0.571312 236 8.16124 236 17.7643V369.613C236 378.309 229.273 385.525 220.598 386.134L17.7207 400.37C8.1412 401.043 0 393.453 0 383.85V32.0013Z" fill="url(#paint0_linear_4078_690)"/>
</mask>
<g mask="url(#mask0_4078_690)">
<path d="M0 32.0013C0 23.3046 6.72668 16.0894 15.4021 15.4806L218.279 1.24356C227.859 0.571312 236 8.16124 236 17.7643V369.613C236 378.309 229.273 385.525 220.598 386.134L17.7207 400.37C8.1412 401.043 0 393.453 0 383.85V32.0013Z" fill="#D9D9D9"/>
<path d="M0 32.0013C0 23.3046 6.72668 16.0894 15.4021 15.4806L218.279 1.24356C227.859 0.571312 236 8.16124 236 17.7643V369.613C236 378.309 229.273 385.525 220.598 386.134L17.7207 400.37C8.1412 401.043 0 393.453 0 383.85V32.0013Z" fill="url(#paint1_linear_4078_690)"/>
<g opacity="0.5" filter="url(#filter0_f_4078_690)">
<ellipse cx="117.586" cy="15.3194" rx="33.9509" ry="58.3789" fill="#FF2A6D"/>
</g>
<g opacity="0.9" filter="url(#filter1_f_4078_690)">
<ellipse cx="117.587" cy="-28.5683" rx="50.5123" ry="58.3789" fill="#FF2A6D"/>
</g>
<g opacity="0.7" filter="url(#filter2_f_4078_690)">
<ellipse cx="-24.4288" cy="170.375" rx="75.7684" ry="87.5684" fill="#0A0A0A"/>
</g>
<g opacity="0.7" filter="url(#filter3_f_4078_690)">
<ellipse cx="27.7411" cy="401.407" rx="75.7684" ry="87.5684" fill="#0A0A0A"/>
</g>
<g opacity="0.7" filter="url(#filter4_f_4078_690)">
<ellipse cx="219.024" cy="189.421" rx="75.7684" ry="87.5684" fill="#0A0A0A"/>
</g>
</g>
<defs>
<filter id="filter0_f_4078_690" x="23.02" y="-103.674" width="189.132" height="237.987" filterUnits="userSpaceOnUse" color-interpolation-filters="sRGB">
<feFlood flood-opacity="0" result="BackgroundImageFix"/>
<feBlend mode="normal" in="SourceGraphic" in2="BackgroundImageFix" result="shape"/>
<feGaussianBlur stdDeviation="30.3074" result="effect1_foregroundBlur_4078_690"/>
</filter>
<filter id="filter1_f_4078_690" x="6.45948" y="-147.562" width="222.255" height="237.987" filterUnits="userSpaceOnUse" color-interpolation-filters="sRGB">
<feFlood flood-opacity="0" result="BackgroundImageFix"/>
<feBlend mode="normal" in="SourceGraphic" in2="BackgroundImageFix" result="shape"/>
<feGaussianBlur stdDeviation="30.3074" result="effect1_foregroundBlur_4078_690"/>
</filter>
<filter id="filter2_f_4078_690" x="-191.119" y="-8.11548" width="333.381" height="356.981" filterUnits="userSpaceOnUse" color-interpolation-filters="sRGB">
<feFlood flood-opacity="0" result="BackgroundImageFix"/>
<feBlend mode="normal" in="SourceGraphic" in2="BackgroundImageFix" result="shape"/>
<feGaussianBlur stdDeviation="45.4611" result="effect1_foregroundBlur_4078_690"/>
</filter>
<filter id="filter3_f_4078_690" x="-138.949" y="222.917" width="333.381" height="356.981" filterUnits="userSpaceOnUse" color-interpolation-filters="sRGB">
<feFlood flood-opacity="0" result="BackgroundImageFix"/>
<feBlend mode="normal" in="SourceGraphic" in2="BackgroundImageFix" result="shape"/>
<feGaussianBlur stdDeviation="45.4611" result="effect1_foregroundBlur_4078_690"/>
</filter>
<filter id="filter4_f_4078_690" x="52.3337" y="10.9304" width="333.381" height="356.981" filterUnits="userSpaceOnUse" color-interpolation-filters="sRGB">
<feFlood flood-opacity="0" result="BackgroundImageFix"/>
<feBlend mode="normal" in="SourceGraphic" in2="BackgroundImageFix" result="shape"/>
<feGaussianBlur stdDeviation="45.4611" result="effect1_foregroundBlur_4078_690"/>
</filter>
<linearGradient id="paint0_linear_4078_690" x1="4.62709e-06" y1="152.924" x2="234.362" y2="136.758" gradientUnits="userSpaceOnUse">
<stop stop-color="#161616"/>
<stop offset="1" stop-color="#101010"/>
</linearGradient>
<linearGradient id="paint1_linear_4078_690" x1="4.62709e-06" y1="152.924" x2="234.362" y2="136.758" gradientUnits="userSpaceOnUse">
<stop stop-color="#1F1F1F"/>
<stop offset="1" stop-color="#090909"/>
</linearGradient>
</defs>
</svg>
