<svg width="53" height="53" viewBox="0 0 53 53" fill="none" xmlns="http://www.w3.org/2000/svg">
<path d="M47.5808 0.0327402C47.5265 0.0283483 47.4806 0 47.4239 0H23.9831C20.3765 0 17.4414 2.93504 17.4414 6.54166V8.72209C17.4414 9.92589 18.418 10.9029 19.6218 10.9029C20.8256 10.9029 21.8022 9.92589 21.8022 8.72209V6.54166C21.8022 5.34026 22.7813 4.36124 23.9831 4.36124H34.1421L33.4769 4.58364C31.711 5.19412 30.5247 6.85789 30.5247 8.72209V41.4304H23.9831C22.7813 41.4304 21.8022 40.4514 21.8022 39.25V34.8887C21.8022 33.6853 20.8256 32.7083 19.6218 32.7083C18.418 32.7083 17.4414 33.6853 17.4414 34.8887V39.25C17.4414 42.8566 20.3765 45.7916 23.9831 45.7916H30.5247V47.9721C30.5247 50.3773 32.4804 52.3333 34.8856 52.3333C35.3523 52.3333 35.7951 52.2658 36.2746 52.1173L49.3755 47.7497C51.1439 47.1392 52.3301 45.4754 52.3301 43.6112V4.36124C52.3301 1.81868 50.1385 -0.174482 47.5808 0.0327402Z" fill="#046059"/>
<path d="M23.347 20.2648L14.6249 11.5427C14.0013 10.919 13.0638 10.7314 12.2481 11.0696C11.4347 11.4073 10.9029 12.2035 10.9029 13.0843V19.6259H2.18042C0.977018 19.6259 0 20.603 0 21.8064C0 23.0102 0.977018 23.9872 2.18042 23.9872H10.9029V30.5289C10.9029 31.4096 11.4347 32.2054 12.2481 32.5436C13.0638 32.8814 14.0013 32.6941 14.6249 32.0704L23.347 23.348C24.1998 22.4955 24.1998 21.1176 23.347 20.2648Z" fill="#046059"/>
</svg>
