<svg width="997" height="960" viewBox="0 0 997 960" fill="none" xmlns="http://www.w3.org/2000/svg" xmlns:xlink="http://www.w3.org/1999/xlink">
<mask id="mask0_6001_4031" style="mask-type:alpha" maskUnits="userSpaceOnUse" x="0" y="-24" width="997" height="1040">
<path d="M997 -24L940.5 501.5L890 987V1015.5H0V-24H997Z" fill="#048B81"/>
</mask>
<g mask="url(#mask0_6001_4031)">
<path d="M997 -24L940.5 501.5L1009.5 432.5L940.5 1015.5H0V-24H997Z" fill="#05E9D8"/>
<path opacity="0.0344828" d="M366.288 814.177C334.982 810.886 306.936 790.177 283.038 755.393C259.141 720.611 239.433 671.814 224.8 612.49C195.535 493.848 186.594 333.221 204.933 158.737C223.272 -15.7464 265.414 -171.005 318.706 -280.97C345.354 -335.954 374.776 -379.588 405.383 -408.642C435.991 -437.697 467.729 -452.122 499.035 -448.832C530.341 -445.541 558.387 -424.833 582.285 -390.048C606.182 -355.266 625.89 -306.469 640.523 -247.145C669.788 -128.503 678.729 32.1241 660.39 206.608C642.051 381.091 599.909 536.35 546.616 646.315C519.969 701.299 490.546 744.933 459.94 773.987C429.332 803.042 397.593 817.467 366.288 814.177Z" stroke="url(#paint0_linear_6001_4031)" stroke-opacity="0.52" stroke-width="1.03448"/>
<path opacity="0.0689655" d="M302.1 769.513C271.079 764.6 244.159 742.876 222.057 707.651C199.956 672.427 182.712 623.761 171.037 565.103C147.687 447.791 146.634 290.631 173.431 121.44C200.228 -47.7508 249.795 -196.892 308.253 -301.248C337.484 -353.427 368.922 -394.383 400.826 -421.053C432.732 -447.724 465.047 -460.066 496.068 -455.153C527.088 -450.239 554.008 -428.515 576.11 -393.291C598.211 -358.067 615.455 -309.401 627.131 -250.742C650.48 -133.43 651.534 23.729 624.736 192.92C597.939 362.111 548.372 511.253 489.914 615.608C460.684 667.787 429.245 708.743 397.341 735.413C365.436 762.084 333.12 774.426 302.1 769.513Z" stroke="url(#paint1_linear_6001_4031)" stroke-opacity="0.52" stroke-width="1.06897"/>
<path opacity="0.103448" d="M242.159 722.132C211.507 715.617 185.742 692.938 165.417 657.363C145.093 621.788 130.246 573.374 121.419 515.524C103.766 399.829 110.214 246.513 144.968 83.0105C179.721 -80.492 236.19 -223.175 299.374 -321.689C330.967 -370.947 364.223 -409.136 397.26 -433.369C430.297 -457.601 463.059 -467.84 493.711 -461.325C524.362 -454.81 550.128 -432.131 570.452 -396.556C590.776 -360.981 605.624 -312.567 614.451 -254.717C632.103 -139.021 625.655 14.2943 590.902 177.797C556.148 341.299 499.68 483.983 436.495 582.496C404.902 631.754 371.646 669.943 338.61 694.176C305.573 718.409 272.81 728.647 242.159 722.132Z" stroke="url(#paint2_linear_6001_4031)" stroke-opacity="0.52" stroke-width="1.10345"/>
<path opacity="0.137931" d="M186.583 672.342C156.382 664.25 131.798 640.674 113.227 604.837C94.6566 568.998 82.132 520.951 76.038 464.044C63.8505 350.232 77.3965 201.104 119.587 43.6485C161.777 -113.807 224.61 -249.729 292.07 -342.199C325.801 -388.435 360.672 -423.783 394.673 -445.534C428.675 -467.286 461.753 -475.41 491.954 -467.318C522.154 -459.225 546.739 -435.65 565.309 -399.813C583.88 -363.974 596.404 -315.927 602.498 -259.02C614.686 -145.208 601.14 3.91967 558.95 161.376C516.76 318.831 453.927 454.753 386.466 547.223C352.735 593.459 317.865 628.807 283.863 650.558C249.862 672.31 216.783 680.434 186.583 672.342Z" stroke="url(#paint3_linear_6001_4031)" stroke-opacity="0.52" stroke-width="1.13793"/>
<path opacity="0.172414" d="M135.469 620.45C105.801 610.81 82.4195 586.4 65.5753 550.383C48.7306 514.365 38.4508 466.792 34.9676 410.951C28.0014 299.271 48.2274 154.644 97.3195 3.55448C146.412 -147.535 215.058 -276.43 286.337 -362.685C321.978 -405.815 358.257 -438.259 393.056 -457.498C427.853 -476.735 461.117 -482.741 490.786 -473.101C520.454 -463.461 543.835 -439.05 560.679 -403.033C577.524 -367.015 587.804 -319.443 591.287 -263.601C598.253 -151.922 578.027 -7.2948 528.935 143.795C479.843 294.885 411.197 423.779 339.917 510.035C304.277 553.164 267.998 585.609 233.199 604.847C198.402 624.085 165.138 630.09 135.469 620.45Z" stroke="url(#paint4_linear_6001_4031)" stroke-opacity="0.52" stroke-width="1.17241"/>
<path opacity="0.206897" d="M88.8949 566.774C59.8367 555.619 37.6797 530.433 22.5302 494.317C7.37994 458.2 -0.738247 411.202 -1.7379 356.541C-3.73717 247.221 22.7379 107.376 78.1846 -37.068C133.631 -181.511 207.531 -303.152 282.166 -383.055C319.485 -423.007 356.966 -452.501 392.392 -469.204C427.816 -485.906 461.135 -489.798 490.193 -478.643C519.251 -467.489 541.408 -442.302 556.558 -406.187C571.708 -370.069 579.826 -323.071 580.826 -268.41C582.825 -159.09 556.35 -19.2449 500.903 125.199C445.457 269.642 371.557 391.283 296.922 471.185C259.603 511.138 222.122 540.632 186.696 557.335C151.272 574.037 117.953 577.928 88.8949 566.774Z" stroke="url(#paint5_linear_6001_4031)" stroke-opacity="0.52" stroke-width="1.2069"/>
<path opacity="0.241379" d="M46.9167 511.628C18.5455 498.996 -2.3701 473.094 -15.8601 436.957C-29.3511 400.816 -35.3949 354.486 -34.0428 301.108C-31.3386 194.355 0.943986 59.5393 62.1881 -78.0172C123.432 -215.574 202.018 -329.774 279.542 -403.215C318.305 -439.937 356.779 -466.446 392.664 -480.603C428.546 -494.759 461.79 -496.547 490.162 -483.916C518.533 -471.284 539.448 -445.382 552.938 -409.244C566.429 -373.104 572.473 -326.774 571.121 -273.396C568.417 -166.642 536.134 -31.827 474.89 105.73C413.646 243.286 335.06 357.486 257.536 430.927C218.773 467.649 180.299 494.159 144.414 508.315C108.532 522.471 75.2879 524.26 46.9167 511.628Z" stroke="url(#paint6_linear_6001_4031)" stroke-opacity="0.52" stroke-width="1.24138"/>
<path opacity="0.275862" d="M9.57018 455.331C-18.0394 441.263 -37.6993 414.704 -49.5682 378.617C-61.4382 342.526 -65.4985 296.949 -61.9303 244.948C-54.794 140.947 -17.1538 11.3769 49.3235 -119.092C115.801 -249.561 198.501 -356.172 278.445 -423.076C318.418 -456.528 357.677 -480.033 393.852 -491.643C430.023 -503.253 463.065 -502.958 490.675 -488.89C518.285 -474.823 537.944 -448.264 549.813 -412.177C561.683 -376.086 565.744 -330.509 562.175 -278.508C555.039 -174.507 517.399 -44.9366 450.922 85.5324C384.444 216.001 301.744 322.612 221.8 389.516C181.828 422.968 142.568 446.473 106.393 458.083C70.222 469.693 37.1798 469.398 9.57018 455.331Z" stroke="url(#paint7_linear_6001_4031)" stroke-opacity="0.52" stroke-width="1.27586"/>
<path opacity="0.310345" d="M-23.1292 398.198C-49.9051 382.739 -68.2976 355.583 -78.5867 319.614C-88.8771 283.642 -91.048 238.896 -85.4024 188.354C-74.1113 87.27 -31.5695 -36.8727 39.572 -160.093C110.713 -283.314 196.953 -382.228 278.849 -442.548C319.797 -472.708 359.634 -493.201 395.932 -502.276C432.226 -511.349 464.94 -508.999 491.716 -493.54C518.492 -478.08 536.884 -450.924 547.173 -414.956C557.464 -378.984 559.635 -334.238 553.989 -283.695C542.698 -182.612 500.156 -58.4691 429.015 64.7515C357.873 187.972 271.633 286.886 189.738 347.206C148.789 377.367 108.953 397.859 72.6548 406.934C36.3609 416.007 3.64682 413.657 -23.1292 398.198Z" stroke="url(#paint8_linear_6001_4031)" stroke-opacity="0.52" stroke-width="1.31034"/>
<path opacity="0.344828" d="M-51.1864 340.544C-102.934 306.939 -119.654 229.708 -104.479 131.616C-89.3158 33.5936 -42.3323 -84.9725 32.9024 -200.824C108.137 -316.675 197.343 -407.822 280.723 -461.544C364.162 -515.304 441.517 -531.442 493.265 -497.837C545.013 -464.231 561.732 -387 546.558 -288.909C531.394 -190.886 484.411 -72.3198 409.176 43.5314C333.942 159.383 244.736 250.529 161.355 304.251C77.9162 358.011 0.56151 374.15 -51.1864 340.544Z" stroke="url(#paint9_linear_6001_4031)" stroke-opacity="0.52" stroke-width="1.34483"/>
<path opacity="0.37931" d="M-74.6264 282.683C-124.432 246.497 -137.963 169.927 -119.2 75.0243C-100.449 -19.8156 -49.486 -132.689 29.2716 -241.089C108.029 -349.49 199.63 -432.839 284.033 -479.979C368.493 -527.15 445.496 -537.943 495.302 -501.757C545.108 -465.571 558.639 -389.001 539.876 -294.098C521.125 -199.258 470.162 -86.3851 391.404 22.0154C312.647 130.416 221.046 213.765 136.643 260.905C52.1828 308.076 -24.8205 318.869 -74.6264 282.683Z" stroke="url(#paint10_linear_6001_4031)" stroke-opacity="0.52" stroke-width="1.37931"/>
<path opacity="0.413793" d="M-93.4943 224.92C-141.231 186.264 -151.686 110.473 -129.621 18.8603C-107.571 -72.6959 -53.0885 -179.793 28.6248 -280.7C110.338 -381.608 203.767 -457.166 288.738 -497.771C373.762 -538.4 450.07 -543.932 497.806 -505.275C545.543 -466.619 555.998 -390.828 533.933 -299.215C511.883 -207.659 457.401 -100.562 375.687 0.345358C293.974 101.253 200.545 176.811 115.574 217.415C30.5504 258.045 -45.7577 263.577 -93.4943 224.92Z" stroke="url(#paint11_linear_6001_4031)" stroke-opacity="0.52" stroke-width="1.41379"/>
<path opacity="0.448276" d="M-107.854 167.559C-153.401 126.549 -160.894 51.6451 -135.817 -36.5982C-110.754 -124.791 -53.212 -226.061 30.8955 -319.471C115.003 -412.882 209.703 -480.695 294.793 -514.839C379.931 -549.003 455.208 -549.38 500.755 -508.37C546.301 -467.359 553.795 -392.456 528.717 -304.212C503.655 -216.02 446.112 -114.75 362.005 -21.339C277.897 72.0718 183.197 139.884 98.1075 174.028C12.9689 208.192 -62.308 208.569 -107.854 167.559Z" stroke="url(#paint12_linear_6001_4031)" stroke-opacity="0.52" stroke-width="1.44828"/>
<path opacity="0.482759" d="M-117.79 110.895C-161.031 67.6537 -165.682 -6.26562 -137.879 -91.0803C-110.091 -175.851 -49.9423 -271.273 36.0061 -357.222C121.954 -443.17 217.377 -503.318 302.148 -531.107C386.962 -558.91 460.882 -554.259 504.123 -511.018C547.364 -467.776 552.015 -393.857 524.212 -309.042C496.424 -224.272 436.276 -128.849 350.327 -42.9006C264.379 43.0477 168.956 103.196 84.1857 130.984C-0.629039 158.787 -74.5484 154.136 -117.79 110.895Z" stroke="url(#paint13_linear_6001_4031)" stroke-opacity="0.52" stroke-width="1.48276"/>
<path opacity="0.517241" d="M-123.402 55.2158C-164.231 9.87112 -166.158 -62.9755 -135.915 -144.323C-105.685 -225.633 -43.3779 -315.221 43.8684 -393.778C131.115 -472.335 226.725 -524.936 310.749 -546.501C394.812 -568.076 467.058 -558.544 507.887 -513.199C548.715 -467.854 550.643 -395.008 520.399 -313.66C490.17 -232.351 427.863 -142.763 340.616 -64.2056C253.37 14.3513 157.76 66.9527 73.736 88.5174C-10.3274 110.092 -82.5735 100.561 -123.402 55.2158Z" stroke="url(#paint14_linear_6001_4031)" stroke-opacity="0.52" stroke-width="1.51724"/>
<path opacity="0.551724" d="M-124.811 0.800354C-163.126 -46.5147 -162.452 -118.21 -130.049 -196.073C-97.6585 -273.903 -33.6307 -357.698 54.3836 -428.971C142.398 -500.243 237.674 -545.45 320.538 -560.95C403.436 -576.457 473.705 -562.21 512.02 -514.895C550.335 -467.58 549.661 -395.884 517.258 -318.022C484.867 -240.192 420.84 -156.396 332.825 -85.1239C244.811 -13.8513 149.535 31.3553 66.671 46.8557C-16.2271 62.3627 -86.496 48.1155 -124.811 0.800354Z" stroke="url(#paint15_linear_6001_4031)" stroke-opacity="0.52" stroke-width="1.55172"/>
<path opacity="0.586207" d="M-122.153 -52.0823C-157.861 -101.23 -154.708 -171.706 -120.42 -246.084C-86.1448 -320.437 -20.8242 -398.511 67.4431 -462.641C155.71 -526.771 250.149 -564.768 331.454 -574.39C412.787 -584.015 480.788 -565.236 516.496 -516.088C552.204 -466.94 549.05 -396.465 514.763 -322.086C480.488 -247.734 415.167 -169.66 326.9 -105.53C238.632 -41.3996 144.194 -3.40231 62.8892 6.21927C-18.4446 15.8443 -86.4453 -2.93452 -122.153 -52.0823Z" stroke="url(#paint16_linear_6001_4031)" stroke-opacity="0.52" stroke-width="1.58621"/>
<path opacity="0.62069" d="M-115.582 -103.174C-148.597 -154.013 -143.085 -223.209 -107.183 -294.124C-71.2921 -365.019 -5.09397 -437.472 82.9288 -494.635C170.952 -551.797 264.066 -582.803 343.43 -586.756C422.817 -590.71 488.272 -567.6 521.287 -516.762C554.302 -465.923 548.79 -396.727 512.889 -325.812C476.997 -254.917 410.799 -182.464 322.777 -125.301C234.754 -68.1388 141.639 -37.1332 62.2756 -33.1804C-17.1116 -29.2264 -82.5671 -52.3358 -115.582 -103.174Z" stroke="url(#paint17_linear_6001_4031)" stroke-opacity="0.52" stroke-width="1.62069"/>
<path opacity="0.655172" d="M-105.266 -152.229C-135.509 -204.612 -127.761 -272.479 -90.5064 -339.97C-53.2609 -407.445 13.4138 -474.405 100.714 -524.807C188.013 -575.21 279.339 -599.472 356.397 -597.99C433.474 -596.508 496.122 -569.285 526.365 -516.902C556.609 -464.519 548.86 -396.653 511.606 -329.161C474.36 -261.686 407.686 -194.726 320.386 -144.324C233.086 -93.9212 141.76 -69.659 64.702 -71.1411C-12.3744 -72.6236 -75.0225 -99.8464 -105.266 -152.229Z" stroke="url(#paint18_linear_6001_4031)" stroke-opacity="0.52" stroke-width="1.65517"/>
<g filter="url(#filter0_f_6001_4031)">
<ellipse cx="638" cy="976.906" rx="526" ry="312.906" fill="#048B81"/>
</g>
<g filter="url(#filter1_f_6001_4031)">
<ellipse cx="-94.9989" cy="408.5" rx="526" ry="157.5" transform="rotate(-15 -94.9989 408.5)" fill="#05E9D8"/>
</g>
<g filter="url(#filter2_f_6001_4031)">
<ellipse cx="432.688" cy="1207.69" rx="354.018" ry="126.374" transform="rotate(45 432.688 1207.69)" fill="#05E9D8"/>
</g>
<g opacity="0.1" filter="url(#filter3_f_6001_4031)">
<ellipse cx="1065.69" cy="280.689" rx="354.018" ry="126.374" transform="rotate(45 1065.69 280.689)" fill="#05E9D8"/>
</g>
<g opacity="0.3" filter="url(#filter4_f_6001_4031)">
<ellipse cx="337.688" cy="-74.3113" rx="354.018" ry="126.374" transform="rotate(45 337.688 -74.3113)" fill="#05E9D8"/>
</g>
<g style="mix-blend-mode:color-dodge" opacity="0.3">
<rect x="-55.4922" y="-24" width="2014.99" height="1002" fill="url(#pattern0_6001_4031)"/>
</g>
</g>
<g opacity="0.2" filter="url(#filter5_f_6001_4031)">
<ellipse cx="-41.2229" cy="344.452" rx="354.018" ry="126.374" transform="rotate(30 -41.2229 344.452)" fill="#05E9D8"/>
</g>
<g filter="url(#filter6_b_6001_4031)">
<path d="M339.66 124.844L341.521 132.7L331.544 126.545C330.973 126.193 330.338 125.957 329.676 125.85C329.014 125.743 328.337 125.768 327.684 125.922C327.032 126.077 326.416 126.359 325.872 126.751C325.328 127.144 324.867 127.64 324.515 128.211C324.163 128.782 323.927 129.416 323.82 130.078C323.713 130.741 323.738 131.417 323.892 132.07C324.047 132.723 324.329 133.339 324.721 133.882C325.114 134.426 325.61 134.887 326.181 135.239L336.159 141.394L328.303 143.256C326.987 143.568 325.849 144.39 325.14 145.54C324.43 146.691 324.206 148.077 324.518 149.393C324.83 150.709 325.651 151.847 326.802 152.557C327.953 153.267 329.339 153.491 330.655 153.179L341.404 150.631C340.292 156.388 340.957 162.347 343.311 167.717C345.665 173.087 349.597 177.613 354.585 180.695C375.017 193.56 416.565 196.932 421.351 197.283C422.745 197.553 424.184 197.469 425.538 197.04C426.891 196.611 428.115 195.849 429.098 194.825C430.082 193.801 430.792 192.546 431.166 191.177C431.54 189.807 431.564 188.365 431.238 186.984C430.957 185.809 430.431 184.708 429.694 183.751C427.945 180.829 416.547 162.068 402.713 146.954L402.536 146.76C396.904 140.627 390.873 135.114 384.952 131.521C379.954 128.439 374.136 126.953 368.272 127.26C362.408 127.568 356.778 129.655 352.13 133.243L349.582 122.493C349.271 121.177 348.449 120.039 347.298 119.329C346.147 118.619 344.761 118.395 343.445 118.707C342.129 119.019 340.991 119.841 340.282 120.992C339.572 122.143 339.348 123.529 339.66 124.844ZM379.599 140.222L379.645 140.25C383.863 142.792 388.215 146.564 392.439 150.899L385.117 162.77C384.406 163.923 384.182 165.311 384.494 166.629C384.807 167.947 385.63 169.087 386.783 169.798C387.936 170.51 389.324 170.734 390.642 170.421C391.96 170.109 393.1 169.286 393.811 168.133L399.559 158.815C408.799 169.852 416.57 181.914 419.675 186.911C410.652 186.093 381.697 182.903 364.454 174.522L374.138 158.821C374.849 157.668 375.073 156.28 374.761 154.962C374.449 153.644 373.626 152.504 372.473 151.793C371.32 151.081 369.932 150.857 368.613 151.17C367.295 151.482 366.155 152.305 365.444 153.458L355.999 168.771C352.945 165.445 351.197 161.125 351.079 156.611C350.961 152.097 352.482 147.692 355.359 144.212C358.236 140.731 362.276 138.41 366.732 137.676C371.187 136.943 375.758 137.847 379.599 140.222Z" fill="url(#paint19_linear_6001_4031)" fill-opacity="0.4"/>
</g>
<g filter="url(#filter7_f_6001_4031)">
<path d="M187.288 712.432L175.948 715.865C175.047 716.138 174.073 716.036 173.241 715.582C172.408 715.128 171.784 714.36 171.508 713.445C171.231 712.531 171.323 711.546 171.764 710.706C172.206 709.867 172.96 709.242 173.861 708.969L183.38 706.087L185.281 699.659C185.447 699.091 185.75 698.575 186.162 698.156C186.575 697.738 187.084 697.43 187.645 697.26C188.205 697.09 188.8 697.064 189.375 697.184C189.95 697.303 190.489 697.565 190.942 697.945L200.04 705.542L200.955 702.441C201.123 701.875 201.427 701.36 201.839 700.943C202.252 700.525 202.761 700.219 203.321 700.05L210.115 697.994C211.016 697.721 211.99 697.823 212.822 698.276C213.655 698.73 214.279 699.499 214.555 700.413C214.832 701.328 214.74 702.313 214.299 703.152C213.857 703.992 213.103 704.617 212.202 704.889L207.221 706.398L205.317 712.827C205.15 713.395 204.848 713.911 204.435 714.33C204.023 714.748 203.514 715.056 202.953 715.226C202.392 715.395 201.798 715.422 201.223 715.302C200.647 715.183 200.109 714.921 199.656 714.541L190.558 706.944L189.642 710.044C189.475 710.609 189.173 711.122 188.762 711.539C188.352 711.955 187.845 712.262 187.288 712.432ZM207.592 671.155C201.897 672.88 197.526 676.69 195.295 681.641C190.684 678.762 184.942 678.013 179.244 679.738C174.641 681.124 170.719 684.185 168.23 688.335C165.741 692.485 164.859 697.431 165.754 702.227C165.841 702.693 166.019 703.138 166.276 703.537C166.532 703.935 166.864 704.279 167.251 704.549C168.033 705.093 168.994 705.303 169.922 705.132C170.851 704.961 171.672 704.422 172.203 703.635C172.466 703.245 172.651 702.806 172.746 702.343C172.841 701.88 172.845 701.401 172.757 700.935C172.19 697.886 172.751 694.742 174.332 692.103C175.914 689.465 178.406 687.517 181.331 686.633C186.378 685.106 191.419 686.528 194.491 690.347C194.937 690.907 195.538 691.32 196.215 691.534C196.893 691.749 197.616 691.754 198.293 691.549C198.969 691.344 199.568 690.938 200.013 690.385C200.458 689.831 200.728 689.154 200.789 688.44C201.227 683.559 204.633 679.579 209.68 678.051C212.835 677.095 216.247 677.449 219.165 679.035C222.084 680.622 224.271 683.311 225.247 686.512C227.806 694.965 222.952 705.327 218.427 712.528C215.507 717.12 212.211 721.455 208.575 725.488C204.937 724.566 196.65 722.197 188.862 718.053C188.448 717.831 187.995 717.695 187.53 717.65C187.065 717.605 186.596 717.654 186.151 717.793C185.706 717.931 185.293 718.158 184.936 718.459C184.578 718.76 184.283 719.13 184.068 719.548C183.853 719.966 183.722 720.423 183.681 720.894C183.641 721.364 183.693 721.839 183.834 722.291C184.118 723.204 184.748 723.968 185.585 724.415C196.78 730.376 208.589 732.883 209.086 732.983C209.663 733.103 210.26 733.076 210.822 732.906C211.385 732.735 211.896 732.427 212.31 732.007C213.356 730.931 238.333 705.24 232.04 684.455C230.508 679.427 227.074 675.203 222.491 672.709C217.907 670.216 212.549 669.657 207.592 671.155Z" fill="url(#paint20_linear_6001_4031)"/>
</g>
<defs>
<filter id="filter0_f_6001_4031" x="-200.906" y="351.094" width="1677.81" height="1251.62" filterUnits="userSpaceOnUse" color-interpolation-filters="sRGB">
<feFlood flood-opacity="0" result="BackgroundImageFix"/>
<feBlend mode="normal" in="SourceGraphic" in2="BackgroundImageFix" result="shape"/>
<feGaussianBlur stdDeviation="156.453" result="effect1_foregroundBlur_6001_4031"/>
</filter>
<filter id="filter1_f_6001_4031" x="-917.64" y="-108.56" width="1645.28" height="1034.12" filterUnits="userSpaceOnUse" color-interpolation-filters="sRGB">
<feFlood flood-opacity="0" result="BackgroundImageFix"/>
<feBlend mode="normal" in="SourceGraphic" in2="BackgroundImageFix" result="shape"/>
<feGaussianBlur stdDeviation="156.453" result="effect1_foregroundBlur_6001_4031"/>
</filter>
<filter id="filter2_f_6001_4031" x="-92.6091" y="682.391" width="1050.59" height="1050.6" filterUnits="userSpaceOnUse" color-interpolation-filters="sRGB">
<feFlood flood-opacity="0" result="BackgroundImageFix"/>
<feBlend mode="normal" in="SourceGraphic" in2="BackgroundImageFix" result="shape"/>
<feGaussianBlur stdDeviation="129.713" result="effect1_foregroundBlur_6001_4031"/>
</filter>
<filter id="filter3_f_6001_4031" x="540.391" y="-244.609" width="1050.59" height="1050.6" filterUnits="userSpaceOnUse" color-interpolation-filters="sRGB">
<feFlood flood-opacity="0" result="BackgroundImageFix"/>
<feBlend mode="normal" in="SourceGraphic" in2="BackgroundImageFix" result="shape"/>
<feGaussianBlur stdDeviation="129.713" result="effect1_foregroundBlur_6001_4031"/>
</filter>
<filter id="filter4_f_6001_4031" x="-187.609" y="-599.61" width="1050.59" height="1050.6" filterUnits="userSpaceOnUse" color-interpolation-filters="sRGB">
<feFlood flood-opacity="0" result="BackgroundImageFix"/>
<feBlend mode="normal" in="SourceGraphic" in2="BackgroundImageFix" result="shape"/>
<feGaussianBlur stdDeviation="129.713" result="effect1_foregroundBlur_6001_4031"/>
</filter>
<pattern id="pattern0_6001_4031" patternContentUnits="objectBoundingBox" width="1" height="1">
<use xlink:href="#image0_6001_4031" transform="scale(0.000545256 0.00109649)"/>
</pattern>
<filter id="filter5_f_6001_4031" x="-613.742" y="-123.113" width="1145.04" height="935.13" filterUnits="userSpaceOnUse" color-interpolation-filters="sRGB">
<feFlood flood-opacity="0" result="BackgroundImageFix"/>
<feBlend mode="normal" in="SourceGraphic" in2="BackgroundImageFix" result="shape"/>
<feGaussianBlur stdDeviation="129.713" result="effect1_foregroundBlur_6001_4031"/>
</filter>
<filter id="filter6_b_6001_4031" x="283.5" y="67.5" width="184.836" height="184.836" filterUnits="userSpaceOnUse" color-interpolation-filters="sRGB">
<feFlood flood-opacity="0" result="BackgroundImageFix"/>
<feGaussianBlur in="BackgroundImageFix" stdDeviation="3.25"/>
<feComposite in2="SourceAlpha" operator="in" result="effect1_backgroundBlur_6001_4031"/>
<feBlend mode="normal" in="SourceGraphic" in2="effect1_backgroundBlur_6001_4031" result="shape"/>
</filter>
<filter id="filter7_f_6001_4031" x="134" y="636" width="136.328" height="136.327" filterUnits="userSpaceOnUse" color-interpolation-filters="sRGB">
<feFlood flood-opacity="0" result="BackgroundImageFix"/>
<feBlend mode="normal" in="SourceGraphic" in2="BackgroundImageFix" result="shape"/>
<feGaussianBlur stdDeviation="2" result="effect1_foregroundBlur_6001_4031"/>
</filter>
<linearGradient id="paint0_linear_6001_4031" x1="569.278" y1="640.329" x2="20.1044" y2="394.046" gradientUnits="userSpaceOnUse">
<stop stop-color="#05E9D8"/>
<stop offset="1" stop-color="#FF2A6D"/>
</linearGradient>
<linearGradient id="paint1_linear_6001_4031" x1="512.794" y1="611.019" x2="-18.6397" y2="334.068" gradientUnits="userSpaceOnUse">
<stop stop-color="#05E9D8"/>
<stop offset="1" stop-color="#FF2A6D"/>
</linearGradient>
<linearGradient id="paint2_linear_6001_4031" x1="459.509" y1="579.309" x2="-52.3294" y2="272.812" gradientUnits="userSpaceOnUse">
<stop stop-color="#05E9D8"/>
<stop offset="1" stop-color="#FF2A6D"/>
</linearGradient>
<linearGradient id="paint3_linear_6001_4031" x1="409.53" y1="545.44" x2="-80.9121" y2="210.636" gradientUnits="userSpaceOnUse">
<stop stop-color="#05E9D8"/>
<stop offset="1" stop-color="#FF2A6D"/>
</linearGradient>
<linearGradient id="paint4_linear_6001_4031" x1="362.947" y1="509.653" x2="-104.358" y2="147.898" gradientUnits="userSpaceOnUse">
<stop stop-color="#05E9D8"/>
<stop offset="1" stop-color="#FF2A6D"/>
</linearGradient>
<linearGradient id="paint5_linear_6001_4031" x1="319.833" y1="472.195" x2="-122.659" y2="84.9616" gradientUnits="userSpaceOnUse">
<stop stop-color="#05E9D8"/>
<stop offset="1" stop-color="#FF2A6D"/>
</linearGradient>
<linearGradient id="paint6_linear_6001_4031" x1="280.247" y1="433.315" x2="-135.832" y2="22.1917" gradientUnits="userSpaceOnUse">
<stop stop-color="#05E9D8"/>
<stop offset="1" stop-color="#FF2A6D"/>
</linearGradient>
<linearGradient id="paint7_linear_6001_4031" x1="244.229" y1="393.263" x2="-143.918" y2="-40.0477" gradientUnits="userSpaceOnUse">
<stop stop-color="#05E9D8"/>
<stop offset="1" stop-color="#FF2A6D"/>
</linearGradient>
<linearGradient id="paint8_linear_6001_4031" x1="211.805" y1="352.29" x2="-146.979" y2="-101.393" gradientUnits="userSpaceOnUse">
<stop stop-color="#05E9D8"/>
<stop offset="1" stop-color="#FF2A6D"/>
</linearGradient>
<linearGradient id="paint9_linear_6001_4031" x1="182.981" y1="310.644" x2="-145.103" y2="-161.483" gradientUnits="userSpaceOnUse">
<stop stop-color="#05E9D8"/>
<stop offset="1" stop-color="#FF2A6D"/>
</linearGradient>
<linearGradient id="paint10_linear_6001_4031" x1="157.751" y1="268.574" x2="-138.402" y2="-219.959" gradientUnits="userSpaceOnUse">
<stop stop-color="#05E9D8"/>
<stop offset="1" stop-color="#FF2A6D"/>
</linearGradient>
<linearGradient id="paint11_linear_6001_4031" x1="136.09" y1="226.324" x2="-127.012" y2="-276.467" gradientUnits="userSpaceOnUse">
<stop stop-color="#05E9D8"/>
<stop offset="1" stop-color="#FF2A6D"/>
</linearGradient>
<linearGradient id="paint12_linear_6001_4031" x1="117.959" y1="184.136" x2="-111.094" y2="-330.657" gradientUnits="userSpaceOnUse">
<stop stop-color="#05E9D8"/>
<stop offset="1" stop-color="#FF2A6D"/>
</linearGradient>
<linearGradient id="paint13_linear_6001_4031" x1="103.303" y1="142.245" x2="-90.8348" y2="-382.188" gradientUnits="userSpaceOnUse">
<stop stop-color="#05E9D8"/>
<stop offset="1" stop-color="#FF2A6D"/>
</linearGradient>
<linearGradient id="paint14_linear_6001_4031" x1="92.0519" y1="100.882" x2="-66.4458" y2="-430.722" gradientUnits="userSpaceOnUse">
<stop stop-color="#05E9D8"/>
<stop offset="1" stop-color="#FF2A6D"/>
</linearGradient>
<linearGradient id="paint15_linear_6001_4031" x1="84.1222" y1="60.2707" x2="-38.1659" y2="-475.935" gradientUnits="userSpaceOnUse">
<stop stop-color="#05E9D8"/>
<stop offset="1" stop-color="#FF2A6D"/>
</linearGradient>
<linearGradient id="paint16_linear_6001_4031" x1="79.4154" y1="20.6278" x2="-6.26089" y2="-517.508" gradientUnits="userSpaceOnUse">
<stop stop-color="#05E9D8"/>
<stop offset="1" stop-color="#FF2A6D"/>
</linearGradient>
<linearGradient id="paint17_linear_6001_4031" x1="77.8199" y1="-17.8387" x2="28.9751" y2="-555.137" gradientUnits="userSpaceOnUse">
<stop stop-color="#05E9D8"/>
<stop offset="1" stop-color="#FF2A6D"/>
</linearGradient>
<linearGradient id="paint18_linear_6001_4031" x1="79.2112" y1="-54.9299" x2="67.2182" y2="-588.528" gradientUnits="userSpaceOnUse">
<stop stop-color="#05E9D8"/>
<stop offset="1" stop-color="#FF2A6D"/>
</linearGradient>
<linearGradient id="paint19_linear_6001_4031" x1="364.944" y1="113.612" x2="386.891" y2="206.223" gradientUnits="userSpaceOnUse">
<stop stop-color="#07F1E0"/>
<stop offset="1" stop-color="#048B81" stop-opacity="0.4"/>
</linearGradient>
<linearGradient id="paint20_linear_6001_4031" x1="193.464" y1="675.433" x2="210.86" y2="732.894" gradientUnits="userSpaceOnUse">
<stop stop-color="#07F1E0"/>
<stop offset="1" stop-color="#048B81" stop-opacity="0.3"/>
</linearGradient>
</defs>
</svg>
