<svg width="360" height="702" viewBox="0 0 360 702" fill="none" xmlns="http://www.w3.org/2000/svg">
<g clip-path="url(#clip0_4402_4797)">
<rect width="360" height="702" fill="#EBEDF2"/>
<g opacity="0.3">
<path opacity="0.0344828" d="M383.328 163.974C376.391 163.245 370.176 158.656 364.88 150.948C359.584 143.24 355.217 132.426 351.975 119.28C345.489 92.9893 343.508 57.3942 347.572 18.7285C351.636 -19.9371 360.975 -54.3425 372.784 -78.7107C378.689 -90.8953 385.209 -100.565 391.992 -107.003C398.775 -113.442 405.808 -116.638 412.745 -115.909C419.683 -115.18 425.898 -110.591 431.193 -102.883C436.489 -95.1749 440.856 -84.3613 444.099 -71.2153C450.584 -44.9241 452.565 -9.32902 448.501 29.3366C444.438 68.0023 435.099 102.408 423.289 126.776C417.384 138.96 410.864 148.63 404.082 155.068C397.299 161.507 390.266 164.703 383.328 163.974Z" stroke="#121212" stroke-width="0.229242"/>
<path opacity="0.0689655" d="M369.107 154.077C362.233 152.988 356.267 148.174 351.369 140.368C346.472 132.562 342.65 121.778 340.063 108.779C334.889 82.7828 334.655 47.9562 340.594 10.4634C346.532 -27.0294 357.516 -60.0793 370.47 -83.2044C376.948 -94.7674 383.915 -103.843 390.985 -109.753C398.055 -115.664 405.216 -118.399 412.09 -117.31C418.964 -116.221 424.93 -111.407 429.828 -103.601C434.725 -95.7956 438.547 -85.0111 441.134 -72.0124C446.308 -46.016 446.542 -11.1894 440.603 26.3034C434.665 63.7962 423.681 96.8461 410.727 119.971C404.249 131.534 397.282 140.61 390.212 146.52C383.142 152.43 375.981 155.165 369.107 154.077Z" stroke="#121212" stroke-width="0.236883"/>
<path opacity="0.103448" d="M355.822 143.578C349.03 142.134 343.32 137.108 338.817 129.225C334.313 121.341 331.022 110.613 329.066 97.7931C325.155 72.1549 326.583 38.1801 334.285 1.94781C341.986 -34.2844 354.5 -65.9031 368.501 -87.7337C375.502 -98.6494 382.872 -107.112 390.193 -112.482C397.514 -117.852 404.774 -120.121 411.566 -118.677C418.359 -117.233 424.069 -112.208 428.572 -104.324C433.076 -96.4409 436.367 -85.7123 438.322 -72.8928C442.234 -47.2546 440.805 -13.2797 433.104 22.9525C425.403 59.1847 412.889 90.8035 398.888 112.634C391.886 123.55 384.517 132.012 377.196 137.382C369.875 142.752 362.615 145.021 355.822 143.578Z" stroke="#121212" stroke-width="0.244525"/>
<path opacity="0.137931" d="M343.505 132.543C336.813 130.75 331.365 125.526 327.25 117.584C323.135 109.642 320.359 98.9951 319.009 86.3843C316.308 61.1636 319.31 28.1168 328.659 -6.77545C338.008 -41.6677 351.932 -71.788 366.881 -92.2794C374.356 -102.525 382.084 -110.358 389.618 -115.179C397.153 -119.999 404.483 -121.799 411.176 -120.006C417.868 -118.213 423.316 -112.988 427.431 -105.047C431.547 -97.1049 434.322 -86.4576 435.673 -73.8468C438.373 -48.6262 435.371 -15.5794 426.022 19.3129C416.673 54.2052 402.749 84.3255 387.8 104.817C380.325 115.063 372.598 122.896 365.063 127.716C357.528 132.536 350.198 134.337 343.505 132.543Z" stroke="#121212" stroke-width="0.252166"/>
<path opacity="0.172414" d="M332.181 121.044C325.607 118.908 320.425 113.499 316.693 105.517C312.96 97.5356 310.682 86.9934 309.91 74.6189C308.366 49.8707 312.848 17.8213 323.727 -15.6603C334.606 -49.1418 349.818 -77.7048 365.614 -96.8192C373.512 -106.377 381.551 -113.566 389.262 -117.83C396.974 -122.093 404.345 -123.424 410.919 -121.287C417.494 -119.151 422.675 -113.742 426.408 -105.76C430.141 -97.7787 432.419 -87.2366 433.191 -74.8621C434.734 -50.1139 430.252 -18.0645 419.373 15.4171C408.495 48.8987 393.283 77.4617 377.487 96.576C369.589 106.134 361.55 113.323 353.838 117.586C346.127 121.85 338.756 123.18 332.181 121.044Z" stroke="#121212" stroke-width="0.259807"/>
<path opacity="0.206897" d="M321.859 109.149C315.42 106.678 310.51 101.096 307.152 93.093C303.795 85.0893 301.996 74.6746 301.775 62.5615C301.332 38.3362 307.198 7.34646 319.485 -24.6623C331.773 -56.671 348.149 -83.6266 364.688 -101.333C372.958 -110.187 381.263 -116.723 389.114 -120.424C396.964 -124.125 404.347 -124.987 410.787 -122.516C417.226 -120.044 422.136 -114.462 425.493 -106.459C428.851 -98.4555 430.65 -88.0408 430.871 -75.9278C431.314 -51.7024 425.447 -20.7127 413.16 11.2961C400.873 43.3048 384.497 70.2604 367.958 87.9669C359.688 96.8204 351.382 103.356 343.532 107.058C335.682 110.759 328.298 111.621 321.859 109.149Z" stroke="#121212" stroke-width="0.267449"/>
<path opacity="0.241379" d="M312.555 96.9295C306.268 94.1303 301.633 88.3903 298.644 80.3822C295.654 72.3735 294.315 62.1067 294.614 50.2781C295.214 26.6215 302.368 -3.25361 315.939 -33.7362C329.511 -64.2188 346.926 -89.5255 364.105 -105.8C372.695 -113.938 381.221 -119.812 389.173 -122.949C397.124 -126.086 404.491 -126.483 410.778 -123.684C417.065 -120.884 421.7 -115.144 424.69 -107.136C427.679 -99.1276 429.019 -88.8608 428.719 -77.0321C428.12 -53.3756 420.966 -23.5004 407.394 6.98218C393.823 37.4648 376.408 62.7715 359.228 79.0461C350.639 87.1837 342.113 93.0582 334.161 96.1954C326.209 99.3323 318.842 99.7287 312.555 96.9295Z" stroke="#121212" stroke-width="0.27509"/>
<path opacity="0.275862" d="M304.282 84.4534C298.163 81.3359 293.807 75.4505 291.177 67.4536C288.546 59.4559 287.646 49.356 288.437 37.8324C290.019 14.7858 298.36 -13.927 313.091 -42.839C327.822 -71.751 346.149 -95.376 363.864 -110.202C372.722 -117.615 381.422 -122.824 389.439 -125.396C397.454 -127.969 404.776 -127.904 410.895 -124.786C417.013 -121.669 421.37 -115.784 424 -107.787C426.63 -99.789 427.53 -89.6891 426.739 -78.1655C425.158 -55.1189 416.817 -26.4061 402.085 2.50592C387.354 31.4179 369.028 55.043 351.312 69.8688C342.454 77.2819 333.754 82.4905 325.738 85.0634C317.722 87.636 310.4 87.5708 304.282 84.4534Z" stroke="#121212" stroke-width="0.282732"/>
<path opacity="0.310345" d="M297.034 71.7932C291.101 68.3674 287.025 62.3496 284.745 54.379C282.464 46.4076 281.983 36.4919 283.234 25.2916C285.736 2.89141 295.164 -24.6187 310.929 -51.9244C326.694 -79.2302 345.804 -101.149 363.953 -114.516C373.027 -121.2 381.855 -125.741 389.898 -127.752C397.941 -129.763 405.19 -129.242 411.124 -125.816C417.058 -122.391 421.133 -116.373 423.413 -108.402C425.694 -100.431 426.175 -90.515 424.924 -79.3147C422.422 -56.9145 412.994 -29.4044 397.229 -2.09869C381.464 25.207 362.354 47.1264 344.206 60.4933C335.131 67.1769 326.304 71.7181 318.26 73.7291C310.217 75.7397 302.968 75.2189 297.034 71.7932Z" stroke="#121212" stroke-width="0.290373"/>
<path opacity="0.344828" d="M290.815 59.0166C279.348 51.5696 275.643 34.4552 279.005 12.7181C282.366 -9.00384 292.777 -35.2781 309.449 -60.9508C326.121 -86.6235 345.889 -106.822 364.367 -118.727C382.857 -130.64 399.999 -134.216 411.466 -126.769C422.933 -119.322 426.638 -102.208 423.276 -80.4705C419.915 -58.7486 409.504 -32.4743 392.832 -6.80162C376.16 18.8711 356.392 39.0692 337.915 50.9741C319.424 62.8873 302.283 66.4636 290.815 59.0166Z" stroke="#121212" stroke-width="0.298014"/>
<path opacity="0.37931" d="M285.623 46.1949C274.586 38.176 271.588 21.2081 275.746 0.177645C279.901 -20.8389 291.195 -45.8517 308.647 -69.8733C326.1 -93.8949 346.399 -112.365 365.103 -122.811C383.819 -133.265 400.883 -135.656 411.92 -127.637C422.957 -119.618 425.955 -102.651 421.798 -81.6201C417.642 -60.6035 406.349 -35.5907 388.896 -11.5691C371.443 12.4525 351.145 30.9226 332.441 41.3689C313.724 51.8221 296.66 54.2137 285.623 46.1949Z" stroke="#121212" stroke-width="0.305656"/>
<path opacity="0.413793" d="M281.441 33.3941C270.862 24.8278 268.546 8.03262 273.435 -12.2689C278.322 -32.5578 290.395 -56.2905 308.503 -78.6517C326.61 -101.013 347.314 -117.757 366.144 -126.755C384.985 -135.758 401.895 -136.984 412.473 -128.418C423.052 -119.851 425.369 -103.056 420.479 -82.7546C415.593 -62.4657 403.52 -38.7329 385.412 -16.3718C367.304 5.98937 346.6 22.7331 327.771 31.7311C308.929 40.7346 292.019 41.9604 281.441 33.3941Z" stroke="#121212" stroke-width="0.313297"/>
<path opacity="0.448276" d="M278.257 20.6833C268.164 11.5954 266.504 -5.0033 272.061 -24.5581C277.615 -44.1016 290.366 -66.543 309.004 -87.2429C327.643 -107.943 348.628 -122.97 367.484 -130.536C386.351 -138.107 403.032 -138.191 413.125 -129.103C423.219 -120.015 424.879 -103.416 419.322 -83.8614C413.768 -64.3179 401.017 -41.8765 382.378 -21.1766C363.74 -0.476736 342.755 14.5506 323.899 22.1169C305.032 29.6876 288.35 29.7711 278.257 20.6833Z" stroke="#121212" stroke-width="0.320939"/>
<path opacity="0.482759" d="M276.058 8.12648C266.476 -1.45583 265.445 -17.8364 271.606 -36.6314C277.764 -55.4165 291.093 -76.5623 310.139 -95.6085C329.186 -114.655 350.331 -127.984 369.117 -134.141C387.912 -140.303 404.292 -139.272 413.874 -129.69C423.457 -120.107 424.487 -103.727 418.326 -84.9318C412.168 -66.1467 398.839 -45.0009 379.793 -25.9547C360.747 -6.90854 339.601 6.42036 320.816 12.5783C302.021 18.7394 285.641 17.7088 276.058 8.12648Z" stroke="#121212" stroke-width="0.32858"/>
<path opacity="0.517241" d="M274.813 -4.21212C265.766 -14.2605 265.338 -30.4034 272.04 -48.4301C278.739 -66.4483 292.547 -86.301 311.88 -103.709C331.214 -121.118 352.401 -132.774 371.021 -137.553C389.65 -142.334 405.659 -140.222 414.707 -130.173C423.755 -120.125 424.182 -103.982 417.48 -85.9552C410.781 -67.937 396.974 -48.0842 377.64 -30.676C358.306 -13.2677 337.119 -1.61122 318.499 3.16753C299.871 7.94854 283.861 5.83629 274.813 -4.21212Z" stroke="#121212" stroke-width="0.336221"/>
<path opacity="0.551724" d="M274.5 -16.2702C266.009 -26.7552 266.158 -42.643 273.339 -59.8974C280.517 -77.1446 294.705 -95.7137 314.209 -111.508C333.713 -127.302 354.826 -137.32 373.189 -140.754C391.559 -144.191 407.131 -141.034 415.622 -130.549C424.112 -120.063 423.963 -104.176 416.782 -86.9214C409.605 -69.6742 395.416 -51.1051 375.912 -35.311C356.408 -19.517 335.295 -9.4992 316.932 -6.06429C298.562 -2.62795 282.99 -5.78514 274.5 -16.2702Z" stroke="#121212" stroke-width="0.343863"/>
<path opacity="0.586207" d="M275.091 -27.9891C267.178 -38.8802 267.877 -54.4976 275.475 -70.98C283.071 -87.4565 297.546 -104.758 317.106 -118.969C336.666 -133.18 357.593 -141.6 375.611 -143.733C393.634 -145.866 408.703 -141.704 416.616 -130.813C424.529 -119.922 423.83 -104.304 416.232 -87.822C408.637 -71.3455 394.161 -54.0442 374.601 -39.833C355.041 -25.6218 334.114 -17.2015 316.097 -15.0694C298.073 -12.9365 283.004 -17.0979 275.091 -27.9891Z" stroke="#121212" stroke-width="0.351504"/>
<path opacity="0.62069" d="M276.546 -39.3111C269.23 -50.5769 270.451 -65.9108 278.407 -81.6257C286.361 -97.336 301.03 -113.392 320.536 -126.059C340.042 -138.726 360.676 -145.597 378.263 -146.473C395.855 -147.349 410.36 -142.228 417.676 -130.962C424.993 -119.697 423.771 -104.363 415.815 -88.6477C407.862 -72.9375 393.192 -56.8818 373.686 -44.2145C354.18 -31.5472 333.546 -24.6764 315.959 -23.8004C298.367 -22.9242 283.862 -28.0453 276.546 -39.3111Z" stroke="#121212" stroke-width="0.359146"/>
</g>
<g opacity="0.3">
<path opacity="0.137931" d="M-60.6575 488.316C-50.4335 485.576 -42.1177 477.597 -35.8406 465.483C-29.5635 453.369 -25.332 437.133 -23.2733 417.908C-19.156 379.459 -23.7324 329.084 -37.9834 275.899C-52.2343 222.713 -73.4586 176.799 -96.2487 145.56C-107.644 129.94 -119.427 117.995 -130.92 110.643C-142.413 103.29 -153.604 100.538 -163.828 103.277C-174.052 106.017 -182.368 113.996 -188.645 126.11C-194.922 138.224 -199.154 154.46 -201.212 173.685C-205.33 212.134 -200.753 262.509 -186.502 315.694C-172.251 368.88 -151.027 414.794 -128.237 446.033C-116.842 461.653 -105.059 473.598 -93.5659 480.95C-82.0728 488.303 -70.8815 491.055 -60.6575 488.316Z" stroke="#121212" stroke-width="0.252166"/>
<path opacity="0.172414" d="M-43.3954 470.791C-33.3513 467.527 -25.4426 459.265 -19.7487 447.09C-14.0547 434.915 -10.5817 418.838 -9.40494 399.973C-7.05151 362.244 -13.8846 313.389 -30.467 262.353C-47.0494 211.318 -70.2378 167.777 -94.3185 138.636C-106.359 124.066 -118.618 113.101 -130.381 106.598C-142.144 100.095 -153.399 98.0596 -163.443 101.323C-173.487 104.587 -181.396 112.849 -187.089 125.024C-192.783 137.199 -196.257 153.275 -197.433 172.141C-199.787 209.87 -192.954 258.725 -176.371 309.761C-159.789 360.796 -136.6 404.337 -112.52 433.477C-100.479 448.048 -88.2198 459.013 -76.4569 465.516C-64.6942 472.019 -53.4396 474.054 -43.3954 470.791Z" stroke="#121212" stroke-width="0.259807"/>
<path opacity="0.206897" d="M-27.6586 452.662C-17.8209 448.886 -10.3262 440.361 -5.20494 428.153C-0.0834574 415.943 2.65915 400.061 2.99687 381.594C3.6723 344.661 -5.2719 297.42 -24.001 248.629C-42.7301 199.838 -67.6934 158.747 -92.9083 131.752C-105.516 118.255 -118.182 108.287 -130.157 102.64C-142.133 96.9942 -153.406 95.6741 -163.244 99.4505C-173.082 103.227 -180.576 111.751 -185.698 123.96C-190.819 136.17 -193.562 152.052 -193.9 170.519C-194.575 207.452 -185.631 254.693 -166.902 303.484C-148.173 352.275 -123.209 393.366 -97.9943 420.361C-85.3866 433.858 -72.7208 443.826 -60.7452 449.473C-48.77 455.119 -37.4962 456.439 -27.6586 452.662Z" stroke="#121212" stroke-width="0.267449"/>
<path opacity="0.241379" d="M-13.4739 434.038C-3.8687 429.761 3.20617 420.994 7.7667 408.777C12.3275 396.56 14.3691 380.902 13.9123 362.869C12.9987 326.802 2.09246 281.26 -18.5952 234.795C-39.2828 188.329 -65.8296 149.751 -92.021 124.939C-105.117 112.532 -118.119 103.573 -130.25 98.7867C-142.381 94.0011 -153.63 93.3926 -163.235 97.6691C-172.84 101.946 -179.915 110.712 -184.476 122.929C-189.036 135.147 -191.078 150.805 -190.621 168.838C-189.707 204.905 -178.801 250.447 -158.114 296.912C-137.426 343.377 -110.879 381.956 -84.6878 406.768C-71.5918 419.174 -58.5899 428.134 -46.4587 432.92C-34.3281 437.706 -23.079 438.314 -13.4739 434.038Z" stroke="#121212" stroke-width="0.27509"/>
<path opacity="0.275862" d="M-0.861167 415.024C8.48622 410.261 15.1364 401.272 19.1491 389.071C23.162 376.87 24.5334 361.467 23.3278 343.897C20.9167 308.76 8.2004 264.989 -14.2552 220.917C-36.7108 176.846 -64.6478 140.83 -91.6575 118.226C-105.163 106.924 -118.43 98.9795 -130.66 95.0543C-142.889 91.1294 -154.07 91.2259 -163.418 95.9886C-172.765 100.751 -179.415 109.74 -183.428 121.941C-187.441 134.142 -188.812 149.546 -187.607 167.115C-185.196 202.252 -172.479 246.023 -150.024 290.095C-127.568 334.166 -99.6311 370.182 -72.6214 392.786C-59.1164 404.088 -45.8486 412.033 -33.6187 415.958C-21.3897 419.883 -10.2086 419.786 -0.861167 415.024Z" stroke="#121212" stroke-width="0.282732"/>
<path opacity="0.310345" d="M10.1898 395.729C19.255 390.495 25.4765 381.304 28.9552 369.143C32.4343 356.981 33.1671 341.858 31.2596 324.782C27.4447 290.629 13.0723 248.691 -10.9592 207.067C-34.9906 165.443 -64.1239 132.027 -91.7937 111.647C-105.629 101.457 -119.092 94.5299 -131.364 91.4619C-143.635 88.3941 -154.706 89.1865 -163.771 94.4203C-172.836 99.6541 -179.058 108.845 -182.536 121.006C-186.016 133.168 -186.748 148.291 -184.841 165.368C-181.026 199.521 -166.653 241.459 -142.622 283.083C-118.591 324.706 -89.4573 358.122 -61.7875 378.502C-47.9524 388.693 -34.489 395.62 -22.217 398.688C-9.94588 401.755 1.12461 400.963 10.1898 395.729Z" stroke="#121212" stroke-width="0.290373"/>
<path opacity="0.344828" d="M19.6731 376.256C37.1924 364.879 42.8328 338.749 37.707 305.615C32.5836 272.495 16.7103 232.44 -8.70424 193.305C-34.1187 154.17 -64.2546 123.377 -92.427 105.226C-120.612 87.066 -146.777 81.5911 -164.296 92.9682C-181.815 104.345 -187.456 130.475 -182.33 163.609C-177.207 196.729 -161.333 236.784 -135.919 275.919C-110.504 315.054 -80.3683 345.847 -52.1959 363.998C-24.0106 382.158 2.15379 387.633 19.6731 376.256Z" stroke="#121212" stroke-width="0.298014"/>
<path opacity="0.37931" d="M27.5892 356.713C44.4512 344.462 49.0135 318.556 42.6751 286.497C36.3394 254.452 19.1212 216.319 -7.48382 179.701C-34.0888 143.082 -65.0343 114.923 -93.5533 98.995C-122.085 83.06 -148.132 79.3939 -164.994 91.6448C-181.856 103.896 -186.418 129.801 -180.08 161.86C-173.744 193.905 -156.526 232.038 -129.921 268.657C-103.316 305.275 -72.3703 333.434 -43.8514 349.362C-15.32 365.297 10.7272 368.963 27.5892 356.713Z" stroke="#121212" stroke-width="0.305656"/>
<path opacity="0.413793" d="M33.969 337.203C50.1305 324.115 53.6526 298.474 46.1987 267.524C38.7478 236.588 20.3403 200.406 -7.26363 166.318C-34.8676 132.23 -66.4318 106.702 -95.1433 92.9817C-123.866 79.256 -149.68 77.37 -165.841 90.4573C-182.003 103.545 -185.525 129.186 -178.071 160.135C-170.62 191.072 -152.213 227.254 -124.609 261.342C-97.0049 295.43 -65.4407 320.958 -36.7292 334.678C-8.00605 348.404 17.8075 350.29 33.969 337.203Z" stroke="#121212" stroke-width="0.313297"/>
<path opacity="0.448276" d="M38.8263 317.829C54.2462 303.945 56.7672 278.603 48.2951 248.791C39.8261 218.99 20.3842 184.776 -8.02914 153.219C-36.4425 121.663 -68.4369 98.7515 -97.1895 87.2139C-125.953 75.6719 -151.419 75.5302 -166.839 89.4144C-182.259 103.299 -184.78 128.64 -176.308 158.452C-167.839 188.254 -148.397 222.468 -119.984 254.024C-91.5704 285.58 -59.576 308.492 -30.8233 320.029C-2.05978 331.571 23.4063 331.713 38.8263 317.829Z" stroke="#121212" stroke-width="0.320939"/>
<path opacity="0.482759" d="M42.1814 298.688C56.8209 284.049 58.3808 259.041 48.9872 230.385C39.5969 201.739 19.2739 169.5 -9.76195 140.464C-38.7978 111.428 -71.0374 91.1049 -99.6832 81.7146C-128.339 72.3211 -153.347 73.881 -167.986 88.5205C-182.626 103.16 -184.186 128.168 -174.792 156.824C-165.402 185.47 -145.079 217.709 -116.043 246.745C-87.0073 275.781 -54.7677 296.104 -26.1219 305.494C2.53373 314.888 27.5419 313.328 42.1814 298.688Z" stroke="#121212" stroke-width="0.32858"/>
<path opacity="0.517241" d="M44.0841 279.881C57.9066 264.53 58.5461 239.885 48.3273 212.399C38.1117 184.921 17.0585 154.652 -12.4166 128.113C-41.8917 101.573 -74.1956 83.7993 -102.59 76.5118C-130.994 69.222 -155.437 72.4341 -169.259 87.7855C-183.082 103.137 -183.721 127.782 -173.503 155.268C-163.287 182.745 -142.234 213.014 -112.759 239.554C-83.2836 266.093 -50.9797 283.867 -22.585 291.155C5.8185 298.444 30.2616 295.232 44.0841 279.881Z" stroke="#121212" stroke-width="0.336221"/>
<path opacity="0.551724" d="M44.5673 261.502C57.5386 245.484 57.2987 221.228 46.3494 194.918C35.4031 168.616 13.7678 140.303 -15.9676 116.224C-45.703 92.1444 -77.8953 76.8684 -105.899 71.63C-133.911 66.3902 -157.686 71.1985 -170.657 87.2167C-183.629 103.235 -183.389 127.49 -172.439 153.8C-161.493 180.103 -139.858 208.416 -110.122 232.495C-80.387 256.574 -48.1947 271.85 -20.1908 277.089C7.82073 282.329 31.5959 277.52 44.5673 261.502Z" stroke="#121212" stroke-width="0.343863"/>
<path opacity="0.586207" d="M43.669 243.639C55.7574 227 54.6794 203.158 43.0928 178.023C31.5088 152.895 9.4359 126.514 -20.386 104.847C-50.2079 83.1803 -82.1183 70.3398 -109.597 67.088C-137.082 63.8355 -160.09 70.1779 -172.179 86.8162C-184.267 103.455 -183.189 127.297 -171.602 152.432C-160.018 177.56 -137.946 203.941 -108.124 225.608C-78.3017 247.275 -46.3914 260.115 -18.9129 263.367C8.57191 266.619 31.5806 260.277 43.669 243.639Z" stroke="#121212" stroke-width="0.351504"/>
<path opacity="0.62069" d="M41.4567 226.38C52.6331 209.17 50.7582 185.76 38.6251 161.794C26.4944 137.833 4.12402 113.351 -25.6164 94.037C-55.3567 74.7234 -86.8213 64.2448 -113.645 62.9088C-140.474 61.5725 -162.622 69.3812 -173.799 86.5914C-184.975 103.802 -183.1 127.211 -170.967 151.177C-158.836 175.138 -136.466 199.621 -106.726 218.934C-76.9851 238.248 -45.5206 248.726 -18.6969 250.062C8.13213 251.399 30.2803 243.59 41.4567 226.38Z" stroke="#121212" stroke-width="0.359146"/>
<path opacity="0.655172" d="M37.9795 209.808C48.2173 192.076 45.5866 169.117 32.9955 146.306C20.4064 123.499 -2.12622 100.872 -31.6236 83.8419C-61.1209 66.8116 -91.9827 58.6112 -118.029 59.1122C-144.079 59.6132 -165.277 68.8147 -175.515 86.5472C-185.753 104.28 -183.122 127.239 -170.531 150.05C-157.942 172.856 -135.41 195.483 -105.912 212.514C-76.4149 229.544 -45.5531 237.744 -19.5072 237.243C6.5429 236.742 27.7417 227.541 37.9795 209.808Z" stroke="#121212" stroke-width="0.366787"/>
<path opacity="0.689655" d="M33.2917 194.003C42.5671 175.799 39.2212 153.304 26.2574 131.63C13.2952 109.958 -9.2696 89.135 -38.3696 74.3078C-67.4696 59.4806 -97.5793 53.4649 -122.731 55.7165C-147.886 57.9684 -168.051 68.484 -177.327 86.6879C-186.602 104.892 -183.256 127.387 -170.293 149.061C-157.33 170.733 -134.766 191.556 -105.666 206.384C-76.5655 221.211 -46.4558 227.226 -21.3042 224.975C3.85042 222.723 24.0163 212.207 33.2917 194.003Z" stroke="#121212" stroke-width="0.374428"/>
<path opacity="0.724138" d="M27.4756 179.039C35.7674 160.415 31.7462 138.395 18.4919 117.832C5.23868 97.2715 -17.2343 78.1916 -45.7905 65.4776C-74.3467 52.7636 -103.563 48.8298 -127.711 52.7386C-151.861 56.6476 -170.916 68.3939 -179.207 87.0176C-187.499 105.641 -183.478 127.662 -170.224 148.224C-156.971 168.785 -134.498 187.865 -105.941 200.579C-77.3852 213.293 -48.1687 217.227 -24.0211 213.318C0.12861 209.409 19.1838 197.663 27.4756 179.039Z" stroke="#121212" stroke-width="0.38207"/>
<path opacity="0.758621" d="M20.5867 164.984C27.8765 145.993 23.2191 124.456 9.75263 104.975C-3.71316 85.4951 -25.9769 68.0908 -53.8511 57.3909C-81.7253 46.691 -109.916 44.7276 -132.958 50.1936C-156 55.6598 -173.873 68.5488 -181.163 87.5396C-188.453 106.53 -183.795 128.068 -170.329 147.548C-156.863 167.028 -134.599 184.433 -106.725 195.133C-78.8509 205.832 -50.66 207.796 -27.6184 202.33C-4.57569 196.864 13.2968 183.975 20.5867 164.984Z" stroke="#121212" stroke-width="0.389711"/>
<path opacity="0.793103" d="M12.7156 151.903C18.9879 132.598 13.7324 111.549 0.128193 93.1151C-13.4758 74.6812 -35.4196 58.877 -62.4826 50.0837C-89.5456 41.2904 -116.588 41.178 -138.429 48.0951C-160.27 55.0124 -176.894 68.9523 -183.167 88.2565C-189.439 107.561 -184.184 128.61 -170.579 147.044C-156.975 165.478 -135.032 181.282 -107.969 190.075C-80.9056 198.869 -53.8632 198.981 -32.0222 192.064C-10.1808 185.147 6.44329 171.207 12.7156 151.903Z" stroke="#121212" stroke-width="0.397353"/>
<path opacity="0.827586" d="M3.93367 139.854C9.17572 120.29 3.35905 99.7322 -10.313 82.3046C-23.9851 64.8769 -45.5058 50.5908 -71.6378 43.5888C-97.7698 36.5868 -123.55 38.1985 -144.104 46.4552C-164.659 54.712 -179.975 69.6071 -185.217 89.1708C-190.459 108.734 -184.642 129.292 -170.97 146.72C-157.298 164.147 -135.777 178.433 -109.645 185.435C-83.5135 192.438 -57.733 190.826 -37.1788 182.569C-16.6246 174.312 -1.30839 159.417 3.93367 139.854Z" stroke="#121212" stroke-width="0.404994"/>
<path opacity="0.862069" d="M-5.68485 128.89C2.71758 89.3593 -31.066 48.6057 -81.2676 37.935C-131.469 27.2644 -178.908 50.7537 -187.31 90.284C-195.713 129.814 -161.929 170.568 -111.728 181.239C-61.5261 191.909 -14.0873 168.42 -5.68485 128.89Z" stroke="#121212" stroke-width="0.412635"/>
</g>
</g>
<defs>
<clipPath id="clip0_4402_4797">
<rect width="360" height="702" fill="white"/>
</clipPath>
</defs>
</svg>
