<svg width="1103" height="960" viewBox="0 0 1103 960" fill="none" xmlns="http://www.w3.org/2000/svg">
<g filter="url(#filter0_f_6001_4033)">
<circle cx="684" cy="-59" r="305" fill="white"/>
</g>
<g filter="url(#filter1_f_6001_4033)">
<circle cx="1258" cy="646" r="305" fill="white"/>
</g>
<g filter="url(#filter2_f_6001_4033)">
<path d="M430.809 29.1124L413.976 38.4096C412.639 39.1483 411.059 39.3174 409.583 38.8798C408.107 38.4422 406.857 37.4337 406.107 36.0763C405.357 34.7188 405.169 33.1235 405.585 31.6413C406 30.1592 406.985 28.9116 408.322 28.1729L422.454 20.368L423.289 9.51956C423.36 8.56166 423.666 7.63941 424.179 6.83505C424.691 6.0307 425.395 5.36924 426.227 4.90967C427.059 4.45009 427.994 4.20667 428.947 4.20113C429.901 4.1956 430.845 4.4281 431.693 4.87792L448.712 13.8476L449.113 8.61633C449.186 7.65983 449.494 6.7395 450.007 5.93723C450.521 5.13496 451.225 4.47561 452.057 4.01785L462.141 -1.55212C463.479 -2.29074 465.059 -2.45986 466.535 -2.02227C468.011 -1.58468 469.261 -0.576221 470.011 0.78125C470.761 2.13872 470.948 3.73401 470.533 5.21617C470.117 6.69833 469.133 7.94596 467.795 8.68458L460.4 12.7692L459.56 23.62C459.489 24.5779 459.183 25.5002 458.671 26.3045C458.158 27.1089 457.454 27.7703 456.622 28.2299C455.79 28.6895 454.856 28.9329 453.902 28.9384C452.948 28.944 452.005 28.7115 451.156 28.2616L434.138 19.292L433.737 24.5232C433.663 25.4765 433.358 26.3938 432.847 27.1942C432.337 27.9946 431.637 28.6534 430.809 29.1124ZM449.029 -43.2943C440.574 -38.6249 434.929 -31.0928 433.069 -22.478C424.773 -25.4834 415.404 -24.7231 406.946 -20.0513C400.111 -16.2894 394.925 -10.0996 392.382 -2.66788C389.839 4.76379 390.119 12.9146 393.167 20.2229C393.464 20.9333 393.897 21.5795 394.44 22.1246C394.983 22.6697 395.625 23.103 396.331 23.3997C397.757 23.9991 399.354 24.0059 400.769 23.4188C402.185 22.8316 403.305 21.6986 403.881 20.2689C404.167 19.561 404.31 18.8015 404.304 18.0339C404.298 17.2663 404.141 16.5056 403.844 15.7952C401.909 11.1483 401.732 5.96712 403.347 1.24241C404.963 -3.48229 408.257 -7.41892 412.6 -9.81464C420.092 -13.9527 428.576 -13.4059 434.748 -8.3872C435.646 -7.64984 436.74 -7.1971 437.887 -7.08703C439.035 -6.97695 440.185 -7.21457 441.19 -7.7694C442.194 -8.32423 443.008 -9.17098 443.526 -10.2011C444.044 -11.2312 444.243 -12.3977 444.097 -13.551C443.136 -21.4476 447.191 -28.9196 454.683 -33.0576C459.367 -35.6461 464.902 -36.2421 470.073 -34.7148C475.244 -33.1875 479.628 -29.6618 482.263 -24.9117C489.194 -12.3632 485.006 5.7305 480.267 18.6959C477.191 26.9766 473.432 34.9757 469.029 42.61C462.941 42.3816 448.983 41.4351 435.217 37.4993C434.484 37.2886 433.719 37.2249 432.965 37.3119C432.212 37.3989 431.485 37.6348 430.825 38.0063C430.166 38.3778 429.587 38.8775 429.122 39.4769C428.657 40.0763 428.315 40.7637 428.115 41.4998C427.915 42.2359 427.861 43.0063 427.957 43.767C428.053 44.5277 428.297 45.2638 428.673 45.9333C429.435 47.2854 430.694 48.2841 432.174 48.7098C451.966 54.3716 471.56 54.3428 472.383 54.3336C473.34 54.3273 474.278 54.0827 475.113 53.6215C475.948 53.1603 476.654 52.4969 477.169 51.6901C478.465 49.6275 509.39 0.373427 492.348 -30.4817C488.21 -37.9429 481.325 -43.4821 473.204 -45.8841C465.082 -48.2861 456.388 -47.3547 449.029 -43.2943Z" fill="url(#paint0_linear_6001_4033)"/>
</g>
<g opacity="0.3">
<path opacity="0.0344828" d="M1006.29 639.178C974.982 635.887 946.936 615.178 923.038 580.394C899.141 545.612 879.433 496.815 864.8 437.491C835.535 318.849 826.594 158.222 844.933 -16.2618C863.272 -190.745 905.414 -346.004 958.706 -455.969C985.354 -510.953 1014.78 -554.587 1045.38 -583.641C1075.99 -612.696 1107.73 -627.121 1139.04 -623.831C1170.34 -620.54 1198.39 -599.832 1222.29 -565.047C1246.18 -530.265 1265.89 -481.468 1280.52 -422.144C1309.79 -303.502 1318.73 -142.875 1300.39 31.6087C1282.05 206.092 1239.91 361.351 1186.62 471.316C1159.97 526.3 1130.55 569.934 1099.94 598.988C1069.33 628.043 1037.59 642.468 1006.29 639.178Z" stroke="#121212" stroke-width="1.03448"/>
<path opacity="0.0689655" d="M942.1 594.514C911.079 589.601 884.159 567.877 862.057 532.652C839.956 497.428 822.712 448.762 811.037 390.104C787.687 272.791 786.634 115.632 813.431 -53.5587C840.228 -222.75 889.795 -371.892 948.253 -476.247C977.484 -528.426 1008.92 -569.382 1040.83 -596.052C1072.73 -622.723 1105.05 -635.065 1136.07 -630.152C1167.09 -625.238 1194.01 -603.515 1216.11 -568.29C1238.21 -533.066 1255.46 -484.4 1267.13 -425.741C1290.48 -308.429 1291.53 -151.27 1264.74 17.9211C1237.94 187.112 1188.37 336.254 1129.91 440.609C1100.68 492.788 1069.25 533.744 1037.34 560.414C1005.44 587.085 973.12 599.427 942.1 594.514Z" stroke="#121212" stroke-width="1.06897"/>
<path opacity="0.103448" d="M882.159 547.133C851.507 540.618 825.742 517.939 805.417 482.364C785.093 446.789 770.246 398.375 761.419 340.525C743.766 224.83 750.214 71.5139 784.968 -91.9885C819.721 -255.491 876.19 -398.174 939.374 -496.688C970.967 -545.946 1004.22 -584.135 1037.26 -608.368C1070.3 -632.601 1103.06 -642.839 1133.71 -636.324C1164.36 -629.809 1190.13 -607.13 1210.45 -571.555C1230.78 -535.98 1245.62 -487.566 1254.45 -429.716C1272.1 -314.02 1265.66 -160.705 1230.9 2.79772C1196.15 166.3 1139.68 308.984 1076.5 407.497C1044.9 456.755 1011.65 494.944 978.61 519.177C945.573 543.41 912.81 553.648 882.159 547.133Z" stroke="#121212" stroke-width="1.10345"/>
<path opacity="0.137931" d="M826.583 497.343C796.382 489.25 771.798 465.675 753.227 429.838C734.657 393.999 722.132 345.952 716.038 289.045C703.85 175.233 717.397 26.1053 759.587 -131.351C801.777 -288.806 864.61 -424.728 932.07 -517.198C965.801 -563.434 1000.67 -598.782 1034.67 -620.533C1068.67 -642.285 1101.75 -650.409 1131.95 -642.317C1162.15 -634.225 1186.74 -610.65 1205.31 -574.812C1223.88 -538.973 1236.4 -490.926 1242.5 -434.019C1254.69 -320.207 1241.14 -171.079 1198.95 -13.6235C1156.76 143.832 1093.93 279.754 1026.47 372.224C992.735 418.46 957.865 453.808 923.863 475.559C889.862 497.311 856.783 505.435 826.583 497.343Z" stroke="#121212" stroke-width="1.13793"/>
<path opacity="0.172414" d="M775.469 445.451C745.801 435.811 722.419 411.401 705.575 375.384C688.731 339.366 678.451 291.793 674.968 235.951C668.001 124.272 688.227 -20.3548 737.319 -171.445C786.412 -322.534 855.058 -451.429 926.337 -537.684C961.978 -580.814 998.257 -613.259 1033.06 -632.497C1067.85 -651.734 1101.12 -657.74 1130.79 -648.1C1160.45 -638.46 1183.84 -614.049 1200.68 -578.032C1217.52 -542.014 1227.8 -494.442 1231.29 -438.6C1238.25 -326.921 1218.03 -182.294 1168.94 -31.2041C1119.84 119.886 1051.2 248.78 979.917 335.036C944.277 378.165 907.998 410.61 873.199 429.848C838.402 449.085 805.138 455.091 775.469 445.451Z" stroke="#121212" stroke-width="1.17241"/>
<path opacity="0.206897" d="M728.895 391.775C699.837 380.62 677.68 355.434 662.53 319.318C647.38 283.201 639.262 236.203 638.262 181.541C636.263 72.2217 662.738 -67.6235 718.185 -212.067C773.631 -356.51 847.531 -478.151 922.166 -558.054C959.485 -598.006 996.966 -627.5 1032.39 -644.203C1067.82 -660.905 1101.13 -664.797 1130.19 -653.642C1159.25 -642.488 1181.41 -617.301 1196.56 -581.186C1211.71 -545.068 1219.83 -498.07 1220.83 -443.409C1222.83 -334.089 1196.35 -194.244 1140.9 -49.8004C1085.46 94.6431 1011.56 216.284 936.922 296.186C899.603 336.139 862.122 365.633 826.696 382.336C791.272 399.038 757.953 402.929 728.895 391.775Z" stroke="#121212" stroke-width="1.2069"/>
<path opacity="0.241379" d="M686.917 336.629C658.546 323.997 637.63 298.095 624.14 261.958C610.649 225.817 604.605 179.487 605.957 126.109C608.661 19.3557 640.944 -115.46 702.188 -253.016C763.432 -390.573 842.018 -504.773 919.542 -578.214C958.305 -614.936 996.779 -641.445 1032.66 -655.602C1068.55 -669.758 1101.79 -671.546 1130.16 -658.915C1158.53 -646.283 1179.45 -620.381 1192.94 -584.243C1206.43 -548.103 1212.47 -501.773 1211.12 -448.395C1208.42 -341.641 1176.13 -206.826 1114.89 -69.2694C1053.65 68.2871 975.06 182.487 897.536 255.928C858.773 292.65 820.299 319.159 784.414 333.316C748.532 347.472 715.288 349.261 686.917 336.629Z" stroke="#121212" stroke-width="1.24138"/>
<path opacity="0.275862" d="M649.57 280.332C621.961 266.264 602.301 239.705 590.432 203.618C578.562 167.527 574.501 121.95 578.07 69.9488C585.206 -34.052 622.846 -163.622 689.324 -294.091C755.801 -424.56 838.501 -531.171 918.445 -598.075C958.418 -631.527 997.677 -655.032 1033.85 -666.642C1070.02 -678.252 1103.07 -677.957 1130.67 -663.889C1158.28 -649.822 1177.94 -623.263 1189.81 -587.176C1201.68 -551.085 1205.74 -505.508 1202.18 -453.507C1195.04 -349.506 1157.4 -219.936 1090.92 -89.4666C1024.44 41.0023 941.744 147.613 861.8 214.517C821.828 247.969 782.568 271.474 746.393 283.084C710.222 294.694 677.18 294.399 649.57 280.332Z" stroke="#121212" stroke-width="1.27586"/>
<path opacity="0.310345" d="M616.871 223.199C590.095 207.74 571.702 180.584 561.413 144.615C551.123 108.643 548.952 63.8973 554.598 13.3545C565.889 -87.7291 608.431 -211.872 679.572 -335.092C750.713 -458.313 836.953 -557.227 918.849 -617.547C959.797 -647.707 999.634 -668.2 1035.93 -677.275C1072.23 -686.348 1104.94 -683.998 1131.72 -668.539C1158.49 -653.079 1176.88 -625.923 1187.17 -589.955C1197.46 -553.983 1199.63 -509.237 1193.99 -458.694C1182.7 -357.611 1140.16 -233.468 1069.01 -110.247C997.873 12.9731 911.633 111.887 829.738 172.207C788.789 202.368 748.953 222.86 712.655 231.935C676.361 241.008 643.647 238.658 616.871 223.199Z" stroke="#121212" stroke-width="1.31034"/>
<path opacity="0.344828" d="M588.814 165.545C537.066 131.94 520.346 54.7088 535.521 -43.3826C550.684 -141.405 597.668 -259.972 672.902 -375.823C748.137 -491.674 837.343 -582.821 920.723 -636.543C1004.16 -690.303 1081.52 -706.441 1133.26 -672.836C1185.01 -639.23 1201.73 -561.999 1186.56 -463.908C1171.39 -365.885 1124.41 -247.319 1049.18 -131.468C973.942 -15.6164 884.736 75.5303 801.355 129.252C717.916 183.012 640.562 199.151 588.814 165.545Z" stroke="#121212" stroke-width="1.34483"/>
<path opacity="0.37931" d="M565.374 107.684C515.568 71.4976 502.037 -5.07198 520.8 -99.9748C539.551 -194.815 590.514 -307.688 669.272 -416.088C748.029 -524.489 839.63 -607.838 924.033 -654.978C1008.49 -702.149 1085.5 -712.942 1135.3 -676.756C1185.11 -640.57 1198.64 -564 1179.88 -469.097C1161.13 -374.257 1110.16 -261.384 1031.4 -152.984C952.647 -44.5831 861.046 38.7657 776.643 85.9059C692.183 133.077 615.179 143.87 565.374 107.684Z" stroke="#121212" stroke-width="1.37931"/>
<path opacity="0.413793" d="M546.506 49.9212C498.769 11.2648 488.314 -64.5258 510.379 -156.139C532.429 -247.695 586.911 -354.792 668.625 -455.699C750.338 -556.607 843.767 -632.165 928.738 -672.77C1013.76 -713.399 1090.07 -718.931 1137.81 -680.274C1185.54 -641.618 1196 -565.827 1173.93 -474.214C1151.88 -382.658 1097.4 -275.561 1015.69 -174.654C933.974 -73.7462 840.545 1.81211 755.574 42.4165C670.55 83.046 594.242 88.5776 546.506 49.9212Z" stroke="#121212" stroke-width="1.41379"/>
<path opacity="0.448276" d="M532.146 -7.43992C486.599 -48.45 479.106 -123.354 504.183 -211.597C529.246 -299.79 586.788 -401.06 670.895 -494.47C755.003 -587.881 849.703 -655.694 934.793 -689.838C1019.93 -724.002 1095.21 -724.379 1140.75 -683.369C1186.3 -642.358 1193.79 -567.455 1168.72 -479.211C1143.65 -391.019 1086.11 -289.749 1002 -196.338C917.897 -102.927 823.197 -35.1147 738.107 -0.970617C652.969 33.1931 577.692 33.5702 532.146 -7.43992Z" stroke="#121212" stroke-width="1.44828"/>
<path opacity="0.482759" d="M522.21 -64.104C478.969 -107.345 474.318 -181.265 502.121 -266.079C529.909 -350.85 590.058 -446.273 676.006 -532.221C761.954 -618.169 857.377 -678.318 942.148 -706.106C1026.96 -733.909 1100.88 -729.258 1144.12 -686.017C1187.36 -642.775 1192.02 -568.856 1164.21 -484.041C1136.42 -399.271 1076.28 -303.848 990.327 -217.9C904.379 -131.951 808.956 -71.803 724.186 -44.0147C639.371 -16.2119 565.452 -20.8626 522.21 -64.104Z" stroke="#121212" stroke-width="1.48276"/>
<path opacity="0.517241" d="M516.598 -119.783C475.769 -165.128 473.842 -237.975 504.085 -319.322C534.315 -400.632 596.622 -490.22 683.868 -568.777C771.115 -647.334 866.725 -699.935 950.749 -721.5C1034.81 -743.075 1107.06 -733.543 1147.89 -688.198C1188.72 -642.853 1190.64 -570.007 1160.4 -488.659C1130.17 -407.35 1067.86 -317.762 980.616 -239.205C893.37 -160.648 797.76 -108.046 713.736 -86.4816C629.673 -64.9067 557.427 -74.4385 516.598 -119.783Z" stroke="#121212" stroke-width="1.51724"/>
</g>
<g opacity="0.3">
<path opacity="0.0344828" d="M642.288 380.183C610.982 383.474 582.936 404.182 559.038 438.967C535.141 473.749 515.433 522.546 500.8 581.87C471.535 700.512 462.594 861.139 480.933 1035.62C499.272 1210.11 541.414 1365.36 594.706 1475.33C621.354 1530.31 650.776 1573.95 681.383 1603C711.991 1632.06 743.729 1646.48 775.035 1643.19C806.341 1639.9 834.387 1619.19 858.285 1584.41C882.182 1549.63 901.89 1500.83 916.523 1441.51C945.788 1322.86 954.729 1162.24 936.39 987.752C918.051 813.269 875.909 658.01 822.616 548.045C795.969 493.061 766.546 449.427 735.94 420.373C705.332 391.318 673.593 376.893 642.288 380.183Z" stroke="#121212" stroke-width="1.03448"/>
<path opacity="0.0689655" d="M578.1 424.847C547.079 429.76 520.159 451.484 498.057 486.709C475.956 521.932 458.712 570.599 447.037 629.257C423.687 746.569 422.634 903.729 449.431 1072.92C476.228 1242.11 525.795 1391.25 584.253 1495.61C613.484 1547.79 644.922 1588.74 676.826 1615.41C708.732 1642.08 741.047 1654.43 772.068 1649.51C803.088 1644.6 830.008 1622.88 852.11 1587.65C874.211 1552.43 891.455 1503.76 903.131 1445.1C926.48 1327.79 927.534 1170.63 900.736 1001.44C873.939 832.249 824.372 683.107 765.914 578.752C736.684 526.572 705.245 485.617 673.341 458.947C641.436 432.276 609.12 419.934 578.1 424.847Z" stroke="#121212" stroke-width="1.06897"/>
<path opacity="0.103448" d="M518.159 472.228C487.507 478.743 461.742 501.422 441.417 536.997C421.093 572.572 406.246 620.986 397.419 678.836C379.766 794.531 386.214 947.847 420.968 1111.35C455.721 1274.85 512.19 1417.54 575.374 1516.05C606.967 1565.31 640.223 1603.5 673.26 1627.73C706.297 1651.96 739.059 1662.2 769.711 1655.68C800.362 1649.17 826.128 1626.49 846.452 1590.92C866.776 1555.34 881.624 1506.93 890.451 1449.08C908.103 1333.38 901.655 1180.07 866.902 1016.56C832.148 853.061 775.68 710.377 712.495 611.864C680.902 562.606 647.646 524.416 614.61 500.184C581.573 475.951 548.81 465.712 518.159 472.228Z" stroke="#121212" stroke-width="1.10345"/>
<path opacity="0.137931" d="M462.583 522.019C432.382 530.111 407.798 553.686 389.227 589.524C370.657 625.362 358.132 673.409 352.038 730.317C339.85 844.128 353.397 993.256 395.587 1150.71C437.777 1308.17 500.61 1444.09 568.07 1536.56C601.801 1582.8 636.672 1618.14 670.673 1639.89C704.675 1661.65 737.753 1669.77 767.954 1661.68C798.154 1653.59 822.739 1630.01 841.309 1594.17C859.88 1558.33 872.404 1510.29 878.498 1453.38C890.686 1339.57 877.14 1190.44 834.95 1032.98C792.76 875.529 729.927 739.608 662.466 647.138C628.735 600.901 593.865 565.554 559.863 543.802C525.862 522.051 492.783 513.927 462.583 522.019Z" stroke="#121212" stroke-width="1.13793"/>
<path opacity="0.172414" d="M411.469 573.91C381.801 583.55 358.419 607.96 341.575 643.977C324.731 679.995 314.451 727.568 310.968 783.409C304.001 895.089 324.227 1039.72 373.319 1190.81C422.412 1341.9 491.058 1470.79 562.337 1557.05C597.978 1600.17 634.257 1632.62 669.056 1651.86C703.853 1671.09 737.117 1677.1 766.786 1667.46C796.454 1657.82 819.835 1633.41 836.679 1597.39C853.524 1561.38 863.804 1513.8 867.287 1457.96C874.253 1346.28 854.027 1201.65 804.935 1050.56C755.843 899.475 687.197 770.581 615.917 684.325C580.277 641.196 543.998 608.751 509.199 589.513C474.402 570.275 441.138 564.27 411.469 573.91Z" stroke="#121212" stroke-width="1.17241"/>
<path opacity="0.206897" d="M364.895 627.586C335.837 638.74 313.68 663.927 298.53 700.042C283.38 736.16 275.262 783.158 274.262 837.819C272.263 947.139 298.738 1086.98 354.185 1231.43C409.631 1375.87 483.531 1497.51 558.166 1577.41C595.485 1617.37 632.966 1646.86 668.392 1663.56C703.816 1680.27 737.135 1684.16 766.193 1673C795.251 1661.85 817.408 1636.66 832.558 1600.55C847.708 1564.43 855.826 1517.43 856.826 1462.77C858.825 1353.45 832.35 1213.6 776.903 1069.16C721.457 924.718 647.557 803.077 572.922 723.175C535.603 683.222 498.122 653.728 462.696 637.025C427.272 620.323 393.953 616.432 364.895 627.586Z" stroke="#121212" stroke-width="1.2069"/>
<path opacity="0.241379" d="M322.917 682.732C294.546 695.363 273.63 721.266 260.14 757.403C246.649 793.544 240.605 839.874 241.957 893.252C244.661 1000.01 276.944 1134.82 338.188 1272.38C399.432 1409.93 478.018 1524.13 555.542 1597.57C594.305 1634.3 632.779 1660.81 668.664 1674.96C704.546 1689.12 737.79 1690.91 766.162 1678.28C794.533 1665.64 815.448 1639.74 828.938 1603.6C842.429 1567.46 848.473 1521.13 847.121 1467.76C844.417 1361 812.134 1226.19 750.89 1088.63C689.646 951.074 611.06 836.874 533.536 763.433C494.773 726.711 456.299 700.201 420.414 686.044C384.532 671.889 351.288 670.1 322.917 682.732Z" stroke="#121212" stroke-width="1.24138"/>
<path opacity="0.275862" d="M285.57 739.029C257.961 753.097 238.301 779.656 226.432 815.743C214.562 851.834 210.501 897.41 214.07 949.412C221.206 1053.41 258.846 1182.98 325.324 1313.45C391.801 1443.92 474.501 1550.53 554.445 1617.44C594.418 1650.89 633.677 1674.39 669.852 1686C706.023 1697.61 739.065 1697.32 766.675 1683.25C794.285 1669.18 813.944 1642.62 825.813 1606.54C837.683 1570.45 841.744 1524.87 838.175 1472.87C831.039 1368.87 793.399 1239.3 726.922 1108.83C660.444 978.358 577.744 871.747 497.8 804.844C457.828 771.391 418.568 747.887 382.393 736.276C346.222 724.667 313.18 724.961 285.57 739.029Z" stroke="#121212" stroke-width="1.27586"/>
<path opacity="0.310345" d="M252.871 796.162C226.095 811.621 207.702 838.777 197.413 874.745C187.123 910.718 184.952 955.464 190.598 1006.01C201.889 1107.09 244.431 1231.23 315.572 1354.45C386.713 1477.67 472.953 1576.59 554.849 1636.91C595.797 1667.07 635.634 1687.56 671.932 1696.64C708.226 1705.71 740.94 1703.36 767.716 1687.9C794.492 1672.44 812.884 1645.28 823.173 1609.32C833.464 1573.34 835.635 1528.6 829.989 1478.06C818.698 1376.97 776.156 1252.83 705.015 1129.61C633.873 1006.39 547.633 907.474 465.738 847.154C424.789 816.993 384.953 796.501 348.655 787.426C312.361 778.353 279.647 780.703 252.871 796.162Z" stroke="#121212" stroke-width="1.31034"/>
<path opacity="0.344828" d="M224.814 853.815C173.066 887.421 156.346 964.652 171.521 1062.74C186.684 1160.77 233.668 1279.33 308.902 1395.18C384.137 1511.03 473.343 1602.18 556.723 1655.9C640.162 1709.66 717.517 1725.8 769.265 1692.2C821.013 1658.59 837.732 1581.36 822.558 1483.27C807.394 1385.25 760.411 1266.68 685.176 1150.83C609.942 1034.98 520.736 943.831 437.355 890.108C353.916 836.349 276.562 820.21 224.814 853.815Z" stroke="#121212" stroke-width="1.34483"/>
<path opacity="0.37931" d="M201.374 911.677C151.568 947.863 138.037 1024.43 156.8 1119.34C175.551 1214.18 226.514 1327.05 305.272 1435.45C384.029 1543.85 475.63 1627.2 560.033 1674.34C644.493 1721.51 721.496 1732.3 771.302 1696.12C821.108 1659.93 834.639 1583.36 815.876 1488.46C797.125 1393.62 746.162 1280.74 667.404 1172.34C588.647 1063.94 497.046 980.595 412.643 933.455C328.183 886.284 251.179 875.491 201.374 911.677Z" stroke="#121212" stroke-width="1.37931"/>
<path opacity="0.413793" d="M182.506 969.44C134.769 1008.1 124.314 1083.89 146.379 1175.5C168.429 1267.06 222.911 1374.15 304.625 1475.06C386.338 1575.97 479.767 1651.53 564.738 1692.13C649.762 1732.76 726.07 1738.29 773.806 1699.64C821.543 1660.98 831.998 1585.19 809.933 1493.58C787.883 1402.02 733.401 1294.92 651.687 1194.01C569.974 1093.11 476.545 1017.55 391.574 976.944C306.55 936.315 230.242 930.783 182.506 969.44Z" stroke="#121212" stroke-width="1.41379"/>
<path opacity="0.448276" d="M168.146 1026.8C122.599 1067.81 115.106 1142.71 140.183 1230.96C165.246 1319.15 222.788 1420.42 306.895 1513.83C391.003 1607.24 485.703 1675.05 570.793 1709.2C655.931 1743.36 731.208 1743.74 776.755 1702.73C822.301 1661.72 829.795 1586.82 804.717 1498.57C779.655 1410.38 722.112 1309.11 638.005 1215.7C553.897 1122.29 459.197 1054.48 374.107 1020.33C288.969 986.168 213.692 985.791 168.146 1026.8Z" stroke="#121212" stroke-width="1.44828"/>
<path opacity="0.482759" d="M158.21 1083.46C114.969 1126.71 110.318 1200.63 138.121 1285.44C165.909 1370.21 226.058 1465.63 312.006 1551.58C397.954 1637.53 493.377 1697.68 578.148 1725.47C662.962 1753.27 736.882 1748.62 780.123 1705.38C823.364 1662.14 828.015 1588.22 800.212 1503.4C772.424 1418.63 712.276 1323.21 626.327 1237.26C540.379 1151.31 444.956 1091.16 360.186 1063.38C275.371 1035.57 201.452 1040.22 158.21 1083.46Z" stroke="#121212" stroke-width="1.48276"/>
</g>
<path d="M184.163 838.776L174.88 842.198L167.25 821.498L175.222 818.56C176.138 818.222 176.881 817.535 177.29 816.65C177.699 815.764 177.739 814.753 177.402 813.838C177.064 812.923 176.377 812.179 175.492 811.771C174.606 811.362 173.594 811.323 172.679 811.66L164.707 814.598C162.876 815.273 161.389 816.647 160.571 818.418C159.754 820.189 159.673 822.212 160.348 824.042L167.978 844.742C168.652 846.572 170.026 848.059 171.798 848.876C173.569 849.693 175.593 849.772 177.423 849.098L186.707 845.676C187.622 845.338 188.366 844.651 188.775 843.766C189.183 842.88 189.223 841.869 188.886 840.954C188.549 840.039 187.862 839.295 186.976 838.887C186.091 838.478 185.079 838.439 184.163 838.776ZM205.756 820.785C205.766 820.553 205.759 820.319 205.734 820.088C205.666 819.852 205.581 819.622 205.48 819.398L205.251 818.777C205.143 818.547 204.999 818.335 204.824 818.151C204.678 817.972 204.513 817.81 204.332 817.666C204.165 817.505 203.981 817.362 203.783 817.241L203.066 816.996L202.641 816.8L202.434 816.876L201.736 816.898L189.657 821.351L191.482 810.881C191.647 809.917 191.421 808.926 190.855 808.128C190.288 807.33 189.428 806.79 188.463 806.626C187.498 806.462 186.508 806.688 185.709 807.254C184.911 807.82 184.37 808.68 184.206 809.645L181.32 826.383L181.397 826.59C181.386 826.823 181.394 827.056 181.418 827.287C181.487 827.523 181.572 827.754 181.673 827.977L181.418 828.032L181.571 828.446C181.679 828.676 181.823 828.887 181.998 829.072C182.144 829.251 182.309 829.413 182.49 829.557C182.657 829.718 182.841 829.861 183.039 829.982L183.756 830.227C183.892 830.304 184.034 830.369 184.181 830.423L184.733 830.219C185.199 830.307 185.677 830.303 186.141 830.21L197.426 826.05L195.601 836.519C195.437 837.484 195.663 838.474 196.229 839.272C196.795 840.071 197.655 840.611 198.62 840.775C199.585 840.939 200.576 840.713 201.374 840.147C202.173 839.581 202.714 838.721 202.878 837.756L205.763 821.018C205.763 821.018 205.747 820.867 205.756 820.785ZM227.191 803.323C226.275 803.66 225.531 804.347 225.123 805.233C224.714 806.118 224.674 807.13 225.011 808.045L227.554 814.945C227.892 815.86 228.579 816.603 229.464 817.012C230.35 817.42 231.362 817.46 232.277 817.123C233.192 816.785 233.936 816.098 234.345 815.213C234.754 814.327 234.794 813.316 234.457 812.401L231.913 805.501C231.576 804.586 230.889 803.842 230.003 803.434C229.118 803.026 228.106 802.986 227.191 803.323ZM209.571 798.062L200.288 801.483C199.373 801.821 198.629 802.508 198.22 803.393C197.811 804.279 197.771 805.29 198.108 806.205C198.446 807.12 199.133 807.864 200.018 808.272C200.904 808.681 201.916 808.721 202.831 808.383L212.115 804.961L219.744 825.661L211.772 828.599C210.857 828.937 210.113 829.624 209.704 830.509C209.296 831.395 209.256 832.406 209.593 833.321C209.93 834.236 210.617 834.98 211.503 835.388C212.388 835.797 213.4 835.837 214.316 835.499L222.288 832.561C224.118 831.886 225.606 830.512 226.423 828.741C227.241 826.97 227.321 824.947 226.647 823.117L219.017 802.417C218.342 800.587 216.968 799.1 215.197 798.283C213.425 797.467 211.402 797.387 209.571 798.062Z" fill="url(#paint1_linear_6001_4033)"/>
<g style="mix-blend-mode:overlay" filter="url(#filter3_f_6001_4033)">
<circle cx="330" cy="629" r="50" fill="#F55F8C"/>
</g>
<g style="mix-blend-mode:overlay" filter="url(#filter4_f_6001_4033)">
<circle cx="653" cy="706" r="50" fill="#F55F8C"/>
</g>
<g style="mix-blend-mode:overlay" filter="url(#filter5_f_6001_4033)">
<circle cx="590" cy="720" r="50" fill="#F55F8C"/>
</g>
<g style="mix-blend-mode:plus-lighter" opacity="0.5" filter="url(#filter6_f_6001_4033)">
<circle cx="172.5" cy="804.5" r="39.5" fill="#F55F8C"/>
</g>
<path d="M928.026 225.894L929.917 226.51L930.532 224.619C930.695 224.118 931.051 223.702 931.521 223.463C931.991 223.224 932.536 223.181 933.038 223.344C933.539 223.507 933.955 223.863 934.194 224.333C934.433 224.803 934.476 225.349 934.313 225.85L933.697 227.741L948.821 232.664L949.437 230.774C949.6 230.272 949.956 229.856 950.425 229.617C950.895 229.378 951.441 229.335 951.943 229.499C952.444 229.662 952.86 230.018 953.099 230.487C953.338 230.957 953.381 231.503 953.218 232.005L952.602 233.895L954.493 234.51C956.998 235.329 959.076 237.108 960.271 239.457C961.466 241.806 961.681 244.533 960.868 247.04L953.483 269.726C952.664 272.231 950.885 274.308 948.536 275.504C946.187 276.699 943.46 276.913 940.953 276.101L914.486 267.485C911.981 266.666 909.903 264.887 908.708 262.538C907.513 260.189 907.299 257.462 908.111 254.955L915.497 232.269C916.315 229.764 918.094 227.686 920.443 226.491C922.792 225.296 925.519 225.082 928.026 225.894ZM957.087 245.809C957.576 244.305 957.449 242.668 956.731 241.258C956.014 239.848 954.766 238.781 953.262 238.291L926.795 229.675C925.291 229.186 923.654 229.313 922.244 230.031C920.834 230.748 919.767 231.996 919.277 233.5L918.662 235.391L956.471 247.7L957.087 245.809ZM915.717 263.704L942.184 272.32C943.688 272.809 945.325 272.681 946.735 271.964C948.145 271.247 949.212 269.999 949.702 268.495L955.241 251.48L917.431 239.172L911.892 256.186C911.403 257.69 911.531 259.327 912.248 260.737C912.965 262.147 914.213 263.214 915.717 263.704Z" fill="url(#paint2_linear_6001_4033)"/>
<path d="M932.336 257.614C930.769 257.104 929.913 255.421 930.423 253.855C930.933 252.289 932.616 251.433 934.182 251.943C935.748 252.453 936.604 254.135 936.094 255.702C935.585 257.268 933.902 258.124 932.336 257.614Z" fill="url(#paint3_linear_6001_4033)"/>
<path d="M941.79 260.692C940.224 260.182 939.367 258.499 939.877 256.933C940.387 255.367 942.07 254.511 943.636 255.02C945.202 255.53 946.058 257.213 945.549 258.779C945.039 260.345 943.356 261.202 941.79 260.692Z" fill="url(#paint4_linear_6001_4033)"/>
<path d="M922.881 254.536C921.315 254.027 920.459 252.344 920.969 250.778C921.479 249.211 923.162 248.355 924.728 248.865C926.294 249.375 927.15 251.058 926.64 252.624C926.13 254.19 924.447 255.046 922.881 254.536Z" fill="url(#paint5_linear_6001_4033)"/>
<defs>
<filter id="filter0_f_6001_4033" x="13" y="-730" width="1342" height="1342" filterUnits="userSpaceOnUse" color-interpolation-filters="sRGB">
<feFlood flood-opacity="0" result="BackgroundImageFix"/>
<feBlend mode="normal" in="SourceGraphic" in2="BackgroundImageFix" result="shape"/>
<feGaussianBlur stdDeviation="183" result="effect1_foregroundBlur_6001_4033"/>
</filter>
<filter id="filter1_f_6001_4033" x="587" y="-25" width="1342" height="1342" filterUnits="userSpaceOnUse" color-interpolation-filters="sRGB">
<feFlood flood-opacity="0" result="BackgroundImageFix"/>
<feBlend mode="normal" in="SourceGraphic" in2="BackgroundImageFix" result="shape"/>
<feGaussianBlur stdDeviation="183" result="effect1_foregroundBlur_6001_4033"/>
</filter>
<filter id="filter2_f_6001_4033" x="331.621" y="-109.052" width="239.981" height="239.981" filterUnits="userSpaceOnUse" color-interpolation-filters="sRGB">
<feFlood flood-opacity="0" result="BackgroundImageFix"/>
<feBlend mode="normal" in="SourceGraphic" in2="BackgroundImageFix" result="shape"/>
<feGaussianBlur stdDeviation="3.24623" result="effect1_foregroundBlur_6001_4033"/>
</filter>
<filter id="filter3_f_6001_4033" x="200" y="499" width="260" height="260" filterUnits="userSpaceOnUse" color-interpolation-filters="sRGB">
<feFlood flood-opacity="0" result="BackgroundImageFix"/>
<feBlend mode="normal" in="SourceGraphic" in2="BackgroundImageFix" result="shape"/>
<feGaussianBlur stdDeviation="40" result="effect1_foregroundBlur_6001_4033"/>
</filter>
<filter id="filter4_f_6001_4033" x="523" y="576" width="260" height="260" filterUnits="userSpaceOnUse" color-interpolation-filters="sRGB">
<feFlood flood-opacity="0" result="BackgroundImageFix"/>
<feBlend mode="normal" in="SourceGraphic" in2="BackgroundImageFix" result="shape"/>
<feGaussianBlur stdDeviation="40" result="effect1_foregroundBlur_6001_4033"/>
</filter>
<filter id="filter5_f_6001_4033" x="460" y="590" width="260" height="260" filterUnits="userSpaceOnUse" color-interpolation-filters="sRGB">
<feFlood flood-opacity="0" result="BackgroundImageFix"/>
<feBlend mode="normal" in="SourceGraphic" in2="BackgroundImageFix" result="shape"/>
<feGaussianBlur stdDeviation="40" result="effect1_foregroundBlur_6001_4033"/>
</filter>
<filter id="filter6_f_6001_4033" x="69.8" y="701.8" width="205.4" height="205.4" filterUnits="userSpaceOnUse" color-interpolation-filters="sRGB">
<feFlood flood-opacity="0" result="BackgroundImageFix"/>
<feBlend mode="normal" in="SourceGraphic" in2="BackgroundImageFix" result="shape"/>
<feGaussianBlur stdDeviation="31.6" result="effect1_foregroundBlur_6001_4033"/>
</filter>
<linearGradient id="paint0_linear_6001_4033" x1="428.056" y1="-31.7109" x2="475.169" y2="53.5905" gradientUnits="userSpaceOnUse">
<stop stop-color="#FF2A6D"/>
<stop offset="1" stop-color="#FF2A6D" stop-opacity="0.3"/>
</linearGradient>
<linearGradient id="paint1_linear_6001_4033" x1="192.316" y1="804.422" x2="205.036" y2="838.933" gradientUnits="userSpaceOnUse">
<stop stop-color="#FF6090"/>
<stop offset="0.95" stop-color="#FF6090" stop-opacity="0.3"/>
</linearGradient>
<linearGradient id="paint2_linear_6001_4033" x1="971.982" y1="228.383" x2="910.419" y2="267.089" gradientUnits="userSpaceOnUse">
<stop stop-color="#FF9CBB"/>
<stop offset="1" stop-color="#F26994" stop-opacity="0.3"/>
</linearGradient>
<linearGradient id="paint3_linear_6001_4033" x1="971.982" y1="228.383" x2="910.419" y2="267.089" gradientUnits="userSpaceOnUse">
<stop stop-color="#FF9CBB"/>
<stop offset="1" stop-color="#F26994" stop-opacity="0.3"/>
</linearGradient>
<linearGradient id="paint4_linear_6001_4033" x1="971.982" y1="228.383" x2="910.419" y2="267.089" gradientUnits="userSpaceOnUse">
<stop stop-color="#FF9CBB"/>
<stop offset="1" stop-color="#F26994" stop-opacity="0.3"/>
</linearGradient>
<linearGradient id="paint5_linear_6001_4033" x1="971.982" y1="228.383" x2="910.419" y2="267.089" gradientUnits="userSpaceOnUse">
<stop stop-color="#FF9CBB"/>
<stop offset="1" stop-color="#F26994" stop-opacity="0.3"/>
</linearGradient>
</defs>
</svg>
