<svg width="316" height="11" viewBox="0 0 316 11" fill="none" xmlns="http://www.w3.org/2000/svg">
<path d="M1.40625 9.58665C3.65305 7.33207 6.03947 4.572 9.07546 2.87451" stroke="#D5E1E3" stroke-width="2.35349" stroke-miterlimit="1.5" stroke-linecap="round" stroke-linejoin="round"/>
<path d="M12.7188 8.21028C14.6543 6.2516 17.0244 4.19596 19.5434 2.63916" stroke="#D5E1E3" stroke-width="2.35349" stroke-miterlimit="1.5" stroke-linecap="round" stroke-linejoin="round"/>
<path d="M22.293 8.26025C24.4278 6.14889 27.0125 4.33171 29.6978 2.63916" stroke="#D5E1E3" stroke-width="2.35349" stroke-miterlimit="1.5" stroke-linecap="round" stroke-linejoin="round"/>
<path d="M31.7227 8.79305C33.4507 7.12443 36.0435 4.78992 38.6566 3.81738" stroke="#D5E1E3" stroke-width="2.35349" stroke-miterlimit="1.5" stroke-linecap="round" stroke-linejoin="round"/>
<path d="M41.1484 8.35078C43.6359 6.28245 46.4676 4.03032 49.4827 2.40283" stroke="#D5E1E3" stroke-width="2.35349" stroke-miterlimit="1.5" stroke-linecap="round" stroke-linejoin="round"/>
<path d="M52.6074 7.41726C55.0307 5.58441 57.471 3.81877 60.1047 2.16748" stroke="#D5E1E3" stroke-width="2.35349" stroke-miterlimit="1.5" stroke-linecap="round" stroke-linejoin="round"/>
<path d="M62.0352 7.79685C64.6536 5.65811 67.505 3.2668 70.7837 1.6958" stroke="#D5E1E3" stroke-width="2.35349" stroke-miterlimit="1.5" stroke-linecap="round" stroke-linejoin="round"/>
<path d="M71.6094 7.82749C73.8082 5.97278 76.2522 3.90063 78.9016 2.40283" stroke="#D5E1E3" stroke-width="2.35349" stroke-miterlimit="1.5" stroke-linecap="round" stroke-linejoin="round"/>
<path d="M82.9219 7.23512C85.2031 5.11848 87.86 2.56721 91.0659 1.22461" stroke="#D5E1E3" stroke-width="2.35349" stroke-miterlimit="1.5" stroke-linecap="round" stroke-linejoin="round"/>
<path d="M90.4648 7.73872C92.2063 6.01014 94.2329 3.8942 96.6395 2.63916" stroke="#D5E1E3" stroke-width="2.35349" stroke-miterlimit="1.5" stroke-linecap="round" stroke-linejoin="round"/>
<path d="M100.039 8.0205C102.2 6.18601 104.4 4.27106 106.834 2.63916" stroke="#D5E1E3" stroke-width="2.35349" stroke-miterlimit="1.5" stroke-linecap="round" stroke-linejoin="round"/>
<path d="M109.467 8.09927C111.631 6.26973 113.687 4.28179 116.106 2.63916" stroke="#D5E1E3" stroke-width="2.35349" stroke-miterlimit="1.5" stroke-linecap="round" stroke-linejoin="round"/>
<path d="M117.008 8.57676C119.394 6.47531 121.897 4.52935 124.561 2.63916" stroke="#D5E1E3" stroke-width="2.35349" stroke-miterlimit="1.5" stroke-linecap="round" stroke-linejoin="round"/>
<path d="M124.695 8.11388C127.012 6.20677 129.255 4.10983 131.839 2.40283" stroke="#D5E1E3" stroke-width="2.35349" stroke-miterlimit="1.5" stroke-linecap="round" stroke-linejoin="round"/>
<path d="M134.123 8.28212C135.885 6.66384 138.182 4.37179 140.681 3.36377" stroke="#D5E1E3" stroke-width="2.35349" stroke-miterlimit="1.5" stroke-linecap="round" stroke-linejoin="round"/>
<path d="M141.562 8.56071C143.556 6.41747 146.307 3.91971 149.369 2.60986" stroke="#D5E1E3" stroke-width="2.35349" stroke-miterlimit="1.5" stroke-linecap="round" stroke-linejoin="round"/>
<path d="M149.203 8.2769C151.683 6.48118 154.18 4.71784 156.89 3.12842" stroke="#D5E1E3" stroke-width="2.35349" stroke-miterlimit="1.5" stroke-linecap="round" stroke-linejoin="round"/>
<path d="M158.781 8.22215C161.021 6.39963 163.741 4.94104 166.005 3.12842" stroke="#D5E1E3" stroke-width="2.35349" stroke-miterlimit="1.5" stroke-linecap="round" stroke-linejoin="round"/>
<path d="M170.092 7.6793C172.259 5.93352 174.626 4.15346 177.086 2.63916" stroke="#D5E1E3" stroke-width="2.35349" stroke-miterlimit="1.5" stroke-linecap="round" stroke-linejoin="round"/>
<path d="M179.668 7.58467C181.422 5.61477 183.515 3.70813 185.904 2.16748" stroke="#D5E1E3" stroke-width="2.35349" stroke-miterlimit="1.5" stroke-linecap="round" stroke-linejoin="round"/>
<path d="M187.207 7.74421C189.361 6.07105 191.557 4.28318 194.025 2.87451" stroke="#D5E1E3" stroke-width="2.35349" stroke-miterlimit="1.5" stroke-linecap="round" stroke-linejoin="round"/>
<path d="M196.637 7.40248C198.741 5.59151 201.186 3.37083 204.194 2.40283" stroke="#D5E1E3" stroke-width="2.35349" stroke-miterlimit="1.5" stroke-linecap="round" stroke-linejoin="round"/>
<path d="M206.062 6.91549C208.379 5.32444 210.699 3.45814 213.334 2.16748" stroke="#D5E1E3" stroke-width="2.35349" stroke-miterlimit="1.5" stroke-linecap="round" stroke-linejoin="round"/>
<path d="M215.635 6.99544C218.113 5.30289 220.399 3.13377 223.127 1.6958" stroke="#D5E1E3" stroke-width="2.35349" stroke-miterlimit="1.5" stroke-linecap="round" stroke-linejoin="round"/>
<path d="M223.178 7.39331C225.517 5.79896 227.717 3.77798 230.504 2.63916" stroke="#D5E1E3" stroke-width="2.35349" stroke-miterlimit="1.5" stroke-linecap="round" stroke-linejoin="round"/>
<path d="M234.637 7.41554C236.559 5.7325 238.825 4.36774 240.681 2.63916" stroke="#D5E1E3" stroke-width="2.35349" stroke-miterlimit="1.5" stroke-linecap="round" stroke-linejoin="round"/>
<path d="M242.18 8.02693C244.242 6.38554 246.338 4.67078 248.532 3.12842" stroke="#D5E1E3" stroke-width="2.35349" stroke-miterlimit="1.5" stroke-linecap="round" stroke-linejoin="round"/>
<path d="M251.607 7.50325C253.766 5.58624 256.002 3.56609 258.539 1.93213" stroke="#D5E1E3" stroke-width="2.35349" stroke-miterlimit="1.5" stroke-linecap="round" stroke-linejoin="round"/>
<path d="M259.15 7.56507C261.375 5.8655 263.967 3.56517 266.757 2.40283" stroke="#D5E1E3" stroke-width="2.35349" stroke-miterlimit="1.5" stroke-linecap="round" stroke-linejoin="round"/>
<path d="M268.723 7.50225C271.128 5.74541 273.832 3.85636 276.575 2.40283" stroke="#D5E1E3" stroke-width="2.35349" stroke-miterlimit="1.5" stroke-linecap="round" stroke-linejoin="round"/>
<path d="M280.037 7.1362C282.247 5.23033 284.781 3.66074 287.469 2.16748" stroke="#D5E1E3" stroke-width="2.35349" stroke-miterlimit="1.5" stroke-linecap="round" stroke-linejoin="round"/>
<path d="M289.609 6.51952C292.036 5.12942 294.449 3.71413 296.949 2.40283" stroke="#D5E1E3" stroke-width="2.35349" stroke-miterlimit="1.5" stroke-linecap="round" stroke-linejoin="round"/>
<path d="M300.924 7.28349C302.939 5.80302 305.184 4.21855 307.607 3.12842" stroke="#D5E1E3" stroke-width="2.35349" stroke-miterlimit="1.5" stroke-linecap="round" stroke-linejoin="round"/>
<path d="M308.465 7.23537C310.554 5.91335 312.733 4.68167 314.824 3.36377" stroke="#D5E1E3" stroke-width="2.35349" stroke-miterlimit="1.5" stroke-linecap="round" stroke-linejoin="round"/>
</svg>
